<ttFont>
<head>
    <!-- Most of this table will be recalculated by the compiler -->
    <tableVersion value="1.0"/>
    <fontRevision value="1.002"/>
    <checkSumAdjustment value="0x2c13bcc5"/>
    <magicNumber value="0x5f0f3cf5"/>
    <flags value="00000000 00001111"/>
    <unitsPerEm value="1000"/>
    <created value="Sat Jan  4 16:14:24 2020"/>
    <modified value="Thu Feb  4 02:08:25 2021"/>
    <xMin value="-145"/>
    <yMin value="-282"/>
    <xMax value="1390"/>
    <yMax value="1190"/>
    <macStyle value="00000000 00000000"/>
    <lowestRecPPEM value="6"/>
    <fontDirectionHint value="2"/>
    <indexToLocFormat value="1"/>
    <glyphDataFormat value="0"/>
  </head>
    <TTGlyph name=".notdef" xMin="40" yMin="0" xMax="544" yMax="700">
      <contour>
        <pt x="40" y="35" on="1"/>
        <pt x="40" y="665" on="1"/>
        <pt x="40" y="682" on="0"/>
        <pt x="58" y="700" on="0"/>
        <pt x="75" y="700" on="1"/>
        <pt x="509" y="700" on="1"/>
        <pt x="526" y="700" on="0"/>
        <pt x="544" y="682" on="0"/>
        <pt x="544" y="665" on="1"/>
        <pt x="544" y="35" on="1"/>
        <pt x="544" y="18" on="0"/>
        <pt x="526" y="0" on="0"/>
        <pt x="509" y="0" on="1"/>
        <pt x="75" y="0" on="1"/>
        <pt x="58" y="0" on="0"/>
        <pt x="40" y="18" on="0"/>
      </contour>
      <contour>
        <pt x="509" y="670" on="1"/>
        <pt x="95" y="670" on="1"/>
        <pt x="92" y="670" on="0"/>
        <pt x="90" y="666" on="0"/>
        <pt x="92" y="664" on="1"/>
        <pt x="508" y="65" on="1"/>
        <pt x="510" y="62" on="0"/>
        <pt x="514" y="63" on="0"/>
        <pt x="514" y="67" on="1"/>
        <pt x="514" y="665" on="1"/>
        <pt x="514" y="667" on="0"/>
        <pt x="511" y="670" on="0"/>
      </contour>
      <contour>
        <pt x="70" y="633" on="1"/>
        <pt x="70" y="35" on="1"/>
        <pt x="70" y="33" on="0"/>
        <pt x="73" y="30" on="0"/>
        <pt x="75" y="30" on="1"/>
        <pt x="488" y="30" on="1"/>
        <pt x="491" y="30" on="0"/>
        <pt x="493" y="34" on="0"/>
        <pt x="491" y="36" on="1"/>
        <pt x="76" y="635" on="1"/>
        <pt x="74" y="638" on="0"/>
        <pt x="70" y="637" on="0"/>
      </contour>
    </TTGlyph>
    <TTGlyph name="A" xMin="10" yMin="0" xMax="687" yMax="700">
      <contour>
        <pt x="334" y="573" on="1"/>
        <pt x="360" y="574" on="1"/>
        <pt x="348" y="531" on="0"/>
        <pt x="313" y="422" on="0"/>
        <pt x="297" y="381" on="1"/>
        <pt x="153" y="0" on="1"/>
        <pt x="10" y="0" on="1"/>
        <pt x="284" y="700" on="1"/>
        <pt x="414" y="700" on="1"/>
        <pt x="687" y="0" on="1"/>
        <pt x="539" y="0" on="1"/>
        <pt x="395" y="383" on="1"/>
        <pt x="380" y="424" on="0"/>
        <pt x="346" y="530" on="0"/>
      </contour>
      <contour>
        <pt x="351" y="151" on="1"/>
        <pt x="137" y="151" on="1"/>
        <pt x="184" y="269" on="1"/>
        <pt x="351" y="269" on="1"/>
      </contour>
      <contour>
        <pt x="554" y="151" on="1"/>
        <pt x="351" y="151" on="1"/>
        <pt x="351" y="269" on="1"/>
        <pt x="505" y="269" on="1"/>
      </contour>
    </TTGlyph>
    <TTGlyph name="AE" xMin="-3" yMin="0" xMax="965" yMax="700">
      <contour>
        <pt x="206" y="147" on="1"/>
        <pt x="273" y="263" on="1"/>
        <pt x="519" y="263" on="1"/>
        <pt x="501" y="213" on="1"/>
        <pt x="501" y="552" on="1"/>
        <pt x="520" y="541" on="1"/>
        <pt x="150" y="0" on="1"/>
        <pt x="-3" y="0" on="1"/>
        <pt x="485" y="700" on="1"/>
        <pt x="965" y="700" on="1"/>
        <pt x="965" y="580" on="1"/>
        <pt x="628" y="580" on="1"/>
        <pt x="637" y="589" on="1"/>
        <pt x="637" y="396" on="1"/>
        <pt x="629" y="413" on="1"/>
        <pt x="920" y="413" on="1"/>
        <pt x="920" y="296" on="1"/>
        <pt x="627" y="296" on="1"/>
        <pt x="637" y="310" on="1"/>
        <pt x="637" y="99" on="1"/>
        <pt x="628" y="120" on="1"/>
        <pt x="965" y="120" on="1"/>
        <pt x="965" y="0" on="1"/>
        <pt x="501" y="0" on="1"/>
        <pt x="501" y="166" on="1"/>
        <pt x="524" y="147" on="1"/>
      </contour>
    </TTGlyph>
    <TTGlyph name="AEacute" xMin="-3" yMin="0" xMax="965" yMax="956">
      <contour>
        <pt x="206" y="147" on="1"/>
        <pt x="273" y="263" on="1"/>
        <pt x="519" y="263" on="1"/>
        <pt x="501" y="213" on="1"/>
        <pt x="501" y="552" on="1"/>
        <pt x="520" y="541" on="1"/>
        <pt x="150" y="0" on="1"/>
        <pt x="-3" y="0" on="1"/>
        <pt x="485" y="700" on="1"/>
        <pt x="965" y="700" on="1"/>
        <pt x="965" y="580" on="1"/>
        <pt x="628" y="580" on="1"/>
        <pt x="637" y="589" on="1"/>
        <pt x="637" y="396" on="1"/>
        <pt x="629" y="413" on="1"/>
        <pt x="920" y="413" on="1"/>
        <pt x="920" y="296" on="1"/>
        <pt x="627" y="296" on="1"/>
        <pt x="637" y="310" on="1"/>
        <pt x="637" y="99" on="1"/>
        <pt x="628" y="120" on="1"/>
        <pt x="965" y="120" on="1"/>
        <pt x="965" y="0" on="1"/>
        <pt x="501" y="0" on="1"/>
        <pt x="501" y="166" on="1"/>
        <pt x="524" y="147" on="1"/>
      </contour>
      <contour>
        <pt x="842" y="860" on="1"/>
        <pt x="650" y="757" on="1"/>
        <pt x="607" y="822" on="1"/>
        <pt x="771" y="956" on="1"/>
      </contour>
    </TTGlyph>
    <TTGlyph name="Aacute" xMin="10" yMin="0" xMax="687" yMax="956">
      <contour>
        <pt x="334" y="573" on="1"/>
        <pt x="360" y="574" on="1"/>
        <pt x="348" y="531" on="0"/>
        <pt x="313" y="422" on="0"/>
        <pt x="297" y="381" on="1"/>
        <pt x="153" y="0" on="1"/>
        <pt x="10" y="0" on="1"/>
        <pt x="284" y="700" on="1"/>
        <pt x="414" y="700" on="1"/>
        <pt x="687" y="0" on="1"/>
        <pt x="539" y="0" on="1"/>
        <pt x="395" y="383" on="1"/>
        <pt x="380" y="424" on="0"/>
        <pt x="346" y="530" on="0"/>
      </contour>
      <contour>
        <pt x="351" y="151" on="1"/>
        <pt x="137" y="151" on="1"/>
        <pt x="184" y="269" on="1"/>
        <pt x="351" y="269" on="1"/>
      </contour>
      <contour>
        <pt x="554" y="151" on="1"/>
        <pt x="351" y="151" on="1"/>
        <pt x="351" y="269" on="1"/>
        <pt x="505" y="269" on="1"/>
      </contour>
      <contour>
        <pt x="510" y="860" on="1"/>
        <pt x="318" y="757" on="1"/>
        <pt x="275" y="822" on="1"/>
        <pt x="439" y="956" on="1"/>
      </contour>
    </TTGlyph>
    <TTGlyph name="Abreve" xMin="10" yMin="0" xMax="687" yMax="927">
      <contour>
        <pt x="334" y="573" on="1"/>
        <pt x="360" y="574" on="1"/>
        <pt x="348" y="531" on="0"/>
        <pt x="313" y="422" on="0"/>
        <pt x="297" y="381" on="1"/>
        <pt x="153" y="0" on="1"/>
        <pt x="10" y="0" on="1"/>
        <pt x="284" y="700" on="1"/>
        <pt x="414" y="700" on="1"/>
        <pt x="687" y="0" on="1"/>
        <pt x="539" y="0" on="1"/>
        <pt x="395" y="383" on="1"/>
        <pt x="380" y="424" on="0"/>
        <pt x="346" y="530" on="0"/>
      </contour>
      <contour>
        <pt x="351" y="151" on="1"/>
        <pt x="137" y="151" on="1"/>
        <pt x="184" y="269" on="1"/>
        <pt x="351" y="269" on="1"/>
      </contour>
      <contour>
        <pt x="554" y="151" on="1"/>
        <pt x="351" y="151" on="1"/>
        <pt x="351" y="269" on="1"/>
        <pt x="505" y="269" on="1"/>
      </contour>
      <contour>
        <pt x="348" y="757" on="1"/>
        <pt x="283" y="757" on="0"/>
        <pt x="190" y="842" on="0"/>
        <pt x="176" y="915" on="1"/>
        <pt x="266" y="927" on="1"/>
        <pt x="278" y="892" on="0"/>
        <pt x="323" y="852" on="0"/>
        <pt x="348" y="852" on="1"/>
        <pt x="373" y="852" on="0"/>
        <pt x="417" y="892" on="0"/>
        <pt x="429" y="927" on="1"/>
        <pt x="520" y="915" on="1"/>
        <pt x="505" y="842" on="0"/>
        <pt x="413" y="757" on="0"/>
      </contour>
    </TTGlyph>
    <TTGlyph name="Acircumflex" xMin="10" yMin="0" xMax="687" yMax="920">
      <contour>
        <pt x="334" y="573" on="1"/>
        <pt x="360" y="574" on="1"/>
        <pt x="348" y="531" on="0"/>
        <pt x="313" y="422" on="0"/>
        <pt x="297" y="381" on="1"/>
        <pt x="153" y="0" on="1"/>
        <pt x="10" y="0" on="1"/>
        <pt x="284" y="700" on="1"/>
        <pt x="414" y="700" on="1"/>
        <pt x="687" y="0" on="1"/>
        <pt x="539" y="0" on="1"/>
        <pt x="395" y="383" on="1"/>
        <pt x="380" y="424" on="0"/>
        <pt x="346" y="530" on="0"/>
      </contour>
      <contour>
        <pt x="351" y="151" on="1"/>
        <pt x="137" y="151" on="1"/>
        <pt x="184" y="269" on="1"/>
        <pt x="351" y="269" on="1"/>
      </contour>
      <contour>
        <pt x="554" y="151" on="1"/>
        <pt x="351" y="151" on="1"/>
        <pt x="351" y="269" on="1"/>
        <pt x="505" y="269" on="1"/>
      </contour>
      <contour>
        <pt x="475" y="758" on="1"/>
        <pt x="335" y="836" on="1"/>
        <pt x="364" y="836" on="1"/>
        <pt x="225" y="758" on="1"/>
        <pt x="177" y="804" on="1"/>
        <pt x="308" y="920" on="1"/>
        <pt x="391" y="920" on="1"/>
        <pt x="522" y="804" on="1"/>
      </contour>
    </TTGlyph>
    <TTGlyph name="Adieresis" xMin="10" yMin="0" xMax="687" yMax="909">
      <contour>
        <pt x="334" y="573" on="1"/>
        <pt x="360" y="574" on="1"/>
        <pt x="348" y="531" on="0"/>
        <pt x="313" y="422" on="0"/>
        <pt x="297" y="381" on="1"/>
        <pt x="153" y="0" on="1"/>
        <pt x="10" y="0" on="1"/>
        <pt x="284" y="700" on="1"/>
        <pt x="414" y="700" on="1"/>
        <pt x="687" y="0" on="1"/>
        <pt x="539" y="0" on="1"/>
        <pt x="395" y="383" on="1"/>
        <pt x="380" y="424" on="0"/>
        <pt x="346" y="530" on="0"/>
      </contour>
      <contour>
        <pt x="351" y="151" on="1"/>
        <pt x="137" y="151" on="1"/>
        <pt x="184" y="269" on="1"/>
        <pt x="351" y="269" on="1"/>
      </contour>
      <contour>
        <pt x="554" y="151" on="1"/>
        <pt x="351" y="151" on="1"/>
        <pt x="351" y="269" on="1"/>
        <pt x="505" y="269" on="1"/>
      </contour>
      <contour>
        <pt x="316" y="833" on="1"/>
        <pt x="316" y="799" on="0"/>
        <pt x="274" y="756" on="0"/>
        <pt x="237" y="756" on="1"/>
        <pt x="199" y="756" on="0"/>
        <pt x="158" y="796" on="0"/>
        <pt x="158" y="833" on="1"/>
        <pt x="158" y="867" on="0"/>
        <pt x="200" y="909" on="0"/>
        <pt x="237" y="909" on="1"/>
        <pt x="275" y="909" on="0"/>
        <pt x="316" y="870" on="0"/>
      </contour>
      <contour>
        <pt x="544" y="833" on="1"/>
        <pt x="544" y="799" on="0"/>
        <pt x="502" y="756" on="0"/>
        <pt x="465" y="756" on="1"/>
        <pt x="427" y="756" on="0"/>
        <pt x="386" y="796" on="0"/>
        <pt x="386" y="833" on="1"/>
        <pt x="386" y="867" on="0"/>
        <pt x="428" y="909" on="0"/>
        <pt x="465" y="909" on="1"/>
        <pt x="503" y="909" on="0"/>
        <pt x="544" y="870" on="0"/>
      </contour>
    </TTGlyph>
    <TTGlyph name="Agrave" xMin="10" yMin="0" xMax="687" yMax="959">
      <contour>
        <pt x="334" y="573" on="1"/>
        <pt x="360" y="574" on="1"/>
        <pt x="348" y="531" on="0"/>
        <pt x="313" y="422" on="0"/>
        <pt x="297" y="381" on="1"/>
        <pt x="153" y="0" on="1"/>
        <pt x="10" y="0" on="1"/>
        <pt x="284" y="700" on="1"/>
        <pt x="414" y="700" on="1"/>
        <pt x="687" y="0" on="1"/>
        <pt x="539" y="0" on="1"/>
        <pt x="395" y="383" on="1"/>
        <pt x="380" y="424" on="0"/>
        <pt x="346" y="530" on="0"/>
      </contour>
      <contour>
        <pt x="351" y="151" on="1"/>
        <pt x="137" y="151" on="1"/>
        <pt x="184" y="269" on="1"/>
        <pt x="351" y="269" on="1"/>
      </contour>
      <contour>
        <pt x="554" y="151" on="1"/>
        <pt x="351" y="151" on="1"/>
        <pt x="351" y="269" on="1"/>
        <pt x="505" y="269" on="1"/>
      </contour>
      <contour>
        <pt x="429" y="824" on="1"/>
        <pt x="387" y="759" on="1"/>
        <pt x="195" y="863" on="1"/>
        <pt x="266" y="959" on="1"/>
      </contour>
    </TTGlyph>
    <TTGlyph name="Amacron" xMin="10" yMin="0" xMax="687" yMax="864">
      <contour>
        <pt x="334" y="573" on="1"/>
        <pt x="360" y="574" on="1"/>
        <pt x="348" y="531" on="0"/>
        <pt x="313" y="422" on="0"/>
        <pt x="297" y="381" on="1"/>
        <pt x="153" y="0" on="1"/>
        <pt x="10" y="0" on="1"/>
        <pt x="284" y="700" on="1"/>
        <pt x="414" y="700" on="1"/>
        <pt x="687" y="0" on="1"/>
        <pt x="539" y="0" on="1"/>
        <pt x="395" y="383" on="1"/>
        <pt x="380" y="424" on="0"/>
        <pt x="346" y="530" on="0"/>
      </contour>
      <contour>
        <pt x="351" y="151" on="1"/>
        <pt x="137" y="151" on="1"/>
        <pt x="184" y="269" on="1"/>
        <pt x="351" y="269" on="1"/>
      </contour>
      <contour>
        <pt x="554" y="151" on="1"/>
        <pt x="351" y="151" on="1"/>
        <pt x="351" y="269" on="1"/>
        <pt x="505" y="269" on="1"/>
      </contour>
      <contour>
        <pt x="524" y="774" on="1"/>
        <pt x="177" y="774" on="1"/>
        <pt x="177" y="864" on="1"/>
        <pt x="524" y="864" on="1"/>
      </contour>
    </TTGlyph>
    <TTGlyph name="Aogonek" xMin="10" yMin="-219" xMax="692" yMax="700">
      <contour>
        <pt x="592" y="14" on="1"/>
        <pt x="538" y="0" on="1"/>
        <pt x="397" y="383" on="1"/>
        <pt x="391" y="400" on="0"/>
        <pt x="378" y="436" on="0"/>
        <pt x="368" y="470" on="1"/>
        <pt x="358" y="500" on="0"/>
        <pt x="345" y="538" on="0"/>
        <pt x="339" y="559" on="1"/>
        <pt x="353" y="559" on="1"/>
        <pt x="346" y="537" on="0"/>
        <pt x="331" y="496" on="0"/>
        <pt x="320" y="461" on="1"/>
        <pt x="310" y="430" on="0"/>
        <pt x="298" y="396" on="0"/>
        <pt x="292" y="381" on="1"/>
        <pt x="153" y="0" on="1"/>
        <pt x="10" y="0" on="1"/>
        <pt x="280" y="700" on="1"/>
        <pt x="417" y="700" on="1"/>
        <pt x="676" y="24" on="1"/>
        <pt x="671" y="0" on="1"/>
        <pt x="615" y="-20" on="0"/>
        <pt x="550" y="-68" on="0"/>
        <pt x="550" y="-92" on="1"/>
        <pt x="550" y="-107" on="0"/>
        <pt x="572" y="-128" on="0"/>
        <pt x="589" y="-128" on="1"/>
        <pt x="602" y="-128" on="0"/>
        <pt x="628" y="-115" on="0"/>
        <pt x="642" y="-103" on="1"/>
        <pt x="692" y="-166" on="1"/>
        <pt x="665" y="-190" on="0"/>
        <pt x="603" y="-219" on="0"/>
        <pt x="569" y="-219" on="1"/>
        <pt x="516" y="-219" on="0"/>
        <pt x="446" y="-158" on="0"/>
        <pt x="446" y="-110" on="1"/>
        <pt x="446" y="-68" on="0"/>
        <pt x="529" y="16" on="0"/>
        <pt x="592" y="41" on="1"/>
      </contour>
      <contour>
        <pt x="352" y="151" on="1"/>
        <pt x="156" y="151" on="1"/>
        <pt x="206" y="269" on="1"/>
        <pt x="352" y="269" on="1"/>
      </contour>
      <contour>
        <pt x="534" y="151" on="1"/>
        <pt x="352" y="151" on="1"/>
        <pt x="352" y="269" on="1"/>
        <pt x="504" y="269" on="1"/>
      </contour>
    </TTGlyph>
    <TTGlyph name="Aring" xMin="10" yMin="0" xMax="687" yMax="883">
      <contour>
        <pt x="334" y="573" on="1"/>
        <pt x="360" y="574" on="1"/>
        <pt x="348" y="531" on="0"/>
        <pt x="313" y="422" on="0"/>
        <pt x="297" y="381" on="1"/>
        <pt x="153" y="0" on="1"/>
        <pt x="10" y="0" on="1"/>
        <pt x="284" y="700" on="1"/>
        <pt x="414" y="700" on="1"/>
        <pt x="687" y="0" on="1"/>
        <pt x="539" y="0" on="1"/>
        <pt x="395" y="383" on="1"/>
        <pt x="380" y="424" on="0"/>
        <pt x="346" y="530" on="0"/>
      </contour>
      <contour>
        <pt x="351" y="151" on="1"/>
        <pt x="137" y="151" on="1"/>
        <pt x="184" y="269" on="1"/>
        <pt x="351" y="269" on="1"/>
      </contour>
      <contour>
        <pt x="554" y="151" on="1"/>
        <pt x="351" y="151" on="1"/>
        <pt x="351" y="269" on="1"/>
        <pt x="505" y="269" on="1"/>
      </contour>
      <contour>
        <pt x="471" y="764" on="1"/>
        <pt x="471" y="718" on="0"/>
        <pt x="397" y="649" on="0"/>
        <pt x="348" y="649" on="1"/>
        <pt x="299" y="649" on="0"/>
        <pt x="225" y="718" on="0"/>
        <pt x="225" y="764" on="1"/>
        <pt x="225" y="813" on="0"/>
        <pt x="298" y="883" on="0"/>
        <pt x="348" y="883" on="1"/>
        <pt x="397" y="883" on="0"/>
        <pt x="471" y="813" on="0"/>
      </contour>
      <contour>
        <pt x="304" y="764" on="1"/>
        <pt x="304" y="746" on="0"/>
        <pt x="330" y="721" on="0"/>
        <pt x="348" y="721" on="1"/>
        <pt x="366" y="721" on="0"/>
        <pt x="393" y="746" on="0"/>
        <pt x="393" y="764" on="1"/>
        <pt x="393" y="783" on="0"/>
        <pt x="366" y="808" on="0"/>
        <pt x="348" y="808" on="1"/>
        <pt x="329" y="808" on="0"/>
        <pt x="304" y="783" on="0"/>
      </contour>
    </TTGlyph>
    <TTGlyph name="Aringacute" xMin="10" yMin="0" xMax="687" yMax="1123">
      <contour>
        <pt x="334" y="573" on="1"/>
        <pt x="360" y="574" on="1"/>
        <pt x="348" y="531" on="0"/>
        <pt x="313" y="422" on="0"/>
        <pt x="297" y="381" on="1"/>
        <pt x="153" y="0" on="1"/>
        <pt x="10" y="0" on="1"/>
        <pt x="284" y="700" on="1"/>
        <pt x="414" y="700" on="1"/>
        <pt x="687" y="0" on="1"/>
        <pt x="539" y="0" on="1"/>
        <pt x="395" y="383" on="1"/>
        <pt x="380" y="424" on="0"/>
        <pt x="346" y="530" on="0"/>
      </contour>
      <contour>
        <pt x="351" y="151" on="1"/>
        <pt x="137" y="151" on="1"/>
        <pt x="184" y="269" on="1"/>
        <pt x="351" y="269" on="1"/>
      </contour>
      <contour>
        <pt x="554" y="151" on="1"/>
        <pt x="351" y="151" on="1"/>
        <pt x="351" y="269" on="1"/>
        <pt x="505" y="269" on="1"/>
      </contour>
      <contour>
        <pt x="471" y="764" on="1"/>
        <pt x="471" y="718" on="0"/>
        <pt x="397" y="649" on="0"/>
        <pt x="348" y="649" on="1"/>
        <pt x="299" y="649" on="0"/>
        <pt x="225" y="718" on="0"/>
        <pt x="225" y="764" on="1"/>
        <pt x="225" y="813" on="0"/>
        <pt x="298" y="883" on="0"/>
        <pt x="348" y="883" on="1"/>
        <pt x="397" y="883" on="0"/>
        <pt x="471" y="813" on="0"/>
      </contour>
      <contour>
        <pt x="304" y="764" on="1"/>
        <pt x="304" y="746" on="0"/>
        <pt x="330" y="721" on="0"/>
        <pt x="348" y="721" on="1"/>
        <pt x="366" y="721" on="0"/>
        <pt x="393" y="746" on="0"/>
        <pt x="393" y="764" on="1"/>
        <pt x="393" y="783" on="0"/>
        <pt x="366" y="808" on="0"/>
        <pt x="348" y="808" on="1"/>
        <pt x="329" y="808" on="0"/>
        <pt x="304" y="783" on="0"/>
      </contour>
      <contour>
        <pt x="504" y="1027" on="1"/>
        <pt x="312" y="924" on="1"/>
        <pt x="270" y="989" on="1"/>
        <pt x="433" y="1123" on="1"/>
      </contour>
    </TTGlyph>
    <TTGlyph name="Atilde" xMin="10" yMin="0" xMax="687" yMax="931">
      <contour>
        <pt x="334" y="573" on="1"/>
        <pt x="360" y="574" on="1"/>
        <pt x="348" y="531" on="0"/>
        <pt x="313" y="422" on="0"/>
        <pt x="297" y="381" on="1"/>
        <pt x="153" y="0" on="1"/>
        <pt x="10" y="0" on="1"/>
        <pt x="284" y="700" on="1"/>
        <pt x="414" y="700" on="1"/>
        <pt x="687" y="0" on="1"/>
        <pt x="539" y="0" on="1"/>
        <pt x="395" y="383" on="1"/>
        <pt x="380" y="424" on="0"/>
        <pt x="346" y="530" on="0"/>
      </contour>
      <contour>
        <pt x="351" y="151" on="1"/>
        <pt x="137" y="151" on="1"/>
        <pt x="184" y="269" on="1"/>
        <pt x="351" y="269" on="1"/>
      </contour>
      <contour>
        <pt x="554" y="151" on="1"/>
        <pt x="351" y="151" on="1"/>
        <pt x="351" y="269" on="1"/>
        <pt x="505" y="269" on="1"/>
      </contour>
      <contour>
        <pt x="260" y="801" on="1"/>
        <pt x="169" y="801" on="1"/>
        <pt x="169" y="861" on="0"/>
        <pt x="232" y="931" on="0"/>
        <pt x="285" y="931" on="1"/>
        <pt x="300" y="931" on="0"/>
        <pt x="334" y="922" on="0"/>
        <pt x="366" y="908" on="1"/>
        <pt x="390" y="897" on="0"/>
        <pt x="410" y="891" on="0"/>
        <pt x="418" y="891" on="1"/>
        <pt x="431" y="891" on="0"/>
        <pt x="444" y="913" on="0"/>
        <pt x="443" y="931" on="1"/>
        <pt x="532" y="931" on="1"/>
        <pt x="532" y="875" on="0"/>
        <pt x="476" y="800" on="0"/>
        <pt x="430" y="800" on="1"/>
        <pt x="413" y="800" on="0"/>
        <pt x="374" y="810" on="0"/>
        <pt x="337" y="824" on="1"/>
        <pt x="314" y="833" on="0"/>
        <pt x="293" y="840" on="0"/>
        <pt x="286" y="840" on="1"/>
        <pt x="274" y="840" on="0"/>
        <pt x="260" y="819" on="0"/>
      </contour>
    </TTGlyph>
    <TTGlyph name="B" xMin="92" yMin="0" xMax="647" yMax="700">
      <contour>
        <pt x="92" y="700" on="1"/>
        <pt x="394" y="700" on="1"/>
        <pt x="499" y="700" on="0"/>
        <pt x="610" y="609" on="0"/>
        <pt x="610" y="526" on="1"/>
        <pt x="610" y="452" on="0"/>
        <pt x="514" y="364" on="0"/>
        <pt x="428" y="363" on="1"/>
        <pt x="429" y="399" on="1"/>
        <pt x="523" y="398" on="0"/>
        <pt x="647" y="296" on="0"/>
        <pt x="647" y="209" on="1"/>
        <pt x="647" y="106" on="0"/>
        <pt x="514" y="0" on="0"/>
        <pt x="404" y="0" on="1"/>
        <pt x="92" y="0" on="1"/>
      </contour>
      <contour>
        <pt x="469" y="495" on="1"/>
        <pt x="469" y="532" on="0"/>
        <pt x="418" y="574" on="0"/>
        <pt x="369" y="574" on="1"/>
        <pt x="213" y="574" on="1"/>
        <pt x="231" y="601" on="1"/>
        <pt x="231" y="399" on="1"/>
        <pt x="214" y="415" on="1"/>
        <pt x="378" y="415" on="1"/>
        <pt x="419" y="416" on="0"/>
        <pt x="469" y="459" on="0"/>
      </contour>
      <contour>
        <pt x="504" y="215" on="1"/>
        <pt x="504" y="255" on="0"/>
        <pt x="444" y="298" on="0"/>
        <pt x="393" y="298" on="1"/>
        <pt x="218" y="298" on="1"/>
        <pt x="231" y="321" on="1"/>
        <pt x="231" y="104" on="1"/>
        <pt x="217" y="126" on="1"/>
        <pt x="398" y="126" on="1"/>
        <pt x="448" y="126" on="0"/>
        <pt x="504" y="172" on="0"/>
      </contour>
    </TTGlyph>
    <TTGlyph name="C" xMin="45" yMin="-10" xMax="660" yMax="711">
      <contour>
        <pt x="581" y="199" on="1"/>
        <pt x="651" y="86" on="1"/>
        <pt x="615" y="45" on="0"/>
        <pt x="472" y="-10" on="0"/>
        <pt x="396" y="-10" on="1"/>
        <pt x="242" y="-10" on="0"/>
        <pt x="45" y="192" on="0"/>
        <pt x="45" y="352" on="1"/>
        <pt x="45" y="505" on="0"/>
        <pt x="251" y="711" on="0"/>
        <pt x="404" y="711" on="1"/>
        <pt x="479" y="711" on="0"/>
        <pt x="618" y="648" on="0"/>
        <pt x="660" y="595" on="1"/>
        <pt x="569" y="494" on="1"/>
        <pt x="533" y="532" on="0"/>
        <pt x="451" y="574" on="0"/>
        <pt x="403" y="574" on="1"/>
        <pt x="315" y="574" on="0"/>
        <pt x="193" y="450" on="0"/>
        <pt x="193" y="351" on="1"/>
        <pt x="193" y="249" on="0"/>
        <pt x="315" y="127" on="0"/>
        <pt x="415" y="127" on="1"/>
        <pt x="464" y="127" on="0"/>
        <pt x="550" y="167" on="0"/>
      </contour>
    </TTGlyph>
    <TTGlyph name="Cacute" xMin="45" yMin="-10" xMax="660" yMax="956">
      <contour>
        <pt x="581" y="199" on="1"/>
        <pt x="651" y="86" on="1"/>
        <pt x="615" y="45" on="0"/>
        <pt x="472" y="-10" on="0"/>
        <pt x="396" y="-10" on="1"/>
        <pt x="242" y="-10" on="0"/>
        <pt x="45" y="192" on="0"/>
        <pt x="45" y="352" on="1"/>
        <pt x="45" y="505" on="0"/>
        <pt x="251" y="711" on="0"/>
        <pt x="404" y="711" on="1"/>
        <pt x="479" y="711" on="0"/>
        <pt x="618" y="648" on="0"/>
        <pt x="660" y="595" on="1"/>
        <pt x="569" y="494" on="1"/>
        <pt x="533" y="532" on="0"/>
        <pt x="451" y="574" on="0"/>
        <pt x="403" y="574" on="1"/>
        <pt x="315" y="574" on="0"/>
        <pt x="193" y="450" on="0"/>
        <pt x="193" y="351" on="1"/>
        <pt x="193" y="249" on="0"/>
        <pt x="315" y="127" on="0"/>
        <pt x="415" y="127" on="1"/>
        <pt x="464" y="127" on="0"/>
        <pt x="550" y="167" on="0"/>
      </contour>
      <contour>
        <pt x="538" y="860" on="1"/>
        <pt x="346" y="757" on="1"/>
        <pt x="303" y="822" on="1"/>
        <pt x="467" y="956" on="1"/>
      </contour>
    </TTGlyph>
    <TTGlyph name="Ccaron" xMin="45" yMin="-10" xMax="660" yMax="926">
      <contour>
        <pt x="581" y="199" on="1"/>
        <pt x="651" y="86" on="1"/>
        <pt x="615" y="45" on="0"/>
        <pt x="472" y="-10" on="0"/>
        <pt x="396" y="-10" on="1"/>
        <pt x="242" y="-10" on="0"/>
        <pt x="45" y="192" on="0"/>
        <pt x="45" y="352" on="1"/>
        <pt x="45" y="505" on="0"/>
        <pt x="251" y="711" on="0"/>
        <pt x="404" y="711" on="1"/>
        <pt x="479" y="711" on="0"/>
        <pt x="618" y="648" on="0"/>
        <pt x="660" y="595" on="1"/>
        <pt x="569" y="494" on="1"/>
        <pt x="533" y="532" on="0"/>
        <pt x="451" y="574" on="0"/>
        <pt x="403" y="574" on="1"/>
        <pt x="315" y="574" on="0"/>
        <pt x="193" y="450" on="0"/>
        <pt x="193" y="351" on="1"/>
        <pt x="193" y="249" on="0"/>
        <pt x="315" y="127" on="0"/>
        <pt x="415" y="127" on="1"/>
        <pt x="464" y="127" on="0"/>
        <pt x="550" y="167" on="0"/>
      </contour>
      <contour>
        <pt x="505" y="926" on="1"/>
        <pt x="361" y="845" on="1"/>
        <pt x="391" y="845" on="1"/>
        <pt x="248" y="926" on="1"/>
        <pt x="199" y="883" on="1"/>
        <pt x="331" y="761" on="1"/>
        <pt x="422" y="761" on="1"/>
        <pt x="554" y="883" on="1"/>
      </contour>
    </TTGlyph>
    <TTGlyph name="Ccedilla" xMin="45" yMin="-243" xMax="660" yMax="711">
      <contour>
        <pt x="581" y="199" on="1"/>
        <pt x="651" y="86" on="1"/>
        <pt x="615" y="45" on="0"/>
        <pt x="472" y="-10" on="0"/>
        <pt x="396" y="-10" on="1"/>
        <pt x="242" y="-10" on="0"/>
        <pt x="45" y="192" on="0"/>
        <pt x="45" y="352" on="1"/>
        <pt x="45" y="505" on="0"/>
        <pt x="251" y="711" on="0"/>
        <pt x="404" y="711" on="1"/>
        <pt x="479" y="711" on="0"/>
        <pt x="618" y="648" on="0"/>
        <pt x="660" y="595" on="1"/>
        <pt x="569" y="494" on="1"/>
        <pt x="533" y="532" on="0"/>
        <pt x="451" y="574" on="0"/>
        <pt x="403" y="574" on="1"/>
        <pt x="315" y="574" on="0"/>
        <pt x="193" y="450" on="0"/>
        <pt x="193" y="351" on="1"/>
        <pt x="193" y="249" on="0"/>
        <pt x="315" y="127" on="0"/>
        <pt x="415" y="127" on="1"/>
        <pt x="464" y="127" on="0"/>
        <pt x="550" y="167" on="0"/>
      </contour>
      <contour>
        <pt x="363" y="-92" on="1"/>
        <pt x="296" y="-85" on="1"/>
        <pt x="367" y="26" on="1"/>
        <pt x="439" y="26" on="1"/>
      </contour>
      <contour>
        <pt x="496" y="-137" on="1"/>
        <pt x="496" y="-161" on="0"/>
        <pt x="457" y="-209" on="0"/>
        <pt x="424" y="-224" on="1"/>
        <pt x="398" y="-235" on="0"/>
        <pt x="332" y="-244" on="0"/>
        <pt x="296" y="-243" on="1"/>
        <pt x="288" y="-178" on="1"/>
        <pt x="321" y="-178" on="0"/>
        <pt x="391" y="-150" on="0"/>
        <pt x="391" y="-132" on="1"/>
        <pt x="391" y="-118" on="0"/>
        <pt x="346" y="-98" on="0"/>
        <pt x="312" y="-97" on="1"/>
        <pt x="296" y="-87" on="1"/>
        <pt x="296" y="-85" on="1"/>
        <pt x="370" y="-39" on="1"/>
        <pt x="433" y="-44" on="0"/>
        <pt x="496" y="-97" on="0"/>
      </contour>
    </TTGlyph>
    <TTGlyph name="Ccircumflex" xMin="45" yMin="-10" xMax="660" yMax="920">
      <contour>
        <pt x="581" y="199" on="1"/>
        <pt x="651" y="86" on="1"/>
        <pt x="615" y="45" on="0"/>
        <pt x="472" y="-10" on="0"/>
        <pt x="396" y="-10" on="1"/>
        <pt x="242" y="-10" on="0"/>
        <pt x="45" y="192" on="0"/>
        <pt x="45" y="352" on="1"/>
        <pt x="45" y="505" on="0"/>
        <pt x="251" y="711" on="0"/>
        <pt x="404" y="711" on="1"/>
        <pt x="479" y="711" on="0"/>
        <pt x="618" y="648" on="0"/>
        <pt x="660" y="595" on="1"/>
        <pt x="569" y="494" on="1"/>
        <pt x="533" y="532" on="0"/>
        <pt x="451" y="574" on="0"/>
        <pt x="403" y="574" on="1"/>
        <pt x="315" y="574" on="0"/>
        <pt x="193" y="450" on="0"/>
        <pt x="193" y="351" on="1"/>
        <pt x="193" y="249" on="0"/>
        <pt x="315" y="127" on="0"/>
        <pt x="415" y="127" on="1"/>
        <pt x="464" y="127" on="0"/>
        <pt x="550" y="167" on="0"/>
      </contour>
      <contour>
        <pt x="504" y="758" on="1"/>
        <pt x="364" y="836" on="1"/>
        <pt x="394" y="836" on="1"/>
        <pt x="254" y="758" on="1"/>
        <pt x="207" y="804" on="1"/>
        <pt x="338" y="920" on="1"/>
        <pt x="420" y="920" on="1"/>
        <pt x="551" y="804" on="1"/>
      </contour>
    </TTGlyph>
    <TTGlyph name="Cdotaccent" xMin="45" yMin="-10" xMax="660" yMax="913">
      <contour>
        <pt x="581" y="199" on="1"/>
        <pt x="651" y="86" on="1"/>
        <pt x="615" y="45" on="0"/>
        <pt x="472" y="-10" on="0"/>
        <pt x="396" y="-10" on="1"/>
        <pt x="242" y="-10" on="0"/>
        <pt x="45" y="192" on="0"/>
        <pt x="45" y="352" on="1"/>
        <pt x="45" y="505" on="0"/>
        <pt x="251" y="711" on="0"/>
        <pt x="404" y="711" on="1"/>
        <pt x="479" y="711" on="0"/>
        <pt x="618" y="648" on="0"/>
        <pt x="660" y="595" on="1"/>
        <pt x="569" y="494" on="1"/>
        <pt x="533" y="532" on="0"/>
        <pt x="451" y="574" on="0"/>
        <pt x="403" y="574" on="1"/>
        <pt x="315" y="574" on="0"/>
        <pt x="193" y="450" on="0"/>
        <pt x="193" y="351" on="1"/>
        <pt x="193" y="249" on="0"/>
        <pt x="315" y="127" on="0"/>
        <pt x="415" y="127" on="1"/>
        <pt x="464" y="127" on="0"/>
        <pt x="550" y="167" on="0"/>
      </contour>
      <contour>
        <pt x="465" y="838" on="1"/>
        <pt x="465" y="805" on="0"/>
        <pt x="420" y="763" on="0"/>
        <pt x="381" y="763" on="1"/>
        <pt x="341" y="763" on="0"/>
        <pt x="297" y="802" on="0"/>
        <pt x="297" y="838" on="1"/>
        <pt x="297" y="871" on="0"/>
        <pt x="342" y="913" on="0"/>
        <pt x="381" y="913" on="1"/>
        <pt x="421" y="913" on="0"/>
        <pt x="465" y="874" on="0"/>
      </contour>
    </TTGlyph>
    <TTGlyph name="D" xMin="92" yMin="0" xMax="717" yMax="700">
      <contour>
        <pt x="92" y="700" on="1"/>
        <pt x="377" y="700" on="1"/>
        <pt x="530" y="700" on="0"/>
        <pt x="717" y="505" on="0"/>
        <pt x="717" y="350" on="1"/>
        <pt x="717" y="194" on="0"/>
        <pt x="531" y="0" on="0"/>
        <pt x="377" y="0" on="1"/>
        <pt x="92" y="0" on="1"/>
      </contour>
      <contour>
        <pt x="222" y="131" on="1"/>
        <pt x="372" y="131" on="1"/>
        <pt x="465" y="131" on="0"/>
        <pt x="571" y="249" on="0"/>
        <pt x="571" y="350" on="1"/>
        <pt x="571" y="450" on="0"/>
        <pt x="464" y="569" on="0"/>
        <pt x="372" y="569" on="1"/>
        <pt x="219" y="569" on="1"/>
        <pt x="236" y="592" on="1"/>
        <pt x="236" y="106" on="1"/>
      </contour>
    </TTGlyph>
    <TTGlyph name="Dcaron" xMin="92" yMin="0" xMax="717" yMax="926">
      <contour>
        <pt x="92" y="700" on="1"/>
        <pt x="377" y="700" on="1"/>
        <pt x="530" y="700" on="0"/>
        <pt x="717" y="505" on="0"/>
        <pt x="717" y="350" on="1"/>
        <pt x="717" y="194" on="0"/>
        <pt x="531" y="0" on="0"/>
        <pt x="377" y="0" on="1"/>
        <pt x="92" y="0" on="1"/>
      </contour>
      <contour>
        <pt x="222" y="131" on="1"/>
        <pt x="372" y="131" on="1"/>
        <pt x="465" y="131" on="0"/>
        <pt x="571" y="249" on="0"/>
        <pt x="571" y="350" on="1"/>
        <pt x="571" y="450" on="0"/>
        <pt x="464" y="569" on="0"/>
        <pt x="372" y="569" on="1"/>
        <pt x="219" y="569" on="1"/>
        <pt x="236" y="592" on="1"/>
        <pt x="236" y="106" on="1"/>
      </contour>
      <contour>
        <pt x="463" y="926" on="1"/>
        <pt x="319" y="845" on="1"/>
        <pt x="349" y="845" on="1"/>
        <pt x="206" y="926" on="1"/>
        <pt x="157" y="883" on="1"/>
        <pt x="289" y="761" on="1"/>
        <pt x="380" y="761" on="1"/>
        <pt x="512" y="883" on="1"/>
      </contour>
    </TTGlyph>
    <TTGlyph name="Dcroat" xMin="16" yMin="0" xMax="717" yMax="700">
      <contour>
        <pt x="92" y="700" on="1"/>
        <pt x="377" y="700" on="1"/>
        <pt x="530" y="700" on="0"/>
        <pt x="717" y="505" on="0"/>
        <pt x="717" y="350" on="1"/>
        <pt x="717" y="194" on="0"/>
        <pt x="531" y="0" on="0"/>
        <pt x="377" y="0" on="1"/>
        <pt x="92" y="0" on="1"/>
      </contour>
      <contour>
        <pt x="222" y="131" on="1"/>
        <pt x="372" y="131" on="1"/>
        <pt x="465" y="131" on="0"/>
        <pt x="571" y="249" on="0"/>
        <pt x="571" y="350" on="1"/>
        <pt x="571" y="450" on="0"/>
        <pt x="464" y="569" on="0"/>
        <pt x="372" y="569" on="1"/>
        <pt x="219" y="569" on="1"/>
        <pt x="236" y="592" on="1"/>
        <pt x="236" y="106" on="1"/>
      </contour>
      <contour>
        <pt x="318" y="297" on="1"/>
        <pt x="16" y="297" on="1"/>
        <pt x="16" y="404" on="1"/>
        <pt x="318" y="404" on="1"/>
      </contour>
    </TTGlyph>
    <TTGlyph name="E" xMin="92" yMin="0" xMax="566" yMax="700">
      <contour>
        <pt x="233" y="0" on="1"/>
        <pt x="92" y="0" on="1"/>
        <pt x="92" y="700" on="1"/>
        <pt x="233" y="700" on="1"/>
      </contour>
      <contour>
        <pt x="566" y="0" on="1"/>
        <pt x="159" y="0" on="1"/>
        <pt x="159" y="128" on="1"/>
        <pt x="566" y="128" on="1"/>
      </contour>
      <contour>
        <pt x="511" y="295" on="1"/>
        <pt x="159" y="295" on="1"/>
        <pt x="159" y="419" on="1"/>
        <pt x="511" y="419" on="1"/>
      </contour>
      <contour>
        <pt x="560" y="572" on="1"/>
        <pt x="159" y="572" on="1"/>
        <pt x="159" y="700" on="1"/>
        <pt x="560" y="700" on="1"/>
      </contour>
    </TTGlyph>
    <TTGlyph name="Eacute" xMin="92" yMin="0" xMax="566" yMax="956">
      <contour>
        <pt x="233" y="0" on="1"/>
        <pt x="92" y="0" on="1"/>
        <pt x="92" y="700" on="1"/>
        <pt x="233" y="700" on="1"/>
      </contour>
      <contour>
        <pt x="566" y="0" on="1"/>
        <pt x="159" y="0" on="1"/>
        <pt x="159" y="128" on="1"/>
        <pt x="566" y="128" on="1"/>
      </contour>
      <contour>
        <pt x="511" y="295" on="1"/>
        <pt x="159" y="295" on="1"/>
        <pt x="159" y="419" on="1"/>
        <pt x="511" y="419" on="1"/>
      </contour>
      <contour>
        <pt x="560" y="572" on="1"/>
        <pt x="159" y="572" on="1"/>
        <pt x="159" y="700" on="1"/>
        <pt x="560" y="700" on="1"/>
      </contour>
      <contour>
        <pt x="483" y="860" on="1"/>
        <pt x="291" y="757" on="1"/>
        <pt x="248" y="822" on="1"/>
        <pt x="412" y="956" on="1"/>
      </contour>
    </TTGlyph>
    <TTGlyph name="Ebreve" xMin="92" yMin="0" xMax="566" yMax="927">
      <contour>
        <pt x="233" y="0" on="1"/>
        <pt x="92" y="0" on="1"/>
        <pt x="92" y="700" on="1"/>
        <pt x="233" y="700" on="1"/>
      </contour>
      <contour>
        <pt x="566" y="0" on="1"/>
        <pt x="159" y="0" on="1"/>
        <pt x="159" y="128" on="1"/>
        <pt x="566" y="128" on="1"/>
      </contour>
      <contour>
        <pt x="511" y="295" on="1"/>
        <pt x="159" y="295" on="1"/>
        <pt x="159" y="419" on="1"/>
        <pt x="511" y="419" on="1"/>
      </contour>
      <contour>
        <pt x="560" y="572" on="1"/>
        <pt x="159" y="572" on="1"/>
        <pt x="159" y="700" on="1"/>
        <pt x="560" y="700" on="1"/>
      </contour>
      <contour>
        <pt x="326" y="757" on="1"/>
        <pt x="261" y="757" on="0"/>
        <pt x="168" y="842" on="0"/>
        <pt x="154" y="915" on="1"/>
        <pt x="244" y="927" on="1"/>
        <pt x="256" y="892" on="0"/>
        <pt x="301" y="852" on="0"/>
        <pt x="326" y="852" on="1"/>
        <pt x="351" y="852" on="0"/>
        <pt x="395" y="892" on="0"/>
        <pt x="407" y="927" on="1"/>
        <pt x="498" y="915" on="1"/>
        <pt x="483" y="842" on="0"/>
        <pt x="391" y="757" on="0"/>
      </contour>
    </TTGlyph>
    <TTGlyph name="Ecaron" xMin="92" yMin="0" xMax="566" yMax="926">
      <contour>
        <pt x="233" y="0" on="1"/>
        <pt x="92" y="0" on="1"/>
        <pt x="92" y="700" on="1"/>
        <pt x="233" y="700" on="1"/>
      </contour>
      <contour>
        <pt x="566" y="0" on="1"/>
        <pt x="159" y="0" on="1"/>
        <pt x="159" y="128" on="1"/>
        <pt x="566" y="128" on="1"/>
      </contour>
      <contour>
        <pt x="511" y="295" on="1"/>
        <pt x="159" y="295" on="1"/>
        <pt x="159" y="419" on="1"/>
        <pt x="511" y="419" on="1"/>
      </contour>
      <contour>
        <pt x="560" y="572" on="1"/>
        <pt x="159" y="572" on="1"/>
        <pt x="159" y="700" on="1"/>
        <pt x="560" y="700" on="1"/>
      </contour>
      <contour>
        <pt x="453" y="926" on="1"/>
        <pt x="310" y="845" on="1"/>
        <pt x="340" y="845" on="1"/>
        <pt x="197" y="926" on="1"/>
        <pt x="147" y="883" on="1"/>
        <pt x="279" y="761" on="1"/>
        <pt x="371" y="761" on="1"/>
        <pt x="503" y="883" on="1"/>
      </contour>
    </TTGlyph>
    <TTGlyph name="Ecircumflex" xMin="92" yMin="0" xMax="566" yMax="920">
      <contour>
        <pt x="233" y="0" on="1"/>
        <pt x="92" y="0" on="1"/>
        <pt x="92" y="700" on="1"/>
        <pt x="233" y="700" on="1"/>
      </contour>
      <contour>
        <pt x="566" y="0" on="1"/>
        <pt x="159" y="0" on="1"/>
        <pt x="159" y="128" on="1"/>
        <pt x="566" y="128" on="1"/>
      </contour>
      <contour>
        <pt x="511" y="295" on="1"/>
        <pt x="159" y="295" on="1"/>
        <pt x="159" y="419" on="1"/>
        <pt x="511" y="419" on="1"/>
      </contour>
      <contour>
        <pt x="560" y="572" on="1"/>
        <pt x="159" y="572" on="1"/>
        <pt x="159" y="700" on="1"/>
        <pt x="560" y="700" on="1"/>
      </contour>
      <contour>
        <pt x="453" y="758" on="1"/>
        <pt x="313" y="836" on="1"/>
        <pt x="342" y="836" on="1"/>
        <pt x="203" y="758" on="1"/>
        <pt x="155" y="804" on="1"/>
        <pt x="286" y="920" on="1"/>
        <pt x="369" y="920" on="1"/>
        <pt x="500" y="804" on="1"/>
      </contour>
    </TTGlyph>
    <TTGlyph name="Edieresis" xMin="92" yMin="0" xMax="566" yMax="909">
      <contour>
        <pt x="233" y="0" on="1"/>
        <pt x="92" y="0" on="1"/>
        <pt x="92" y="700" on="1"/>
        <pt x="233" y="700" on="1"/>
      </contour>
      <contour>
        <pt x="566" y="0" on="1"/>
        <pt x="159" y="0" on="1"/>
        <pt x="159" y="128" on="1"/>
        <pt x="566" y="128" on="1"/>
      </contour>
      <contour>
        <pt x="511" y="295" on="1"/>
        <pt x="159" y="295" on="1"/>
        <pt x="159" y="419" on="1"/>
        <pt x="511" y="419" on="1"/>
      </contour>
      <contour>
        <pt x="560" y="572" on="1"/>
        <pt x="159" y="572" on="1"/>
        <pt x="159" y="700" on="1"/>
        <pt x="560" y="700" on="1"/>
      </contour>
      <contour>
        <pt x="294" y="833" on="1"/>
        <pt x="294" y="799" on="0"/>
        <pt x="252" y="756" on="0"/>
        <pt x="215" y="756" on="1"/>
        <pt x="177" y="756" on="0"/>
        <pt x="136" y="796" on="0"/>
        <pt x="136" y="833" on="1"/>
        <pt x="136" y="867" on="0"/>
        <pt x="178" y="909" on="0"/>
        <pt x="215" y="909" on="1"/>
        <pt x="253" y="909" on="0"/>
        <pt x="294" y="870" on="0"/>
      </contour>
      <contour>
        <pt x="522" y="833" on="1"/>
        <pt x="522" y="799" on="0"/>
        <pt x="480" y="756" on="0"/>
        <pt x="443" y="756" on="1"/>
        <pt x="405" y="756" on="0"/>
        <pt x="364" y="796" on="0"/>
        <pt x="364" y="833" on="1"/>
        <pt x="364" y="867" on="0"/>
        <pt x="406" y="909" on="0"/>
        <pt x="443" y="909" on="1"/>
        <pt x="481" y="909" on="0"/>
        <pt x="522" y="870" on="0"/>
      </contour>
    </TTGlyph>
    <TTGlyph name="Edotaccent" xMin="92" yMin="0" xMax="566" yMax="913">
      <contour>
        <pt x="233" y="0" on="1"/>
        <pt x="92" y="0" on="1"/>
        <pt x="92" y="700" on="1"/>
        <pt x="233" y="700" on="1"/>
      </contour>
      <contour>
        <pt x="566" y="0" on="1"/>
        <pt x="159" y="0" on="1"/>
        <pt x="159" y="128" on="1"/>
        <pt x="566" y="128" on="1"/>
      </contour>
      <contour>
        <pt x="511" y="295" on="1"/>
        <pt x="159" y="295" on="1"/>
        <pt x="159" y="419" on="1"/>
        <pt x="511" y="419" on="1"/>
      </contour>
      <contour>
        <pt x="560" y="572" on="1"/>
        <pt x="159" y="572" on="1"/>
        <pt x="159" y="700" on="1"/>
        <pt x="560" y="700" on="1"/>
      </contour>
      <contour>
        <pt x="413" y="838" on="1"/>
        <pt x="413" y="805" on="0"/>
        <pt x="367" y="763" on="0"/>
        <pt x="328" y="763" on="1"/>
        <pt x="288" y="763" on="0"/>
        <pt x="244" y="802" on="0"/>
        <pt x="244" y="838" on="1"/>
        <pt x="244" y="871" on="0"/>
        <pt x="289" y="913" on="0"/>
        <pt x="328" y="913" on="1"/>
        <pt x="368" y="913" on="0"/>
        <pt x="413" y="874" on="0"/>
      </contour>
    </TTGlyph>
    <TTGlyph name="Egrave" xMin="92" yMin="0" xMax="566" yMax="959">
      <contour>
        <pt x="233" y="0" on="1"/>
        <pt x="92" y="0" on="1"/>
        <pt x="92" y="700" on="1"/>
        <pt x="233" y="700" on="1"/>
      </contour>
      <contour>
        <pt x="566" y="0" on="1"/>
        <pt x="159" y="0" on="1"/>
        <pt x="159" y="128" on="1"/>
        <pt x="566" y="128" on="1"/>
      </contour>
      <contour>
        <pt x="511" y="295" on="1"/>
        <pt x="159" y="295" on="1"/>
        <pt x="159" y="419" on="1"/>
        <pt x="511" y="419" on="1"/>
      </contour>
      <contour>
        <pt x="560" y="572" on="1"/>
        <pt x="159" y="572" on="1"/>
        <pt x="159" y="700" on="1"/>
        <pt x="560" y="700" on="1"/>
      </contour>
      <contour>
        <pt x="413" y="824" on="1"/>
        <pt x="371" y="759" on="1"/>
        <pt x="179" y="863" on="1"/>
        <pt x="250" y="959" on="1"/>
      </contour>
    </TTGlyph>
    <TTGlyph name="Emacron" xMin="92" yMin="0" xMax="566" yMax="864">
      <contour>
        <pt x="233" y="0" on="1"/>
        <pt x="92" y="0" on="1"/>
        <pt x="92" y="700" on="1"/>
        <pt x="233" y="700" on="1"/>
      </contour>
      <contour>
        <pt x="566" y="0" on="1"/>
        <pt x="159" y="0" on="1"/>
        <pt x="159" y="128" on="1"/>
        <pt x="566" y="128" on="1"/>
      </contour>
      <contour>
        <pt x="511" y="295" on="1"/>
        <pt x="159" y="295" on="1"/>
        <pt x="159" y="419" on="1"/>
        <pt x="511" y="419" on="1"/>
      </contour>
      <contour>
        <pt x="560" y="572" on="1"/>
        <pt x="159" y="572" on="1"/>
        <pt x="159" y="700" on="1"/>
        <pt x="560" y="700" on="1"/>
      </contour>
      <contour>
        <pt x="500" y="774" on="1"/>
        <pt x="153" y="774" on="1"/>
        <pt x="153" y="864" on="1"/>
        <pt x="500" y="864" on="1"/>
      </contour>
    </TTGlyph>
    <TTGlyph name="Eng" xMin="89" yMin="-200" xMax="706" yMax="700">
      <contour>
        <pt x="567" y="67" on="1"/>
        <pt x="576" y="-1" on="1"/>
        <pt x="201" y="496" on="1"/>
        <pt x="213" y="507" on="1"/>
        <pt x="216" y="478" on="0"/>
        <pt x="223" y="399" on="0"/>
        <pt x="225" y="375" on="1"/>
        <pt x="228" y="342" on="0"/>
        <pt x="230" y="285" on="0"/>
        <pt x="230" y="258" on="1"/>
        <pt x="230" y="0" on="1"/>
        <pt x="89" y="0" on="1"/>
        <pt x="89" y="700" on="1"/>
        <pt x="218" y="700" on="1"/>
        <pt x="599" y="186" on="1"/>
        <pt x="583" y="178" on="1"/>
        <pt x="573" y="251" on="0"/>
        <pt x="564" y="402" on="0"/>
        <pt x="564" y="503" on="1"/>
        <pt x="564" y="700" on="1"/>
        <pt x="706" y="700" on="1"/>
        <pt x="706" y="61" on="1"/>
        <pt x="706" y="-16" on="1"/>
        <pt x="706" y="-106" on="0"/>
        <pt x="593" y="-200" on="0"/>
        <pt x="497" y="-200" on="1"/>
        <pt x="442" y="-95" on="1"/>
        <pt x="495" y="-95" on="0"/>
        <pt x="567" y="-47" on="0"/>
        <pt x="567" y="1" on="1"/>
      </contour>
    </TTGlyph>
    <TTGlyph name="Eogonek" xMin="92" yMin="-207" xMax="589" yMax="700">
      <contour>
        <pt x="233" y="0" on="1"/>
        <pt x="92" y="0" on="1"/>
        <pt x="92" y="700" on="1"/>
        <pt x="233" y="700" on="1"/>
      </contour>
      <contour>
        <pt x="566" y="0" on="1"/>
        <pt x="159" y="0" on="1"/>
        <pt x="159" y="128" on="1"/>
        <pt x="566" y="128" on="1"/>
      </contour>
      <contour>
        <pt x="511" y="295" on="1"/>
        <pt x="159" y="295" on="1"/>
        <pt x="159" y="419" on="1"/>
        <pt x="511" y="419" on="1"/>
      </contour>
      <contour>
        <pt x="560" y="572" on="1"/>
        <pt x="159" y="572" on="1"/>
        <pt x="159" y="700" on="1"/>
        <pt x="560" y="700" on="1"/>
      </contour>
      <contour>
        <pt x="473" y="-207" on="1"/>
        <pt x="426" y="-207" on="0"/>
        <pt x="357" y="-144" on="0"/>
        <pt x="357" y="-99" on="1"/>
        <pt x="357" y="-48" on="0"/>
        <pt x="444" y="30" on="0"/>
        <pt x="519" y="50" on="1"/>
        <pt x="552" y="44" on="1"/>
        <pt x="563" y="0" on="1"/>
        <pt x="521" y="-10" on="0"/>
        <pt x="460" y="-57" on="0"/>
        <pt x="460" y="-83" on="1"/>
        <pt x="460" y="-97" on="0"/>
        <pt x="477" y="-114" on="0"/>
        <pt x="490" y="-114" on="1"/>
        <pt x="501" y="-114" on="0"/>
        <pt x="517" y="-102" on="0"/>
        <pt x="525" y="-90" on="1"/>
        <pt x="589" y="-136" on="1"/>
        <pt x="576" y="-163" on="0"/>
        <pt x="511" y="-207" on="0"/>
      </contour>
    </TTGlyph>
    <TTGlyph name="Eth" xMin="16" yMin="0" xMax="717" yMax="700">
      <contour>
        <pt x="92" y="700" on="1"/>
        <pt x="377" y="700" on="1"/>
        <pt x="530" y="700" on="0"/>
        <pt x="717" y="505" on="0"/>
        <pt x="717" y="350" on="1"/>
        <pt x="717" y="194" on="0"/>
        <pt x="531" y="0" on="0"/>
        <pt x="377" y="0" on="1"/>
        <pt x="92" y="0" on="1"/>
      </contour>
      <contour>
        <pt x="222" y="131" on="1"/>
        <pt x="372" y="131" on="1"/>
        <pt x="465" y="131" on="0"/>
        <pt x="571" y="249" on="0"/>
        <pt x="571" y="350" on="1"/>
        <pt x="571" y="450" on="0"/>
        <pt x="464" y="569" on="0"/>
        <pt x="372" y="569" on="1"/>
        <pt x="219" y="569" on="1"/>
        <pt x="236" y="592" on="1"/>
        <pt x="236" y="106" on="1"/>
      </contour>
      <contour>
        <pt x="318" y="297" on="1"/>
        <pt x="16" y="297" on="1"/>
        <pt x="16" y="404" on="1"/>
        <pt x="318" y="404" on="1"/>
      </contour>
    </TTGlyph>
    <TTGlyph name="Euro" xMin="17" yMin="-10" xMax="621" yMax="711">
      <contour>
        <pt x="450" y="237" on="1"/>
        <pt x="17" y="238" on="1"/>
        <pt x="17" y="320" on="1"/>
        <pt x="450" y="319" on="1"/>
      </contour>
      <contour>
        <pt x="450" y="372" on="1"/>
        <pt x="17" y="373" on="1"/>
        <pt x="17" y="455" on="1"/>
        <pt x="450" y="454" on="1"/>
      </contour>
      <contour>
        <pt x="445" y="-10" on="1"/>
        <pt x="291" y="-10" on="0"/>
        <pt x="92" y="191" on="0"/>
        <pt x="92" y="352" on="1"/>
        <pt x="92" y="507" on="0"/>
        <pt x="292" y="711" on="0"/>
        <pt x="445" y="711" on="1"/>
        <pt x="493" y="711" on="0"/>
        <pt x="582" y="687" on="0"/>
        <pt x="621" y="660" on="1"/>
        <pt x="554" y="548" on="1"/>
        <pt x="526" y="568" on="0"/>
        <pt x="469" y="583" on="0"/>
        <pt x="439" y="583" on="1"/>
        <pt x="347" y="583" on="0"/>
        <pt x="230" y="453" on="0"/>
        <pt x="230" y="352" on="1"/>
        <pt x="230" y="246" on="0"/>
        <pt x="346" y="117" on="0"/>
        <pt x="439" y="117" on="1"/>
        <pt x="471" y="117" on="0"/>
        <pt x="526" y="134" on="0"/>
        <pt x="554" y="153" on="1"/>
        <pt x="620" y="39" on="1"/>
        <pt x="579" y="14" on="0"/>
        <pt x="491" y="-10" on="0"/>
      </contour>
    </TTGlyph>
    <TTGlyph name="F" xMin="92" yMin="0" xMax="562" yMax="700">
      <contour>
        <pt x="92" y="0" on="1"/>
        <pt x="92" y="700" on="1"/>
        <pt x="236" y="700" on="1"/>
        <pt x="236" y="0" on="1"/>
      </contour>
      <contour>
        <pt x="520" y="281" on="1"/>
        <pt x="158" y="281" on="1"/>
        <pt x="158" y="407" on="1"/>
        <pt x="520" y="407" on="1"/>
      </contour>
      <contour>
        <pt x="562" y="569" on="1"/>
        <pt x="158" y="569" on="1"/>
        <pt x="158" y="700" on="1"/>
        <pt x="562" y="700" on="1"/>
      </contour>
    </TTGlyph>
    <TTGlyph name="G" xMin="45" yMin="-10" xMax="733" yMax="711">
      <contour>
        <pt x="45" y="352" on="1"/>
        <pt x="45" y="505" on="0"/>
        <pt x="256" y="711" on="0"/>
        <pt x="417" y="711" on="1"/>
        <pt x="500" y="711" on="0"/>
        <pt x="644" y="645" on="0"/>
        <pt x="685" y="594" on="1"/>
        <pt x="596" y="500" on="1"/>
        <pt x="556" y="538" on="0"/>
        <pt x="467" y="579" on="0"/>
        <pt x="416" y="579" on="1"/>
        <pt x="321" y="579" on="0"/>
        <pt x="193" y="449" on="0"/>
        <pt x="193" y="352" on="1"/>
        <pt x="193" y="255" on="0"/>
        <pt x="326" y="121" on="0"/>
        <pt x="421" y="121" on="1"/>
        <pt x="491" y="121" on="0"/>
        <pt x="589" y="201" on="0"/>
        <pt x="589" y="259" on="1"/>
        <pt x="589" y="282" on="1"/>
        <pt x="609" y="257" on="1"/>
        <pt x="407" y="257" on="1"/>
        <pt x="407" y="379" on="1"/>
        <pt x="728" y="379" on="1"/>
        <pt x="731" y="362" on="0"/>
        <pt x="733" y="313" on="0"/>
        <pt x="733" y="299" on="1"/>
        <pt x="733" y="162" on="0"/>
        <pt x="549" y="-10" on="0"/>
        <pt x="412" y="-10" on="1"/>
        <pt x="250" y="-10" on="0"/>
        <pt x="45" y="197" on="0"/>
      </contour>
    </TTGlyph>
    <TTGlyph name="Gbreve" xMin="45" yMin="-10" xMax="733" yMax="927">
      <contour>
        <pt x="45" y="352" on="1"/>
        <pt x="45" y="505" on="0"/>
        <pt x="256" y="711" on="0"/>
        <pt x="417" y="711" on="1"/>
        <pt x="500" y="711" on="0"/>
        <pt x="644" y="645" on="0"/>
        <pt x="685" y="594" on="1"/>
        <pt x="596" y="500" on="1"/>
        <pt x="556" y="538" on="0"/>
        <pt x="467" y="579" on="0"/>
        <pt x="416" y="579" on="1"/>
        <pt x="321" y="579" on="0"/>
        <pt x="193" y="449" on="0"/>
        <pt x="193" y="352" on="1"/>
        <pt x="193" y="255" on="0"/>
        <pt x="326" y="121" on="0"/>
        <pt x="421" y="121" on="1"/>
        <pt x="491" y="121" on="0"/>
        <pt x="589" y="201" on="0"/>
        <pt x="589" y="259" on="1"/>
        <pt x="589" y="282" on="1"/>
        <pt x="609" y="257" on="1"/>
        <pt x="407" y="257" on="1"/>
        <pt x="407" y="379" on="1"/>
        <pt x="728" y="379" on="1"/>
        <pt x="731" y="362" on="0"/>
        <pt x="733" y="313" on="0"/>
        <pt x="733" y="299" on="1"/>
        <pt x="733" y="162" on="0"/>
        <pt x="549" y="-10" on="0"/>
        <pt x="412" y="-10" on="1"/>
        <pt x="250" y="-10" on="0"/>
        <pt x="45" y="197" on="0"/>
      </contour>
      <contour>
        <pt x="404" y="757" on="1"/>
        <pt x="339" y="757" on="0"/>
        <pt x="246" y="842" on="0"/>
        <pt x="232" y="915" on="1"/>
        <pt x="323" y="927" on="1"/>
        <pt x="334" y="892" on="0"/>
        <pt x="379" y="852" on="0"/>
        <pt x="404" y="852" on="1"/>
        <pt x="429" y="852" on="0"/>
        <pt x="474" y="892" on="0"/>
        <pt x="485" y="927" on="1"/>
        <pt x="576" y="915" on="1"/>
        <pt x="562" y="842" on="0"/>
        <pt x="469" y="757" on="0"/>
      </contour>
    </TTGlyph>
    <TTGlyph name="Gcaron" xMin="45" yMin="-10" xMax="733" yMax="926">
      <contour>
        <pt x="45" y="352" on="1"/>
        <pt x="45" y="505" on="0"/>
        <pt x="256" y="711" on="0"/>
        <pt x="417" y="711" on="1"/>
        <pt x="500" y="711" on="0"/>
        <pt x="644" y="645" on="0"/>
        <pt x="685" y="594" on="1"/>
        <pt x="596" y="500" on="1"/>
        <pt x="556" y="538" on="0"/>
        <pt x="467" y="579" on="0"/>
        <pt x="416" y="579" on="1"/>
        <pt x="321" y="579" on="0"/>
        <pt x="193" y="449" on="0"/>
        <pt x="193" y="352" on="1"/>
        <pt x="193" y="255" on="0"/>
        <pt x="326" y="121" on="0"/>
        <pt x="421" y="121" on="1"/>
        <pt x="491" y="121" on="0"/>
        <pt x="589" y="201" on="0"/>
        <pt x="589" y="259" on="1"/>
        <pt x="589" y="282" on="1"/>
        <pt x="609" y="257" on="1"/>
        <pt x="407" y="257" on="1"/>
        <pt x="407" y="379" on="1"/>
        <pt x="728" y="379" on="1"/>
        <pt x="731" y="362" on="0"/>
        <pt x="733" y="313" on="0"/>
        <pt x="733" y="299" on="1"/>
        <pt x="733" y="162" on="0"/>
        <pt x="549" y="-10" on="0"/>
        <pt x="412" y="-10" on="1"/>
        <pt x="250" y="-10" on="0"/>
        <pt x="45" y="197" on="0"/>
      </contour>
      <contour>
        <pt x="532" y="926" on="1"/>
        <pt x="389" y="845" on="1"/>
        <pt x="419" y="845" on="1"/>
        <pt x="275" y="926" on="1"/>
        <pt x="226" y="883" on="1"/>
        <pt x="358" y="761" on="1"/>
        <pt x="449" y="761" on="1"/>
        <pt x="581" y="883" on="1"/>
      </contour>
    </TTGlyph>
    <TTGlyph name="Gcircumflex" xMin="45" yMin="-10" xMax="733" yMax="920">
      <contour>
        <pt x="45" y="352" on="1"/>
        <pt x="45" y="505" on="0"/>
        <pt x="256" y="711" on="0"/>
        <pt x="417" y="711" on="1"/>
        <pt x="500" y="711" on="0"/>
        <pt x="644" y="645" on="0"/>
        <pt x="685" y="594" on="1"/>
        <pt x="596" y="500" on="1"/>
        <pt x="556" y="538" on="0"/>
        <pt x="467" y="579" on="0"/>
        <pt x="416" y="579" on="1"/>
        <pt x="321" y="579" on="0"/>
        <pt x="193" y="449" on="0"/>
        <pt x="193" y="352" on="1"/>
        <pt x="193" y="255" on="0"/>
        <pt x="326" y="121" on="0"/>
        <pt x="421" y="121" on="1"/>
        <pt x="491" y="121" on="0"/>
        <pt x="589" y="201" on="0"/>
        <pt x="589" y="259" on="1"/>
        <pt x="589" y="282" on="1"/>
        <pt x="609" y="257" on="1"/>
        <pt x="407" y="257" on="1"/>
        <pt x="407" y="379" on="1"/>
        <pt x="728" y="379" on="1"/>
        <pt x="731" y="362" on="0"/>
        <pt x="733" y="313" on="0"/>
        <pt x="733" y="299" on="1"/>
        <pt x="733" y="162" on="0"/>
        <pt x="549" y="-10" on="0"/>
        <pt x="412" y="-10" on="1"/>
        <pt x="250" y="-10" on="0"/>
        <pt x="45" y="197" on="0"/>
      </contour>
      <contour>
        <pt x="531" y="758" on="1"/>
        <pt x="391" y="836" on="1"/>
        <pt x="421" y="836" on="1"/>
        <pt x="281" y="758" on="1"/>
        <pt x="234" y="804" on="1"/>
        <pt x="365" y="920" on="1"/>
        <pt x="447" y="920" on="1"/>
        <pt x="578" y="804" on="1"/>
      </contour>
    </TTGlyph>
    <TTGlyph name="Gdotaccent" xMin="45" yMin="-10" xMax="733" yMax="913">
      <contour>
        <pt x="45" y="352" on="1"/>
        <pt x="45" y="505" on="0"/>
        <pt x="256" y="711" on="0"/>
        <pt x="417" y="711" on="1"/>
        <pt x="500" y="711" on="0"/>
        <pt x="644" y="645" on="0"/>
        <pt x="685" y="594" on="1"/>
        <pt x="596" y="500" on="1"/>
        <pt x="556" y="538" on="0"/>
        <pt x="467" y="579" on="0"/>
        <pt x="416" y="579" on="1"/>
        <pt x="321" y="579" on="0"/>
        <pt x="193" y="449" on="0"/>
        <pt x="193" y="352" on="1"/>
        <pt x="193" y="255" on="0"/>
        <pt x="326" y="121" on="0"/>
        <pt x="421" y="121" on="1"/>
        <pt x="491" y="121" on="0"/>
        <pt x="589" y="201" on="0"/>
        <pt x="589" y="259" on="1"/>
        <pt x="589" y="282" on="1"/>
        <pt x="609" y="257" on="1"/>
        <pt x="407" y="257" on="1"/>
        <pt x="407" y="379" on="1"/>
        <pt x="728" y="379" on="1"/>
        <pt x="731" y="362" on="0"/>
        <pt x="733" y="313" on="0"/>
        <pt x="733" y="299" on="1"/>
        <pt x="733" y="162" on="0"/>
        <pt x="549" y="-10" on="0"/>
        <pt x="412" y="-10" on="1"/>
        <pt x="250" y="-10" on="0"/>
        <pt x="45" y="197" on="0"/>
      </contour>
      <contour>
        <pt x="484" y="838" on="1"/>
        <pt x="484" y="805" on="0"/>
        <pt x="439" y="763" on="0"/>
        <pt x="400" y="763" on="1"/>
        <pt x="359" y="763" on="0"/>
        <pt x="315" y="802" on="0"/>
        <pt x="315" y="838" on="1"/>
        <pt x="315" y="871" on="0"/>
        <pt x="360" y="913" on="0"/>
        <pt x="400" y="913" on="1"/>
        <pt x="440" y="913" on="0"/>
        <pt x="484" y="874" on="0"/>
      </contour>
    </TTGlyph>
    <TTGlyph name="H" xMin="92" yMin="0" xMax="680" yMax="700">
      <contour>
        <pt x="92" y="700" on="1"/>
        <pt x="236" y="700" on="1"/>
        <pt x="236" y="0" on="1"/>
        <pt x="92" y="0" on="1"/>
      </contour>
      <contour>
        <pt x="536" y="700" on="1"/>
        <pt x="680" y="700" on="1"/>
        <pt x="680" y="0" on="1"/>
        <pt x="536" y="0" on="1"/>
      </contour>
      <contour>
        <pt x="150" y="283" on="1"/>
        <pt x="151" y="415" on="1"/>
        <pt x="608" y="415" on="1"/>
        <pt x="608" y="283" on="1"/>
      </contour>
    </TTGlyph>
    <TTGlyph name="Hbar" xMin="44" yMin="0" xMax="793" yMax="700">
      <contour>
        <pt x="135" y="475" on="1"/>
        <pt x="44" y="475" on="1"/>
        <pt x="44" y="599" on="1"/>
        <pt x="142" y="599" on="1"/>
        <pt x="209" y="589" on="1"/>
        <pt x="603" y="589" on="1"/>
        <pt x="670" y="599" on="1"/>
        <pt x="793" y="599" on="1"/>
        <pt x="793" y="475" on="1"/>
        <pt x="675" y="475" on="1"/>
        <pt x="615" y="485" on="1"/>
        <pt x="199" y="485" on="1"/>
      </contour>
      <contour>
        <pt x="124" y="700" on="1"/>
        <pt x="268" y="700" on="1"/>
        <pt x="268" y="0" on="1"/>
        <pt x="124" y="0" on="1"/>
      </contour>
      <contour>
        <pt x="568" y="700" on="1"/>
        <pt x="712" y="700" on="1"/>
        <pt x="712" y="0" on="1"/>
        <pt x="568" y="0" on="1"/>
      </contour>
      <contour>
        <pt x="182" y="283" on="1"/>
        <pt x="183" y="415" on="1"/>
        <pt x="640" y="415" on="1"/>
        <pt x="640" y="283" on="1"/>
      </contour>
    </TTGlyph>
    <TTGlyph name="Hcircumflex" xMin="92" yMin="0" xMax="680" yMax="920">
      <contour>
        <pt x="92" y="700" on="1"/>
        <pt x="236" y="700" on="1"/>
        <pt x="236" y="0" on="1"/>
        <pt x="92" y="0" on="1"/>
      </contour>
      <contour>
        <pt x="536" y="700" on="1"/>
        <pt x="680" y="700" on="1"/>
        <pt x="680" y="0" on="1"/>
        <pt x="536" y="0" on="1"/>
      </contour>
      <contour>
        <pt x="150" y="283" on="1"/>
        <pt x="151" y="415" on="1"/>
        <pt x="608" y="415" on="1"/>
        <pt x="608" y="283" on="1"/>
      </contour>
      <contour>
        <pt x="506" y="758" on="1"/>
        <pt x="367" y="836" on="1"/>
        <pt x="396" y="836" on="1"/>
        <pt x="256" y="758" on="1"/>
        <pt x="209" y="804" on="1"/>
        <pt x="340" y="920" on="1"/>
        <pt x="423" y="920" on="1"/>
        <pt x="554" y="804" on="1"/>
      </contour>
    </TTGlyph>
    <TTGlyph name="I" xMin="73" yMin="0" xMax="450" yMax="700">
      <contour>
        <pt x="333" y="700" on="1"/>
        <pt x="333" y="0" on="1"/>
        <pt x="189" y="0" on="1"/>
        <pt x="189" y="700" on="1"/>
        <pt x="216" y="700" on="0"/>
        <pt x="306" y="700" on="0"/>
      </contour>
      <contour>
        <pt x="450" y="700" on="1"/>
        <pt x="450" y="575" on="1"/>
        <pt x="73" y="575" on="1"/>
        <pt x="73" y="700" on="1"/>
      </contour>
      <contour>
        <pt x="450" y="125" on="1"/>
        <pt x="450" y="0" on="1"/>
        <pt x="73" y="0" on="1"/>
        <pt x="73" y="125" on="1"/>
      </contour>
    </TTGlyph>
    <TTGlyph name="I.ss01" xMin="93" yMin="0" xMax="237" yMax="700">
      <contour>
        <pt x="237" y="700" on="1"/>
        <pt x="237" y="0" on="1"/>
        <pt x="93" y="0" on="1"/>
        <pt x="93" y="700" on="1"/>
        <pt x="129" y="700" on="0"/>
        <pt x="201" y="700" on="0"/>
      </contour>
    </TTGlyph>
    <TTGlyph name="IJ" xMin="73" yMin="-10" xMax="1115" yMax="700">
      <contour>
        <pt x="333" y="700" on="1"/>
        <pt x="333" y="0" on="1"/>
        <pt x="189" y="0" on="1"/>
        <pt x="189" y="700" on="1"/>
        <pt x="216" y="700" on="0"/>
        <pt x="306" y="700" on="0"/>
      </contour>
      <contour>
        <pt x="450" y="700" on="1"/>
        <pt x="450" y="575" on="1"/>
        <pt x="73" y="575" on="1"/>
        <pt x="73" y="700" on="1"/>
      </contour>
      <contour>
        <pt x="450" y="125" on="1"/>
        <pt x="450" y="0" on="1"/>
        <pt x="73" y="0" on="1"/>
        <pt x="73" y="125" on="1"/>
      </contour>
      <contour>
        <pt x="778" y="-10" on="1"/>
        <pt x="705" y="-10" on="0"/>
        <pt x="593" y="58" on="0"/>
        <pt x="563" y="116" on="1"/>
        <pt x="648" y="205" on="1"/>
        <pt x="682" y="157" on="0"/>
        <pt x="735" y="123" on="0"/>
        <pt x="768" y="123" on="1"/>
        <pt x="812" y="123" on="0"/>
        <pt x="865" y="182" on="0"/>
        <pt x="865" y="229" on="1"/>
        <pt x="865" y="700" on="1"/>
        <pt x="1007" y="700" on="1"/>
        <pt x="1007" y="213" on="1"/>
        <pt x="1007" y="114" on="0"/>
        <pt x="877" y="-10" on="0"/>
      </contour>
      <contour>
        <pt x="1115" y="700" on="1"/>
        <pt x="1115" y="572" on="1"/>
        <pt x="737" y="572" on="1"/>
        <pt x="737" y="700" on="1"/>
      </contour>
    </TTGlyph>
    <TTGlyph name="IJ.ss01" xMin="93" yMin="-10" xMax="795" yMax="700">
      <contour>
        <pt x="237" y="700" on="1"/>
        <pt x="237" y="0" on="1"/>
        <pt x="93" y="0" on="1"/>
        <pt x="93" y="700" on="1"/>
        <pt x="129" y="700" on="0"/>
        <pt x="201" y="700" on="0"/>
      </contour>
      <contour>
        <pt x="562" y="-10" on="1"/>
        <pt x="487" y="-10" on="0"/>
        <pt x="376" y="58" on="0"/>
        <pt x="348" y="112" on="1"/>
        <pt x="435" y="201" on="1"/>
        <pt x="469" y="154" on="0"/>
        <pt x="521" y="121" on="0"/>
        <pt x="554" y="121" on="1"/>
        <pt x="598" y="121" on="0"/>
        <pt x="654" y="180" on="0"/>
        <pt x="654" y="227" on="1"/>
        <pt x="654" y="700" on="1"/>
        <pt x="795" y="700" on="1"/>
        <pt x="795" y="213" on="1"/>
        <pt x="795" y="114" on="0"/>
        <pt x="666" y="-10" on="0"/>
      </contour>
    </TTGlyph>
    <TTGlyph name="IJacute" xMin="73" yMin="-10" xMax="1115" yMax="934">
      <contour>
        <pt x="333" y="700" on="1"/>
        <pt x="333" y="0" on="1"/>
        <pt x="189" y="0" on="1"/>
        <pt x="189" y="700" on="1"/>
        <pt x="216" y="700" on="0"/>
        <pt x="306" y="700" on="0"/>
      </contour>
      <contour>
        <pt x="450" y="700" on="1"/>
        <pt x="450" y="575" on="1"/>
        <pt x="73" y="575" on="1"/>
        <pt x="73" y="700" on="1"/>
      </contour>
      <contour>
        <pt x="450" y="125" on="1"/>
        <pt x="450" y="0" on="1"/>
        <pt x="73" y="0" on="1"/>
        <pt x="73" y="125" on="1"/>
      </contour>
      <contour>
        <pt x="778" y="-10" on="1"/>
        <pt x="705" y="-10" on="0"/>
        <pt x="593" y="58" on="0"/>
        <pt x="563" y="116" on="1"/>
        <pt x="648" y="205" on="1"/>
        <pt x="682" y="157" on="0"/>
        <pt x="735" y="123" on="0"/>
        <pt x="768" y="123" on="1"/>
        <pt x="812" y="123" on="0"/>
        <pt x="865" y="182" on="0"/>
        <pt x="865" y="229" on="1"/>
        <pt x="865" y="700" on="1"/>
        <pt x="1007" y="700" on="1"/>
        <pt x="1007" y="213" on="1"/>
        <pt x="1007" y="114" on="0"/>
        <pt x="877" y="-10" on="0"/>
      </contour>
      <contour>
        <pt x="1115" y="700" on="1"/>
        <pt x="1115" y="572" on="1"/>
        <pt x="737" y="572" on="1"/>
        <pt x="737" y="700" on="1"/>
      </contour>
      <contour>
        <pt x="616" y="838" on="1"/>
        <pt x="424" y="735" on="1"/>
        <pt x="381" y="800" on="1"/>
        <pt x="545" y="934" on="1"/>
      </contour>
      <contour>
        <pt x="867" y="838" on="1"/>
        <pt x="675" y="734" on="1"/>
        <pt x="632" y="799" on="1"/>
        <pt x="796" y="934" on="1"/>
      </contour>
    </TTGlyph>
    <TTGlyph name="IJacute.ss01" xMin="93" yMin="-10" xMax="903" yMax="932">
      <contour>
        <pt x="237" y="700" on="1"/>
        <pt x="237" y="0" on="1"/>
        <pt x="93" y="0" on="1"/>
        <pt x="93" y="700" on="1"/>
        <pt x="129" y="700" on="0"/>
        <pt x="201" y="700" on="0"/>
      </contour>
      <contour>
        <pt x="562" y="-10" on="1"/>
        <pt x="487" y="-10" on="0"/>
        <pt x="376" y="58" on="0"/>
        <pt x="348" y="112" on="1"/>
        <pt x="435" y="201" on="1"/>
        <pt x="469" y="154" on="0"/>
        <pt x="521" y="121" on="0"/>
        <pt x="554" y="121" on="1"/>
        <pt x="598" y="121" on="0"/>
        <pt x="654" y="180" on="0"/>
        <pt x="654" y="227" on="1"/>
        <pt x="654" y="700" on="1"/>
        <pt x="795" y="700" on="1"/>
        <pt x="795" y="213" on="1"/>
        <pt x="795" y="114" on="0"/>
        <pt x="666" y="-10" on="0"/>
      </contour>
      <contour>
        <pt x="347" y="836" on="1"/>
        <pt x="155" y="733" on="1"/>
        <pt x="112" y="798" on="1"/>
        <pt x="276" y="932" on="1"/>
      </contour>
      <contour>
        <pt x="903" y="836" on="1"/>
        <pt x="711" y="733" on="1"/>
        <pt x="669" y="798" on="1"/>
        <pt x="832" y="932" on="1"/>
      </contour>
    </TTGlyph>
    <TTGlyph name="Iacute" xMin="73" yMin="0" xMax="450" yMax="956">
      <contour>
        <pt x="333" y="700" on="1"/>
        <pt x="333" y="0" on="1"/>
        <pt x="189" y="0" on="1"/>
        <pt x="189" y="700" on="1"/>
        <pt x="216" y="700" on="0"/>
        <pt x="306" y="700" on="0"/>
      </contour>
      <contour>
        <pt x="450" y="700" on="1"/>
        <pt x="450" y="575" on="1"/>
        <pt x="73" y="575" on="1"/>
        <pt x="73" y="700" on="1"/>
      </contour>
      <contour>
        <pt x="450" y="125" on="1"/>
        <pt x="450" y="0" on="1"/>
        <pt x="73" y="0" on="1"/>
        <pt x="73" y="125" on="1"/>
      </contour>
      <contour>
        <pt x="413" y="860" on="1"/>
        <pt x="221" y="757" on="1"/>
        <pt x="178" y="822" on="1"/>
        <pt x="342" y="956" on="1"/>
      </contour>
    </TTGlyph>
    <TTGlyph name="Iacute.ss01" xMin="93" yMin="0" xMax="328" yMax="956">
      <contour>
        <pt x="237" y="700" on="1"/>
        <pt x="237" y="0" on="1"/>
        <pt x="93" y="0" on="1"/>
        <pt x="93" y="700" on="1"/>
        <pt x="129" y="700" on="0"/>
        <pt x="201" y="700" on="0"/>
      </contour>
      <contour>
        <pt x="328" y="860" on="1"/>
        <pt x="136" y="757" on="1"/>
        <pt x="93" y="822" on="1"/>
        <pt x="257" y="956" on="1"/>
      </contour>
    </TTGlyph>
    <TTGlyph name="Iacute_J.loclNLD" xMin="73" yMin="-10" xMax="1056" yMax="966">
      <contour>
        <pt x="333" y="700" on="1"/>
        <pt x="333" y="0" on="1"/>
        <pt x="189" y="0" on="1"/>
        <pt x="189" y="700" on="1"/>
        <pt x="216" y="700" on="0"/>
        <pt x="306" y="700" on="0"/>
      </contour>
      <contour>
        <pt x="450" y="700" on="1"/>
        <pt x="450" y="575" on="1"/>
        <pt x="73" y="575" on="1"/>
        <pt x="73" y="700" on="1"/>
      </contour>
      <contour>
        <pt x="450" y="125" on="1"/>
        <pt x="450" y="0" on="1"/>
        <pt x="73" y="0" on="1"/>
        <pt x="73" y="125" on="1"/>
      </contour>
      <contour>
        <pt x="413" y="860" on="1"/>
        <pt x="221" y="757" on="1"/>
        <pt x="178" y="822" on="1"/>
        <pt x="342" y="956" on="1"/>
      </contour>
      <contour>
        <pt x="719" y="-10" on="1"/>
        <pt x="646" y="-10" on="0"/>
        <pt x="534" y="58" on="0"/>
        <pt x="504" y="116" on="1"/>
        <pt x="589" y="205" on="1"/>
        <pt x="623" y="157" on="0"/>
        <pt x="676" y="123" on="0"/>
        <pt x="709" y="123" on="1"/>
        <pt x="753" y="123" on="0"/>
        <pt x="806" y="182" on="0"/>
        <pt x="806" y="229" on="1"/>
        <pt x="806" y="700" on="1"/>
        <pt x="948" y="700" on="1"/>
        <pt x="948" y="213" on="1"/>
        <pt x="948" y="114" on="0"/>
        <pt x="818" y="-10" on="0"/>
      </contour>
      <contour>
        <pt x="1056" y="700" on="1"/>
        <pt x="1056" y="572" on="1"/>
        <pt x="678" y="572" on="1"/>
        <pt x="678" y="700" on="1"/>
      </contour>
      <contour>
        <pt x="1010" y="870" on="1"/>
        <pt x="818" y="767" on="1"/>
        <pt x="775" y="832" on="1"/>
        <pt x="939" y="966" on="1"/>
      </contour>
    </TTGlyph>
    <TTGlyph name="Ibreve" xMin="73" yMin="0" xMax="450" yMax="927">
      <contour>
        <pt x="333" y="700" on="1"/>
        <pt x="333" y="0" on="1"/>
        <pt x="189" y="0" on="1"/>
        <pt x="189" y="700" on="1"/>
        <pt x="216" y="700" on="0"/>
        <pt x="306" y="700" on="0"/>
      </contour>
      <contour>
        <pt x="450" y="700" on="1"/>
        <pt x="450" y="575" on="1"/>
        <pt x="73" y="575" on="1"/>
        <pt x="73" y="700" on="1"/>
      </contour>
      <contour>
        <pt x="450" y="125" on="1"/>
        <pt x="450" y="0" on="1"/>
        <pt x="73" y="0" on="1"/>
        <pt x="73" y="125" on="1"/>
      </contour>
      <contour>
        <pt x="257" y="757" on="1"/>
        <pt x="192" y="757" on="0"/>
        <pt x="99" y="842" on="0"/>
        <pt x="85" y="915" on="1"/>
        <pt x="176" y="927" on="1"/>
        <pt x="187" y="892" on="0"/>
        <pt x="232" y="852" on="0"/>
        <pt x="257" y="852" on="1"/>
        <pt x="282" y="852" on="0"/>
        <pt x="327" y="892" on="0"/>
        <pt x="338" y="927" on="1"/>
        <pt x="429" y="915" on="1"/>
        <pt x="415" y="842" on="0"/>
        <pt x="322" y="757" on="0"/>
      </contour>
    </TTGlyph>
    <TTGlyph name="Ibreve.ss01" xMin="-9" yMin="0" xMax="335" yMax="927">
      <contour>
        <pt x="237" y="700" on="1"/>
        <pt x="237" y="0" on="1"/>
        <pt x="93" y="0" on="1"/>
        <pt x="93" y="700" on="1"/>
        <pt x="129" y="700" on="0"/>
        <pt x="201" y="700" on="0"/>
      </contour>
      <contour>
        <pt x="163" y="757" on="1"/>
        <pt x="98" y="757" on="0"/>
        <pt x="5" y="842" on="0"/>
        <pt x="-9" y="915" on="1"/>
        <pt x="81" y="927" on="1"/>
        <pt x="93" y="892" on="0"/>
        <pt x="138" y="852" on="0"/>
        <pt x="163" y="852" on="1"/>
        <pt x="188" y="852" on="0"/>
        <pt x="232" y="892" on="0"/>
        <pt x="244" y="927" on="1"/>
        <pt x="335" y="915" on="1"/>
        <pt x="320" y="842" on="0"/>
        <pt x="228" y="757" on="0"/>
      </contour>
    </TTGlyph>
    <TTGlyph name="Icircumflex" xMin="73" yMin="0" xMax="450" yMax="920">
      <contour>
        <pt x="333" y="700" on="1"/>
        <pt x="333" y="0" on="1"/>
        <pt x="189" y="0" on="1"/>
        <pt x="189" y="700" on="1"/>
        <pt x="216" y="700" on="0"/>
        <pt x="306" y="700" on="0"/>
      </contour>
      <contour>
        <pt x="450" y="700" on="1"/>
        <pt x="450" y="575" on="1"/>
        <pt x="73" y="575" on="1"/>
        <pt x="73" y="700" on="1"/>
      </contour>
      <contour>
        <pt x="450" y="125" on="1"/>
        <pt x="450" y="0" on="1"/>
        <pt x="73" y="0" on="1"/>
        <pt x="73" y="125" on="1"/>
      </contour>
      <contour>
        <pt x="384" y="758" on="1"/>
        <pt x="244" y="836" on="1"/>
        <pt x="274" y="836" on="1"/>
        <pt x="134" y="758" on="1"/>
        <pt x="87" y="804" on="1"/>
        <pt x="218" y="920" on="1"/>
        <pt x="300" y="920" on="1"/>
        <pt x="431" y="804" on="1"/>
      </contour>
    </TTGlyph>
    <TTGlyph name="Icircumflex.ss01" xMin="-8" yMin="0" xMax="337" yMax="920">
      <contour>
        <pt x="237" y="700" on="1"/>
        <pt x="237" y="0" on="1"/>
        <pt x="93" y="0" on="1"/>
        <pt x="93" y="700" on="1"/>
        <pt x="129" y="700" on="0"/>
        <pt x="201" y="700" on="0"/>
      </contour>
      <contour>
        <pt x="290" y="758" on="1"/>
        <pt x="150" y="836" on="1"/>
        <pt x="179" y="836" on="1"/>
        <pt x="40" y="758" on="1"/>
        <pt x="-8" y="804" on="1"/>
        <pt x="123" y="920" on="1"/>
        <pt x="206" y="920" on="1"/>
        <pt x="337" y="804" on="1"/>
      </contour>
    </TTGlyph>
    <TTGlyph name="Idieresis" xMin="67" yMin="0" xMax="454" yMax="909">
      <contour>
        <pt x="333" y="700" on="1"/>
        <pt x="333" y="0" on="1"/>
        <pt x="189" y="0" on="1"/>
        <pt x="189" y="700" on="1"/>
        <pt x="216" y="700" on="0"/>
        <pt x="306" y="700" on="0"/>
      </contour>
      <contour>
        <pt x="450" y="700" on="1"/>
        <pt x="450" y="575" on="1"/>
        <pt x="73" y="575" on="1"/>
        <pt x="73" y="700" on="1"/>
      </contour>
      <contour>
        <pt x="450" y="125" on="1"/>
        <pt x="450" y="0" on="1"/>
        <pt x="73" y="0" on="1"/>
        <pt x="73" y="125" on="1"/>
      </contour>
      <contour>
        <pt x="226" y="833" on="1"/>
        <pt x="226" y="799" on="0"/>
        <pt x="183" y="756" on="0"/>
        <pt x="146" y="756" on="1"/>
        <pt x="108" y="756" on="0"/>
        <pt x="67" y="796" on="0"/>
        <pt x="67" y="833" on="1"/>
        <pt x="67" y="867" on="0"/>
        <pt x="110" y="909" on="0"/>
        <pt x="146" y="909" on="1"/>
        <pt x="184" y="909" on="0"/>
        <pt x="226" y="870" on="0"/>
      </contour>
      <contour>
        <pt x="454" y="833" on="1"/>
        <pt x="454" y="799" on="0"/>
        <pt x="411" y="756" on="0"/>
        <pt x="374" y="756" on="1"/>
        <pt x="336" y="756" on="0"/>
        <pt x="295" y="796" on="0"/>
        <pt x="295" y="833" on="1"/>
        <pt x="295" y="867" on="0"/>
        <pt x="338" y="909" on="0"/>
        <pt x="374" y="909" on="1"/>
        <pt x="412" y="909" on="0"/>
        <pt x="454" y="870" on="0"/>
      </contour>
    </TTGlyph>
    <TTGlyph name="Idieresis.ss01" xMin="-27" yMin="0" xMax="359" yMax="909">
      <contour>
        <pt x="237" y="700" on="1"/>
        <pt x="237" y="0" on="1"/>
        <pt x="93" y="0" on="1"/>
        <pt x="93" y="700" on="1"/>
        <pt x="129" y="700" on="0"/>
        <pt x="201" y="700" on="0"/>
      </contour>
      <contour>
        <pt x="132" y="833" on="1"/>
        <pt x="132" y="799" on="0"/>
        <pt x="89" y="756" on="0"/>
        <pt x="52" y="756" on="1"/>
        <pt x="14" y="756" on="0"/>
        <pt x="-27" y="796" on="0"/>
        <pt x="-27" y="833" on="1"/>
        <pt x="-27" y="867" on="0"/>
        <pt x="15" y="909" on="0"/>
        <pt x="52" y="909" on="1"/>
        <pt x="90" y="909" on="0"/>
        <pt x="132" y="870" on="0"/>
      </contour>
      <contour>
        <pt x="359" y="833" on="1"/>
        <pt x="359" y="799" on="0"/>
        <pt x="316" y="756" on="0"/>
        <pt x="280" y="756" on="1"/>
        <pt x="242" y="756" on="0"/>
        <pt x="200" y="796" on="0"/>
        <pt x="200" y="833" on="1"/>
        <pt x="200" y="867" on="0"/>
        <pt x="243" y="909" on="0"/>
        <pt x="280" y="909" on="1"/>
        <pt x="318" y="909" on="0"/>
        <pt x="359" y="870" on="0"/>
      </contour>
    </TTGlyph>
    <TTGlyph name="Idotaccent" xMin="73" yMin="0" xMax="450" yMax="913">
      <contour>
        <pt x="333" y="700" on="1"/>
        <pt x="333" y="0" on="1"/>
        <pt x="189" y="0" on="1"/>
        <pt x="189" y="700" on="1"/>
        <pt x="216" y="700" on="0"/>
        <pt x="306" y="700" on="0"/>
      </contour>
      <contour>
        <pt x="450" y="700" on="1"/>
        <pt x="450" y="575" on="1"/>
        <pt x="73" y="575" on="1"/>
        <pt x="73" y="700" on="1"/>
      </contour>
      <contour>
        <pt x="450" y="125" on="1"/>
        <pt x="450" y="0" on="1"/>
        <pt x="73" y="0" on="1"/>
        <pt x="73" y="125" on="1"/>
      </contour>
      <contour>
        <pt x="344" y="838" on="1"/>
        <pt x="344" y="805" on="0"/>
        <pt x="299" y="763" on="0"/>
        <pt x="260" y="763" on="1"/>
        <pt x="220" y="763" on="0"/>
        <pt x="175" y="802" on="0"/>
        <pt x="175" y="838" on="1"/>
        <pt x="175" y="871" on="0"/>
        <pt x="221" y="913" on="0"/>
        <pt x="260" y="913" on="1"/>
        <pt x="300" y="913" on="0"/>
        <pt x="344" y="874" on="0"/>
      </contour>
    </TTGlyph>
    <TTGlyph name="Idotaccent.ss01" xMin="81" yMin="0" xMax="250" yMax="913">
      <contour>
        <pt x="237" y="700" on="1"/>
        <pt x="237" y="0" on="1"/>
        <pt x="93" y="0" on="1"/>
        <pt x="93" y="700" on="1"/>
        <pt x="129" y="700" on="0"/>
        <pt x="201" y="700" on="0"/>
      </contour>
      <contour>
        <pt x="250" y="838" on="1"/>
        <pt x="250" y="805" on="0"/>
        <pt x="204" y="763" on="0"/>
        <pt x="165" y="763" on="1"/>
        <pt x="125" y="763" on="0"/>
        <pt x="81" y="802" on="0"/>
        <pt x="81" y="838" on="1"/>
        <pt x="81" y="871" on="0"/>
        <pt x="126" y="913" on="0"/>
        <pt x="165" y="913" on="1"/>
        <pt x="205" y="913" on="0"/>
        <pt x="250" y="874" on="0"/>
      </contour>
    </TTGlyph>
    <TTGlyph name="Igrave" xMin="73" yMin="0" xMax="450" yMax="959">
      <contour>
        <pt x="333" y="700" on="1"/>
        <pt x="333" y="0" on="1"/>
        <pt x="189" y="0" on="1"/>
        <pt x="189" y="700" on="1"/>
        <pt x="216" y="700" on="0"/>
        <pt x="306" y="700" on="0"/>
      </contour>
      <contour>
        <pt x="450" y="700" on="1"/>
        <pt x="450" y="575" on="1"/>
        <pt x="73" y="575" on="1"/>
        <pt x="73" y="700" on="1"/>
      </contour>
      <contour>
        <pt x="450" y="125" on="1"/>
        <pt x="450" y="0" on="1"/>
        <pt x="73" y="0" on="1"/>
        <pt x="73" y="125" on="1"/>
      </contour>
      <contour>
        <pt x="345" y="824" on="1"/>
        <pt x="302" y="759" on="1"/>
        <pt x="110" y="863" on="1"/>
        <pt x="181" y="959" on="1"/>
      </contour>
    </TTGlyph>
    <TTGlyph name="Igrave.ss01" xMin="23" yMin="0" xMax="258" yMax="959">
      <contour>
        <pt x="237" y="700" on="1"/>
        <pt x="237" y="0" on="1"/>
        <pt x="93" y="0" on="1"/>
        <pt x="93" y="700" on="1"/>
        <pt x="129" y="700" on="0"/>
        <pt x="201" y="700" on="0"/>
      </contour>
      <contour>
        <pt x="258" y="824" on="1"/>
        <pt x="215" y="759" on="1"/>
        <pt x="23" y="863" on="1"/>
        <pt x="94" y="959" on="1"/>
      </contour>
    </TTGlyph>
    <TTGlyph name="Imacron" xMin="73" yMin="0" xMax="450" yMax="864">
      <contour>
        <pt x="333" y="700" on="1"/>
        <pt x="333" y="0" on="1"/>
        <pt x="189" y="0" on="1"/>
        <pt x="189" y="700" on="1"/>
        <pt x="216" y="700" on="0"/>
        <pt x="306" y="700" on="0"/>
      </contour>
      <contour>
        <pt x="450" y="700" on="1"/>
        <pt x="450" y="575" on="1"/>
        <pt x="73" y="575" on="1"/>
        <pt x="73" y="700" on="1"/>
      </contour>
      <contour>
        <pt x="450" y="125" on="1"/>
        <pt x="450" y="0" on="1"/>
        <pt x="73" y="0" on="1"/>
        <pt x="73" y="125" on="1"/>
      </contour>
      <contour>
        <pt x="434" y="774" on="1"/>
        <pt x="86" y="774" on="1"/>
        <pt x="86" y="864" on="1"/>
        <pt x="434" y="864" on="1"/>
      </contour>
    </TTGlyph>
    <TTGlyph name="Imacron.ss01" xMin="-8" yMin="0" xMax="339" yMax="871">
      <contour>
        <pt x="237" y="700" on="1"/>
        <pt x="237" y="0" on="1"/>
        <pt x="93" y="0" on="1"/>
        <pt x="93" y="700" on="1"/>
        <pt x="129" y="700" on="0"/>
        <pt x="201" y="700" on="0"/>
      </contour>
      <contour>
        <pt x="339" y="781" on="1"/>
        <pt x="-8" y="781" on="1"/>
        <pt x="-8" y="871" on="1"/>
        <pt x="339" y="871" on="1"/>
      </contour>
    </TTGlyph>
    <TTGlyph name="Iogonek" xMin="73" yMin="-205" xMax="463" yMax="700">
      <contour>
        <pt x="333" y="700" on="1"/>
        <pt x="333" y="0" on="1"/>
        <pt x="189" y="0" on="1"/>
        <pt x="189" y="700" on="1"/>
        <pt x="216" y="700" on="0"/>
        <pt x="306" y="700" on="0"/>
      </contour>
      <contour>
        <pt x="450" y="700" on="1"/>
        <pt x="450" y="575" on="1"/>
        <pt x="73" y="575" on="1"/>
        <pt x="73" y="700" on="1"/>
      </contour>
      <contour>
        <pt x="450" y="125" on="1"/>
        <pt x="450" y="0" on="1"/>
        <pt x="73" y="0" on="1"/>
        <pt x="73" y="125" on="1"/>
      </contour>
      <contour>
        <pt x="347" y="-205" on="1"/>
        <pt x="300" y="-205" on="0"/>
        <pt x="232" y="-142" on="0"/>
        <pt x="232" y="-98" on="1"/>
        <pt x="232" y="-47" on="0"/>
        <pt x="318" y="31" on="0"/>
        <pt x="393" y="52" on="1"/>
        <pt x="426" y="45" on="1"/>
        <pt x="437" y="1" on="1"/>
        <pt x="395" y="-8" on="0"/>
        <pt x="334" y="-55" on="0"/>
        <pt x="334" y="-82" on="1"/>
        <pt x="334" y="-96" on="0"/>
        <pt x="351" y="-113" on="0"/>
        <pt x="365" y="-113" on="1"/>
        <pt x="375" y="-113" on="0"/>
        <pt x="391" y="-101" on="0"/>
        <pt x="399" y="-89" on="1"/>
        <pt x="463" y="-135" on="1"/>
        <pt x="450" y="-162" on="0"/>
        <pt x="386" y="-205" on="0"/>
      </contour>
    </TTGlyph>
    <TTGlyph name="Iogonek.ss01" xMin="25" yMin="-220" xMax="256" yMax="700">
      <contour>
        <pt x="230" y="700" on="1"/>
        <pt x="230" y="0" on="1"/>
        <pt x="86" y="0" on="1"/>
        <pt x="86" y="700" on="1"/>
        <pt x="122" y="700" on="0"/>
        <pt x="194" y="700" on="0"/>
      </contour>
      <contour>
        <pt x="140" y="-220" on="1"/>
        <pt x="93" y="-220" on="0"/>
        <pt x="25" y="-157" on="0"/>
        <pt x="25" y="-112" on="1"/>
        <pt x="25" y="-57" on="0"/>
        <pt x="108" y="28" on="0"/>
        <pt x="186" y="50" on="1"/>
        <pt x="219" y="43" on="1"/>
        <pt x="230" y="-1" on="1"/>
        <pt x="188" y="-10" on="0"/>
        <pt x="127" y="-66" on="0"/>
        <pt x="127" y="-96" on="1"/>
        <pt x="127" y="-110" on="0"/>
        <pt x="144" y="-128" on="0"/>
        <pt x="158" y="-128" on="1"/>
        <pt x="168" y="-128" on="0"/>
        <pt x="184" y="-115" on="0"/>
        <pt x="192" y="-103" on="1"/>
        <pt x="256" y="-150" on="1"/>
        <pt x="243" y="-176" on="0"/>
        <pt x="179" y="-220" on="0"/>
      </contour>
    </TTGlyph>
    <TTGlyph name="Itilde" xMin="73" yMin="0" xMax="450" yMax="931">
      <contour>
        <pt x="333" y="700" on="1"/>
        <pt x="333" y="0" on="1"/>
        <pt x="189" y="0" on="1"/>
        <pt x="189" y="700" on="1"/>
        <pt x="216" y="700" on="0"/>
        <pt x="306" y="700" on="0"/>
      </contour>
      <contour>
        <pt x="450" y="700" on="1"/>
        <pt x="450" y="575" on="1"/>
        <pt x="73" y="575" on="1"/>
        <pt x="73" y="700" on="1"/>
      </contour>
      <contour>
        <pt x="450" y="125" on="1"/>
        <pt x="450" y="0" on="1"/>
        <pt x="73" y="0" on="1"/>
        <pt x="73" y="125" on="1"/>
      </contour>
      <contour>
        <pt x="169" y="801" on="1"/>
        <pt x="78" y="801" on="1"/>
        <pt x="78" y="861" on="0"/>
        <pt x="141" y="931" on="0"/>
        <pt x="194" y="931" on="1"/>
        <pt x="210" y="931" on="0"/>
        <pt x="244" y="922" on="0"/>
        <pt x="276" y="908" on="1"/>
        <pt x="299" y="897" on="0"/>
        <pt x="320" y="891" on="0"/>
        <pt x="327" y="891" on="1"/>
        <pt x="340" y="891" on="0"/>
        <pt x="353" y="913" on="0"/>
        <pt x="352" y="931" on="1"/>
        <pt x="442" y="931" on="1"/>
        <pt x="442" y="875" on="0"/>
        <pt x="385" y="800" on="0"/>
        <pt x="340" y="800" on="1"/>
        <pt x="322" y="800" on="0"/>
        <pt x="284" y="810" on="0"/>
        <pt x="246" y="824" on="1"/>
        <pt x="223" y="833" on="0"/>
        <pt x="202" y="840" on="0"/>
        <pt x="196" y="840" on="1"/>
        <pt x="184" y="840" on="0"/>
        <pt x="169" y="819" on="0"/>
      </contour>
    </TTGlyph>
    <TTGlyph name="Itilde.ss01" xMin="-16" yMin="0" xMax="347" yMax="931">
      <contour>
        <pt x="237" y="700" on="1"/>
        <pt x="237" y="0" on="1"/>
        <pt x="93" y="0" on="1"/>
        <pt x="93" y="700" on="1"/>
        <pt x="129" y="700" on="0"/>
        <pt x="201" y="700" on="0"/>
      </contour>
      <contour>
        <pt x="74" y="801" on="1"/>
        <pt x="-16" y="801" on="1"/>
        <pt x="-16" y="861" on="0"/>
        <pt x="46" y="931" on="0"/>
        <pt x="100" y="931" on="1"/>
        <pt x="115" y="931" on="0"/>
        <pt x="149" y="922" on="0"/>
        <pt x="181" y="908" on="1"/>
        <pt x="205" y="897" on="0"/>
        <pt x="225" y="891" on="0"/>
        <pt x="233" y="891" on="1"/>
        <pt x="246" y="891" on="0"/>
        <pt x="259" y="913" on="0"/>
        <pt x="258" y="931" on="1"/>
        <pt x="347" y="931" on="1"/>
        <pt x="347" y="875" on="0"/>
        <pt x="290" y="800" on="0"/>
        <pt x="245" y="800" on="1"/>
        <pt x="228" y="800" on="0"/>
        <pt x="189" y="810" on="0"/>
        <pt x="152" y="824" on="1"/>
        <pt x="128" y="833" on="0"/>
        <pt x="108" y="840" on="0"/>
        <pt x="102" y="840" on="1"/>
        <pt x="90" y="840" on="0"/>
        <pt x="74" y="819" on="0"/>
      </contour>
    </TTGlyph>
    <TTGlyph name="J" xMin="44" yMin="-10" xMax="595" yMax="700">
      <contour>
        <pt x="259" y="-10" on="1"/>
        <pt x="185" y="-10" on="0"/>
        <pt x="74" y="58" on="0"/>
        <pt x="44" y="116" on="1"/>
        <pt x="129" y="205" on="1"/>
        <pt x="163" y="157" on="0"/>
        <pt x="216" y="123" on="0"/>
        <pt x="248" y="123" on="1"/>
        <pt x="292" y="123" on="0"/>
        <pt x="346" y="182" on="0"/>
        <pt x="346" y="229" on="1"/>
        <pt x="346" y="700" on="1"/>
        <pt x="487" y="700" on="1"/>
        <pt x="487" y="213" on="1"/>
        <pt x="487" y="114" on="0"/>
        <pt x="358" y="-10" on="0"/>
      </contour>
      <contour>
        <pt x="595" y="700" on="1"/>
        <pt x="595" y="572" on="1"/>
        <pt x="218" y="572" on="1"/>
        <pt x="218" y="700" on="1"/>
      </contour>
    </TTGlyph>
    <TTGlyph name="J.ss01" xMin="40" yMin="-10" xMax="487" yMax="700">
      <contour>
        <pt x="254" y="-10" on="1"/>
        <pt x="179" y="-10" on="0"/>
        <pt x="68" y="58" on="0"/>
        <pt x="40" y="112" on="1"/>
        <pt x="127" y="201" on="1"/>
        <pt x="161" y="154" on="0"/>
        <pt x="213" y="121" on="0"/>
        <pt x="246" y="121" on="1"/>
        <pt x="290" y="121" on="0"/>
        <pt x="346" y="180" on="0"/>
        <pt x="346" y="227" on="1"/>
        <pt x="346" y="700" on="1"/>
        <pt x="487" y="700" on="1"/>
        <pt x="487" y="213" on="1"/>
        <pt x="487" y="114" on="0"/>
        <pt x="358" y="-10" on="0"/>
      </contour>
    </TTGlyph>
    <TTGlyph name="Jacute.loclNLD" xMin="44" yMin="-10" xMax="595" yMax="966">
      <contour>
        <pt x="259" y="-10" on="1"/>
        <pt x="185" y="-10" on="0"/>
        <pt x="74" y="58" on="0"/>
        <pt x="44" y="116" on="1"/>
        <pt x="129" y="205" on="1"/>
        <pt x="163" y="157" on="0"/>
        <pt x="216" y="123" on="0"/>
        <pt x="248" y="123" on="1"/>
        <pt x="292" y="123" on="0"/>
        <pt x="346" y="182" on="0"/>
        <pt x="346" y="229" on="1"/>
        <pt x="346" y="700" on="1"/>
        <pt x="487" y="700" on="1"/>
        <pt x="487" y="213" on="1"/>
        <pt x="487" y="114" on="0"/>
        <pt x="358" y="-10" on="0"/>
      </contour>
      <contour>
        <pt x="595" y="700" on="1"/>
        <pt x="595" y="572" on="1"/>
        <pt x="218" y="572" on="1"/>
        <pt x="218" y="700" on="1"/>
      </contour>
      <contour>
        <pt x="549" y="870" on="1"/>
        <pt x="357" y="767" on="1"/>
        <pt x="315" y="832" on="1"/>
        <pt x="478" y="966" on="1"/>
      </contour>
    </TTGlyph>
    <TTGlyph name="Jcircumflex" xMin="44" yMin="-10" xMax="595" yMax="920">
      <contour>
        <pt x="259" y="-10" on="1"/>
        <pt x="185" y="-10" on="0"/>
        <pt x="74" y="58" on="0"/>
        <pt x="44" y="116" on="1"/>
        <pt x="129" y="205" on="1"/>
        <pt x="163" y="157" on="0"/>
        <pt x="216" y="123" on="0"/>
        <pt x="248" y="123" on="1"/>
        <pt x="292" y="123" on="0"/>
        <pt x="346" y="182" on="0"/>
        <pt x="346" y="229" on="1"/>
        <pt x="346" y="700" on="1"/>
        <pt x="487" y="700" on="1"/>
        <pt x="487" y="213" on="1"/>
        <pt x="487" y="114" on="0"/>
        <pt x="358" y="-10" on="0"/>
      </contour>
      <contour>
        <pt x="595" y="700" on="1"/>
        <pt x="595" y="572" on="1"/>
        <pt x="218" y="572" on="1"/>
        <pt x="218" y="700" on="1"/>
      </contour>
      <contour>
        <pt x="536" y="758" on="1"/>
        <pt x="396" y="836" on="1"/>
        <pt x="426" y="836" on="1"/>
        <pt x="286" y="758" on="1"/>
        <pt x="239" y="804" on="1"/>
        <pt x="370" y="920" on="1"/>
        <pt x="452" y="920" on="1"/>
        <pt x="583" y="804" on="1"/>
      </contour>
    </TTGlyph>
    <TTGlyph name="Jcircumflex.ss01" xMin="40" yMin="-10" xMax="585" yMax="903">
      <contour>
        <pt x="254" y="-10" on="1"/>
        <pt x="179" y="-10" on="0"/>
        <pt x="68" y="58" on="0"/>
        <pt x="40" y="112" on="1"/>
        <pt x="127" y="201" on="1"/>
        <pt x="161" y="154" on="0"/>
        <pt x="213" y="121" on="0"/>
        <pt x="246" y="121" on="1"/>
        <pt x="290" y="121" on="0"/>
        <pt x="346" y="180" on="0"/>
        <pt x="346" y="227" on="1"/>
        <pt x="346" y="700" on="1"/>
        <pt x="487" y="700" on="1"/>
        <pt x="487" y="213" on="1"/>
        <pt x="487" y="114" on="0"/>
        <pt x="358" y="-10" on="0"/>
      </contour>
      <contour>
        <pt x="538" y="741" on="1"/>
        <pt x="398" y="820" on="1"/>
        <pt x="428" y="820" on="1"/>
        <pt x="288" y="741" on="1"/>
        <pt x="241" y="787" on="1"/>
        <pt x="372" y="903" on="1"/>
        <pt x="454" y="903" on="1"/>
        <pt x="585" y="787" on="1"/>
      </contour>
    </TTGlyph>
    <TTGlyph name="K" xMin="92" yMin="0" xMax="719" yMax="700">
      <contour>
        <pt x="92" y="0" on="1"/>
        <pt x="92" y="700" on="1"/>
        <pt x="236" y="700" on="1"/>
        <pt x="236" y="0" on="1"/>
      </contour>
      <contour>
        <pt x="202" y="208" on="1"/>
        <pt x="174" y="342" on="1"/>
        <pt x="529" y="700" on="1"/>
        <pt x="706" y="700" on="1"/>
      </contour>
      <contour>
        <pt x="548" y="0" on="1"/>
        <pt x="284" y="349" on="1"/>
        <pt x="384" y="435" on="1"/>
        <pt x="719" y="0" on="1"/>
      </contour>
    </TTGlyph>
    <TTGlyph name="L" xMin="92" yMin="0" xMax="555" yMax="700">
      <contour>
        <pt x="182" y="131" on="1"/>
        <pt x="555" y="131" on="1"/>
        <pt x="555" y="0" on="1"/>
        <pt x="92" y="0" on="1"/>
        <pt x="92" y="700" on="1"/>
        <pt x="236" y="700" on="1"/>
        <pt x="236" y="78" on="1"/>
      </contour>
    </TTGlyph>
    <TTGlyph name="Lacute" xMin="65" yMin="0" xMax="555" yMax="956">
      <contour>
        <pt x="182" y="131" on="1"/>
        <pt x="555" y="131" on="1"/>
        <pt x="555" y="0" on="1"/>
        <pt x="92" y="0" on="1"/>
        <pt x="92" y="700" on="1"/>
        <pt x="236" y="700" on="1"/>
        <pt x="236" y="78" on="1"/>
      </contour>
      <contour>
        <pt x="300" y="860" on="1"/>
        <pt x="108" y="757" on="1"/>
        <pt x="65" y="822" on="1"/>
        <pt x="229" y="956" on="1"/>
      </contour>
    </TTGlyph>
    <TTGlyph name="Lcaron" xMin="92" yMin="0" xMax="589" yMax="724">
      <contour>
        <pt x="182" y="131" on="1"/>
        <pt x="555" y="131" on="1"/>
        <pt x="555" y="0" on="1"/>
        <pt x="92" y="0" on="1"/>
        <pt x="92" y="700" on="1"/>
        <pt x="236" y="700" on="1"/>
        <pt x="236" y="78" on="1"/>
      </contour>
      <contour>
        <pt x="492" y="724" on="1"/>
        <pt x="533" y="724" on="0"/>
        <pt x="589" y="657" on="0"/>
        <pt x="589" y="604" on="1"/>
        <pt x="589" y="541" on="0"/>
        <pt x="504" y="430" on="0"/>
        <pt x="440" y="408" on="1"/>
        <pt x="397" y="460" on="1"/>
        <pt x="435" y="479" on="0"/>
        <pt x="482" y="533" on="0"/>
        <pt x="482" y="553" on="1"/>
        <pt x="482" y="562" on="0"/>
        <pt x="472" y="582" on="0"/>
        <pt x="455" y="597" on="1"/>
        <pt x="434" y="615" on="0"/>
        <pt x="419" y="645" on="0"/>
        <pt x="419" y="663" on="1"/>
        <pt x="419" y="691" on="0"/>
        <pt x="460" y="724" on="0"/>
      </contour>
    </TTGlyph>
    <TTGlyph name="Ldot" xMin="92" yMin="0" xMax="555" yMax="700">
      <contour>
        <pt x="182" y="131" on="1"/>
        <pt x="555" y="131" on="1"/>
        <pt x="555" y="0" on="1"/>
        <pt x="92" y="0" on="1"/>
        <pt x="92" y="700" on="1"/>
        <pt x="236" y="700" on="1"/>
        <pt x="236" y="78" on="1"/>
      </contour>
      <contour>
        <pt x="515" y="382" on="1"/>
        <pt x="515" y="346" on="0"/>
        <pt x="471" y="299" on="0"/>
        <pt x="436" y="299" on="1"/>
        <pt x="398" y="299" on="0"/>
        <pt x="357" y="342" on="0"/>
        <pt x="357" y="382" on="1"/>
        <pt x="357" y="419" on="0"/>
        <pt x="400" y="466" on="0"/>
        <pt x="436" y="466" on="1"/>
        <pt x="473" y="466" on="0"/>
        <pt x="515" y="422" on="0"/>
      </contour>
    </TTGlyph>
    <TTGlyph name="Lslash" xMin="12" yMin="0" xMax="581" yMax="700">
      <contour>
        <pt x="208" y="131" on="1"/>
        <pt x="581" y="131" on="1"/>
        <pt x="581" y="0" on="1"/>
        <pt x="118" y="0" on="1"/>
        <pt x="118" y="700" on="1"/>
        <pt x="262" y="700" on="1"/>
        <pt x="262" y="78" on="1"/>
      </contour>
      <contour>
        <pt x="52" y="245" on="1"/>
        <pt x="12" y="348" on="1"/>
        <pt x="342" y="494" on="1"/>
        <pt x="384" y="388" on="1"/>
      </contour>
    </TTGlyph>
    <TTGlyph name="M" xMin="92" yMin="0" xMax="780" yMax="700">
      <contour>
        <pt x="92" y="700" on="1"/>
        <pt x="225" y="700" on="1"/>
        <pt x="480" y="285" on="1"/>
        <pt x="395" y="286" on="1"/>
        <pt x="653" y="700" on="1"/>
        <pt x="780" y="700" on="1"/>
        <pt x="780" y="0" on="1"/>
        <pt x="639" y="0" on="1"/>
        <pt x="639" y="247" on="1"/>
        <pt x="639" y="337" on="0"/>
        <pt x="648" y="481" on="0"/>
        <pt x="659" y="552" on="1"/>
        <pt x="676" y="506" on="1"/>
        <pt x="467" y="183" on="1"/>
        <pt x="401" y="183" on="1"/>
        <pt x="198" y="504" on="1"/>
        <pt x="213" y="552" on="1"/>
        <pt x="224" y="485" on="0"/>
        <pt x="233" y="344" on="0"/>
        <pt x="233" y="247" on="1"/>
        <pt x="233" y="0" on="1"/>
        <pt x="92" y="0" on="1"/>
      </contour>
    </TTGlyph>
    <TTGlyph name="N" xMin="89" yMin="0" xMax="706" yMax="700">
      <contour>
        <pt x="564" y="503" on="1"/>
        <pt x="564" y="700" on="1"/>
        <pt x="706" y="700" on="1"/>
        <pt x="706" y="0" on="1"/>
        <pt x="575" y="0" on="1"/>
        <pt x="176" y="531" on="1"/>
        <pt x="210" y="533" on="1"/>
        <pt x="218" y="459" on="0"/>
        <pt x="230" y="319" on="0"/>
        <pt x="230" y="258" on="1"/>
        <pt x="230" y="0" on="1"/>
        <pt x="89" y="0" on="1"/>
        <pt x="89" y="700" on="1"/>
        <pt x="218" y="700" on="1"/>
        <pt x="610" y="170" on="1"/>
        <pt x="584" y="168" on="1"/>
        <pt x="574" y="243" on="0"/>
        <pt x="564" y="397" on="0"/>
      </contour>
    </TTGlyph>
    <TTGlyph name="Nacute" xMin="89" yMin="0" xMax="706" yMax="956">
      <contour>
        <pt x="564" y="503" on="1"/>
        <pt x="564" y="700" on="1"/>
        <pt x="706" y="700" on="1"/>
        <pt x="706" y="0" on="1"/>
        <pt x="575" y="0" on="1"/>
        <pt x="176" y="531" on="1"/>
        <pt x="210" y="533" on="1"/>
        <pt x="218" y="459" on="0"/>
        <pt x="230" y="319" on="0"/>
        <pt x="230" y="258" on="1"/>
        <pt x="230" y="0" on="1"/>
        <pt x="89" y="0" on="1"/>
        <pt x="89" y="700" on="1"/>
        <pt x="218" y="700" on="1"/>
        <pt x="610" y="170" on="1"/>
        <pt x="584" y="168" on="1"/>
        <pt x="574" y="243" on="0"/>
        <pt x="564" y="397" on="0"/>
      </contour>
      <contour>
        <pt x="550" y="860" on="1"/>
        <pt x="358" y="757" on="1"/>
        <pt x="315" y="822" on="1"/>
        <pt x="479" y="956" on="1"/>
      </contour>
    </TTGlyph>
    <TTGlyph name="Ncaron" xMin="89" yMin="0" xMax="706" yMax="926">
      <contour>
        <pt x="564" y="503" on="1"/>
        <pt x="564" y="700" on="1"/>
        <pt x="706" y="700" on="1"/>
        <pt x="706" y="0" on="1"/>
        <pt x="575" y="0" on="1"/>
        <pt x="176" y="531" on="1"/>
        <pt x="210" y="533" on="1"/>
        <pt x="218" y="459" on="0"/>
        <pt x="230" y="319" on="0"/>
        <pt x="230" y="258" on="1"/>
        <pt x="230" y="0" on="1"/>
        <pt x="89" y="0" on="1"/>
        <pt x="89" y="700" on="1"/>
        <pt x="218" y="700" on="1"/>
        <pt x="610" y="170" on="1"/>
        <pt x="584" y="168" on="1"/>
        <pt x="574" y="243" on="0"/>
        <pt x="564" y="397" on="0"/>
      </contour>
      <contour>
        <pt x="517" y="926" on="1"/>
        <pt x="374" y="845" on="1"/>
        <pt x="404" y="845" on="1"/>
        <pt x="261" y="926" on="1"/>
        <pt x="211" y="883" on="1"/>
        <pt x="343" y="761" on="1"/>
        <pt x="435" y="761" on="1"/>
        <pt x="567" y="883" on="1"/>
      </contour>
    </TTGlyph>
    <TTGlyph name="Ntilde" xMin="89" yMin="0" xMax="706" yMax="931">
      <contour>
        <pt x="564" y="503" on="1"/>
        <pt x="564" y="700" on="1"/>
        <pt x="706" y="700" on="1"/>
        <pt x="706" y="0" on="1"/>
        <pt x="575" y="0" on="1"/>
        <pt x="176" y="531" on="1"/>
        <pt x="210" y="533" on="1"/>
        <pt x="218" y="459" on="0"/>
        <pt x="230" y="319" on="0"/>
        <pt x="230" y="258" on="1"/>
        <pt x="230" y="0" on="1"/>
        <pt x="89" y="0" on="1"/>
        <pt x="89" y="700" on="1"/>
        <pt x="218" y="700" on="1"/>
        <pt x="610" y="170" on="1"/>
        <pt x="584" y="168" on="1"/>
        <pt x="574" y="243" on="0"/>
        <pt x="564" y="397" on="0"/>
      </contour>
      <contour>
        <pt x="305" y="801" on="1"/>
        <pt x="214" y="801" on="1"/>
        <pt x="214" y="861" on="0"/>
        <pt x="277" y="931" on="0"/>
        <pt x="330" y="931" on="1"/>
        <pt x="345" y="931" on="0"/>
        <pt x="379" y="922" on="0"/>
        <pt x="411" y="908" on="1"/>
        <pt x="435" y="897" on="0"/>
        <pt x="455" y="891" on="0"/>
        <pt x="463" y="891" on="1"/>
        <pt x="476" y="891" on="0"/>
        <pt x="489" y="913" on="0"/>
        <pt x="488" y="931" on="1"/>
        <pt x="577" y="931" on="1"/>
        <pt x="577" y="875" on="0"/>
        <pt x="521" y="800" on="0"/>
        <pt x="475" y="800" on="1"/>
        <pt x="458" y="800" on="0"/>
        <pt x="419" y="810" on="0"/>
        <pt x="382" y="824" on="1"/>
        <pt x="359" y="833" on="0"/>
        <pt x="338" y="840" on="0"/>
        <pt x="332" y="840" on="1"/>
        <pt x="320" y="840" on="0"/>
        <pt x="305" y="819" on="0"/>
      </contour>
    </TTGlyph>
    <TTGlyph name="O" xMin="45" yMin="-10" xMax="754" yMax="713">
      <contour>
        <pt x="400" y="713" on="1"/>
        <pt x="553" y="713" on="0"/>
        <pt x="754" y="507" on="0"/>
        <pt x="754" y="352" on="1"/>
        <pt x="754" y="196" on="0"/>
        <pt x="553" y="-10" on="0"/>
        <pt x="400" y="-10" on="1"/>
        <pt x="246" y="-10" on="0"/>
        <pt x="45" y="195" on="0"/>
        <pt x="45" y="352" on="1"/>
        <pt x="45" y="508" on="0"/>
        <pt x="246" y="713" on="0"/>
      </contour>
      <contour>
        <pt x="400" y="127" on="1"/>
        <pt x="490" y="127" on="0"/>
        <pt x="607" y="254" on="0"/>
        <pt x="607" y="352" on="1"/>
        <pt x="607" y="449" on="0"/>
        <pt x="490" y="577" on="0"/>
        <pt x="400" y="577" on="1"/>
        <pt x="309" y="577" on="0"/>
        <pt x="192" y="450" on="0"/>
        <pt x="192" y="352" on="1"/>
        <pt x="192" y="254" on="0"/>
        <pt x="309" y="127" on="0"/>
      </contour>
    </TTGlyph>
    <TTGlyph name="OE" xMin="45" yMin="0" xMax="991" yMax="700">
      <contour>
        <pt x="45" y="350" on="1"/>
        <pt x="45" y="506" on="0"/>
        <pt x="236" y="700" on="0"/>
        <pt x="395" y="700" on="1"/>
        <pt x="991" y="700" on="1"/>
        <pt x="991" y="572" on="1"/>
        <pt x="649" y="572" on="1"/>
        <pt x="658" y="590" on="1"/>
        <pt x="658" y="412" on="1"/>
        <pt x="649" y="421" on="1"/>
        <pt x="936" y="421" on="1"/>
        <pt x="936" y="297" on="1"/>
        <pt x="652" y="297" on="1"/>
        <pt x="658" y="306" on="1"/>
        <pt x="658" y="121" on="1"/>
        <pt x="651" y="128" on="1"/>
        <pt x="991" y="128" on="1"/>
        <pt x="991" y="0" on="1"/>
        <pt x="375" y="0" on="1"/>
        <pt x="224" y="0" on="0"/>
        <pt x="45" y="193" on="0"/>
      </contour>
      <contour>
        <pt x="551" y="131" on="1"/>
        <pt x="517" y="84" on="1"/>
        <pt x="517" y="614" on="1"/>
        <pt x="551" y="569" on="1"/>
        <pt x="401" y="569" on="1"/>
        <pt x="301" y="569" on="0"/>
        <pt x="191" y="452" on="0"/>
        <pt x="191" y="350" on="1"/>
        <pt x="191" y="247" on="0"/>
        <pt x="294" y="131" on="0"/>
        <pt x="388" y="131" on="1"/>
      </contour>
    </TTGlyph>
    <TTGlyph name="Oacute" xMin="45" yMin="-10" xMax="754" yMax="956">
      <contour>
        <pt x="400" y="713" on="1"/>
        <pt x="553" y="713" on="0"/>
        <pt x="754" y="507" on="0"/>
        <pt x="754" y="352" on="1"/>
        <pt x="754" y="196" on="0"/>
        <pt x="553" y="-10" on="0"/>
        <pt x="400" y="-10" on="1"/>
        <pt x="246" y="-10" on="0"/>
        <pt x="45" y="195" on="0"/>
        <pt x="45" y="352" on="1"/>
        <pt x="45" y="508" on="0"/>
        <pt x="246" y="713" on="0"/>
      </contour>
      <contour>
        <pt x="400" y="127" on="1"/>
        <pt x="490" y="127" on="0"/>
        <pt x="607" y="254" on="0"/>
        <pt x="607" y="352" on="1"/>
        <pt x="607" y="449" on="0"/>
        <pt x="490" y="577" on="0"/>
        <pt x="400" y="577" on="1"/>
        <pt x="309" y="577" on="0"/>
        <pt x="192" y="450" on="0"/>
        <pt x="192" y="352" on="1"/>
        <pt x="192" y="254" on="0"/>
        <pt x="309" y="127" on="0"/>
      </contour>
      <contour>
        <pt x="553" y="860" on="1"/>
        <pt x="361" y="757" on="1"/>
        <pt x="319" y="822" on="1"/>
        <pt x="482" y="956" on="1"/>
      </contour>
    </TTGlyph>
    <TTGlyph name="Obreve" xMin="45" yMin="-10" xMax="754" yMax="927">
      <contour>
        <pt x="400" y="713" on="1"/>
        <pt x="553" y="713" on="0"/>
        <pt x="754" y="507" on="0"/>
        <pt x="754" y="352" on="1"/>
        <pt x="754" y="196" on="0"/>
        <pt x="553" y="-10" on="0"/>
        <pt x="400" y="-10" on="1"/>
        <pt x="246" y="-10" on="0"/>
        <pt x="45" y="195" on="0"/>
        <pt x="45" y="352" on="1"/>
        <pt x="45" y="508" on="0"/>
        <pt x="246" y="713" on="0"/>
      </contour>
      <contour>
        <pt x="400" y="127" on="1"/>
        <pt x="490" y="127" on="0"/>
        <pt x="607" y="254" on="0"/>
        <pt x="607" y="352" on="1"/>
        <pt x="607" y="449" on="0"/>
        <pt x="490" y="577" on="0"/>
        <pt x="400" y="577" on="1"/>
        <pt x="309" y="577" on="0"/>
        <pt x="192" y="450" on="0"/>
        <pt x="192" y="352" on="1"/>
        <pt x="192" y="254" on="0"/>
        <pt x="309" y="127" on="0"/>
      </contour>
      <contour>
        <pt x="394" y="757" on="1"/>
        <pt x="329" y="757" on="0"/>
        <pt x="237" y="842" on="0"/>
        <pt x="222" y="915" on="1"/>
        <pt x="313" y="927" on="1"/>
        <pt x="325" y="892" on="0"/>
        <pt x="369" y="852" on="0"/>
        <pt x="394" y="852" on="1"/>
        <pt x="419" y="852" on="0"/>
        <pt x="464" y="892" on="0"/>
        <pt x="476" y="927" on="1"/>
        <pt x="566" y="915" on="1"/>
        <pt x="552" y="842" on="0"/>
        <pt x="459" y="757" on="0"/>
      </contour>
    </TTGlyph>
    <TTGlyph name="Ocircumflex" xMin="45" yMin="-10" xMax="754" yMax="920">
      <contour>
        <pt x="400" y="713" on="1"/>
        <pt x="553" y="713" on="0"/>
        <pt x="754" y="507" on="0"/>
        <pt x="754" y="352" on="1"/>
        <pt x="754" y="196" on="0"/>
        <pt x="553" y="-10" on="0"/>
        <pt x="400" y="-10" on="1"/>
        <pt x="246" y="-10" on="0"/>
        <pt x="45" y="195" on="0"/>
        <pt x="45" y="352" on="1"/>
        <pt x="45" y="508" on="0"/>
        <pt x="246" y="713" on="0"/>
      </contour>
      <contour>
        <pt x="400" y="127" on="1"/>
        <pt x="490" y="127" on="0"/>
        <pt x="607" y="254" on="0"/>
        <pt x="607" y="352" on="1"/>
        <pt x="607" y="449" on="0"/>
        <pt x="490" y="577" on="0"/>
        <pt x="400" y="577" on="1"/>
        <pt x="309" y="577" on="0"/>
        <pt x="192" y="450" on="0"/>
        <pt x="192" y="352" on="1"/>
        <pt x="192" y="254" on="0"/>
        <pt x="309" y="127" on="0"/>
      </contour>
      <contour>
        <pt x="521" y="758" on="1"/>
        <pt x="382" y="836" on="1"/>
        <pt x="411" y="836" on="1"/>
        <pt x="271" y="758" on="1"/>
        <pt x="224" y="804" on="1"/>
        <pt x="355" y="920" on="1"/>
        <pt x="438" y="920" on="1"/>
        <pt x="569" y="804" on="1"/>
      </contour>
    </TTGlyph>
    <TTGlyph name="Odieresis" xMin="45" yMin="-10" xMax="754" yMax="909">
      <contour>
        <pt x="400" y="713" on="1"/>
        <pt x="553" y="713" on="0"/>
        <pt x="754" y="507" on="0"/>
        <pt x="754" y="352" on="1"/>
        <pt x="754" y="196" on="0"/>
        <pt x="553" y="-10" on="0"/>
        <pt x="400" y="-10" on="1"/>
        <pt x="246" y="-10" on="0"/>
        <pt x="45" y="195" on="0"/>
        <pt x="45" y="352" on="1"/>
        <pt x="45" y="508" on="0"/>
        <pt x="246" y="713" on="0"/>
      </contour>
      <contour>
        <pt x="400" y="127" on="1"/>
        <pt x="490" y="127" on="0"/>
        <pt x="607" y="254" on="0"/>
        <pt x="607" y="352" on="1"/>
        <pt x="607" y="449" on="0"/>
        <pt x="490" y="577" on="0"/>
        <pt x="400" y="577" on="1"/>
        <pt x="309" y="577" on="0"/>
        <pt x="192" y="450" on="0"/>
        <pt x="192" y="352" on="1"/>
        <pt x="192" y="254" on="0"/>
        <pt x="309" y="127" on="0"/>
      </contour>
      <contour>
        <pt x="363" y="833" on="1"/>
        <pt x="363" y="799" on="0"/>
        <pt x="320" y="756" on="0"/>
        <pt x="284" y="756" on="1"/>
        <pt x="246" y="756" on="0"/>
        <pt x="204" y="796" on="0"/>
        <pt x="204" y="833" on="1"/>
        <pt x="204" y="867" on="0"/>
        <pt x="247" y="909" on="0"/>
        <pt x="284" y="909" on="1"/>
        <pt x="322" y="909" on="0"/>
        <pt x="363" y="870" on="0"/>
      </contour>
      <contour>
        <pt x="591" y="833" on="1"/>
        <pt x="591" y="799" on="0"/>
        <pt x="548" y="756" on="0"/>
        <pt x="512" y="756" on="1"/>
        <pt x="474" y="756" on="0"/>
        <pt x="432" y="796" on="0"/>
        <pt x="432" y="833" on="1"/>
        <pt x="432" y="867" on="0"/>
        <pt x="475" y="909" on="0"/>
        <pt x="512" y="909" on="1"/>
        <pt x="550" y="909" on="0"/>
        <pt x="591" y="870" on="0"/>
      </contour>
    </TTGlyph>
    <TTGlyph name="Ograve" xMin="45" yMin="-10" xMax="754" yMax="959">
      <contour>
        <pt x="400" y="713" on="1"/>
        <pt x="553" y="713" on="0"/>
        <pt x="754" y="507" on="0"/>
        <pt x="754" y="352" on="1"/>
        <pt x="754" y="196" on="0"/>
        <pt x="553" y="-10" on="0"/>
        <pt x="400" y="-10" on="1"/>
        <pt x="246" y="-10" on="0"/>
        <pt x="45" y="195" on="0"/>
        <pt x="45" y="352" on="1"/>
        <pt x="45" y="508" on="0"/>
        <pt x="246" y="713" on="0"/>
      </contour>
      <contour>
        <pt x="400" y="127" on="1"/>
        <pt x="490" y="127" on="0"/>
        <pt x="607" y="254" on="0"/>
        <pt x="607" y="352" on="1"/>
        <pt x="607" y="449" on="0"/>
        <pt x="490" y="577" on="0"/>
        <pt x="400" y="577" on="1"/>
        <pt x="309" y="577" on="0"/>
        <pt x="192" y="450" on="0"/>
        <pt x="192" y="352" on="1"/>
        <pt x="192" y="254" on="0"/>
        <pt x="309" y="127" on="0"/>
      </contour>
      <contour>
        <pt x="479" y="824" on="1"/>
        <pt x="437" y="759" on="1"/>
        <pt x="245" y="863" on="1"/>
        <pt x="316" y="959" on="1"/>
      </contour>
    </TTGlyph>
    <TTGlyph name="Ohorn" xMin="45" yMin="-10" xMax="754" yMax="823">
      <contour>
        <pt x="400" y="713" on="1"/>
        <pt x="553" y="713" on="0"/>
        <pt x="754" y="507" on="0"/>
        <pt x="754" y="352" on="1"/>
        <pt x="754" y="196" on="0"/>
        <pt x="553" y="-10" on="0"/>
        <pt x="400" y="-10" on="1"/>
        <pt x="246" y="-10" on="0"/>
        <pt x="45" y="195" on="0"/>
        <pt x="45" y="352" on="1"/>
        <pt x="45" y="508" on="0"/>
        <pt x="246" y="713" on="0"/>
      </contour>
      <contour>
        <pt x="400" y="127" on="1"/>
        <pt x="490" y="127" on="0"/>
        <pt x="607" y="254" on="0"/>
        <pt x="607" y="352" on="1"/>
        <pt x="607" y="449" on="0"/>
        <pt x="490" y="577" on="0"/>
        <pt x="400" y="577" on="1"/>
        <pt x="309" y="577" on="0"/>
        <pt x="192" y="450" on="0"/>
        <pt x="192" y="352" on="1"/>
        <pt x="192" y="254" on="0"/>
        <pt x="309" y="127" on="0"/>
      </contour>
      <contour>
        <pt x="476" y="607" on="1"/>
        <pt x="476" y="702" on="1"/>
        <pt x="521" y="702" on="0"/>
        <pt x="565" y="763" on="0"/>
        <pt x="565" y="823" on="1"/>
        <pt x="677" y="823" on="1"/>
        <pt x="677" y="726" on="0"/>
        <pt x="571" y="607" on="0"/>
      </contour>
    </TTGlyph>
    <TTGlyph name="Ohungarumlaut" xMin="45" yMin="-10" xMax="754" yMax="948">
      <contour>
        <pt x="400" y="713" on="1"/>
        <pt x="553" y="713" on="0"/>
        <pt x="754" y="507" on="0"/>
        <pt x="754" y="352" on="1"/>
        <pt x="754" y="196" on="0"/>
        <pt x="553" y="-10" on="0"/>
        <pt x="400" y="-10" on="1"/>
        <pt x="246" y="-10" on="0"/>
        <pt x="45" y="195" on="0"/>
        <pt x="45" y="352" on="1"/>
        <pt x="45" y="508" on="0"/>
        <pt x="246" y="713" on="0"/>
      </contour>
      <contour>
        <pt x="400" y="127" on="1"/>
        <pt x="490" y="127" on="0"/>
        <pt x="607" y="254" on="0"/>
        <pt x="607" y="352" on="1"/>
        <pt x="607" y="449" on="0"/>
        <pt x="490" y="577" on="0"/>
        <pt x="400" y="577" on="1"/>
        <pt x="309" y="577" on="0"/>
        <pt x="192" y="450" on="0"/>
        <pt x="192" y="352" on="1"/>
        <pt x="192" y="254" on="0"/>
        <pt x="309" y="127" on="0"/>
      </contour>
      <contour>
        <pt x="452" y="853" on="1"/>
        <pt x="260" y="749" on="1"/>
        <pt x="218" y="813" on="1"/>
        <pt x="382" y="948" on="1"/>
      </contour>
      <contour>
        <pt x="679" y="853" on="1"/>
        <pt x="487" y="749" on="1"/>
        <pt x="445" y="813" on="1"/>
        <pt x="609" y="948" on="1"/>
      </contour>
    </TTGlyph>
    <TTGlyph name="Omacron" xMin="45" yMin="-10" xMax="754" yMax="864">
      <contour>
        <pt x="400" y="713" on="1"/>
        <pt x="553" y="713" on="0"/>
        <pt x="754" y="507" on="0"/>
        <pt x="754" y="352" on="1"/>
        <pt x="754" y="196" on="0"/>
        <pt x="553" y="-10" on="0"/>
        <pt x="400" y="-10" on="1"/>
        <pt x="246" y="-10" on="0"/>
        <pt x="45" y="195" on="0"/>
        <pt x="45" y="352" on="1"/>
        <pt x="45" y="508" on="0"/>
        <pt x="246" y="713" on="0"/>
      </contour>
      <contour>
        <pt x="400" y="127" on="1"/>
        <pt x="490" y="127" on="0"/>
        <pt x="607" y="254" on="0"/>
        <pt x="607" y="352" on="1"/>
        <pt x="607" y="449" on="0"/>
        <pt x="490" y="577" on="0"/>
        <pt x="400" y="577" on="1"/>
        <pt x="309" y="577" on="0"/>
        <pt x="192" y="450" on="0"/>
        <pt x="192" y="352" on="1"/>
        <pt x="192" y="254" on="0"/>
        <pt x="309" y="127" on="0"/>
      </contour>
      <contour>
        <pt x="571" y="774" on="1"/>
        <pt x="224" y="774" on="1"/>
        <pt x="224" y="864" on="1"/>
        <pt x="571" y="864" on="1"/>
      </contour>
    </TTGlyph>
    <TTGlyph name="Oslash" xMin="46" yMin="-33" xMax="755" yMax="741">
      <contour>
        <pt x="132" y="-33" on="1"/>
        <pt x="69" y="20" on="1"/>
        <pt x="658" y="741" on="1"/>
        <pt x="726" y="694" on="1"/>
      </contour>
      <contour>
        <pt x="400" y="713" on="1"/>
        <pt x="554" y="713" on="0"/>
        <pt x="755" y="507" on="0"/>
        <pt x="755" y="352" on="1"/>
        <pt x="755" y="196" on="0"/>
        <pt x="554" y="-10" on="0"/>
        <pt x="400" y="-10" on="1"/>
        <pt x="247" y="-10" on="0"/>
        <pt x="46" y="195" on="0"/>
        <pt x="46" y="352" on="1"/>
        <pt x="46" y="508" on="0"/>
        <pt x="247" y="713" on="0"/>
      </contour>
      <contour>
        <pt x="400" y="127" on="1"/>
        <pt x="490" y="127" on="0"/>
        <pt x="608" y="254" on="0"/>
        <pt x="608" y="352" on="1"/>
        <pt x="608" y="449" on="0"/>
        <pt x="490" y="577" on="0"/>
        <pt x="400" y="577" on="1"/>
        <pt x="310" y="577" on="0"/>
        <pt x="193" y="450" on="0"/>
        <pt x="193" y="352" on="1"/>
        <pt x="193" y="254" on="0"/>
        <pt x="310" y="127" on="0"/>
      </contour>
    </TTGlyph>
    <TTGlyph name="Oslashacute" xMin="46" yMin="-33" xMax="755" yMax="956">
      <contour>
        <pt x="132" y="-33" on="1"/>
        <pt x="69" y="20" on="1"/>
        <pt x="658" y="741" on="1"/>
        <pt x="726" y="694" on="1"/>
      </contour>
      <contour>
        <pt x="400" y="713" on="1"/>
        <pt x="554" y="713" on="0"/>
        <pt x="755" y="507" on="0"/>
        <pt x="755" y="352" on="1"/>
        <pt x="755" y="196" on="0"/>
        <pt x="554" y="-10" on="0"/>
        <pt x="400" y="-10" on="1"/>
        <pt x="247" y="-10" on="0"/>
        <pt x="46" y="195" on="0"/>
        <pt x="46" y="352" on="1"/>
        <pt x="46" y="508" on="0"/>
        <pt x="247" y="713" on="0"/>
      </contour>
      <contour>
        <pt x="400" y="127" on="1"/>
        <pt x="490" y="127" on="0"/>
        <pt x="608" y="254" on="0"/>
        <pt x="608" y="352" on="1"/>
        <pt x="608" y="449" on="0"/>
        <pt x="490" y="577" on="0"/>
        <pt x="400" y="577" on="1"/>
        <pt x="310" y="577" on="0"/>
        <pt x="193" y="450" on="0"/>
        <pt x="193" y="352" on="1"/>
        <pt x="193" y="254" on="0"/>
        <pt x="310" y="127" on="0"/>
      </contour>
      <contour>
        <pt x="541" y="860" on="1"/>
        <pt x="349" y="757" on="1"/>
        <pt x="307" y="822" on="1"/>
        <pt x="470" y="956" on="1"/>
      </contour>
    </TTGlyph>
    <TTGlyph name="Otilde" xMin="45" yMin="-10" xMax="754" yMax="931">
      <contour>
        <pt x="400" y="713" on="1"/>
        <pt x="553" y="713" on="0"/>
        <pt x="754" y="507" on="0"/>
        <pt x="754" y="352" on="1"/>
        <pt x="754" y="196" on="0"/>
        <pt x="553" y="-10" on="0"/>
        <pt x="400" y="-10" on="1"/>
        <pt x="246" y="-10" on="0"/>
        <pt x="45" y="195" on="0"/>
        <pt x="45" y="352" on="1"/>
        <pt x="45" y="508" on="0"/>
        <pt x="246" y="713" on="0"/>
      </contour>
      <contour>
        <pt x="400" y="127" on="1"/>
        <pt x="490" y="127" on="0"/>
        <pt x="607" y="254" on="0"/>
        <pt x="607" y="352" on="1"/>
        <pt x="607" y="449" on="0"/>
        <pt x="490" y="577" on="0"/>
        <pt x="400" y="577" on="1"/>
        <pt x="309" y="577" on="0"/>
        <pt x="192" y="450" on="0"/>
        <pt x="192" y="352" on="1"/>
        <pt x="192" y="254" on="0"/>
        <pt x="309" y="127" on="0"/>
      </contour>
      <contour>
        <pt x="306" y="801" on="1"/>
        <pt x="216" y="801" on="1"/>
        <pt x="216" y="861" on="0"/>
        <pt x="278" y="931" on="0"/>
        <pt x="332" y="931" on="1"/>
        <pt x="347" y="931" on="0"/>
        <pt x="381" y="922" on="0"/>
        <pt x="413" y="908" on="1"/>
        <pt x="436" y="897" on="0"/>
        <pt x="457" y="891" on="0"/>
        <pt x="464" y="891" on="1"/>
        <pt x="478" y="891" on="0"/>
        <pt x="490" y="913" on="0"/>
        <pt x="490" y="931" on="1"/>
        <pt x="579" y="931" on="1"/>
        <pt x="579" y="875" on="0"/>
        <pt x="522" y="800" on="0"/>
        <pt x="477" y="800" on="1"/>
        <pt x="460" y="800" on="0"/>
        <pt x="421" y="810" on="0"/>
        <pt x="384" y="824" on="1"/>
        <pt x="360" y="833" on="0"/>
        <pt x="340" y="840" on="0"/>
        <pt x="333" y="840" on="1"/>
        <pt x="321" y="840" on="0"/>
        <pt x="306" y="819" on="0"/>
      </contour>
    </TTGlyph>
    <TTGlyph name="P" xMin="89" yMin="0" xMax="604" yMax="700">
      <contour>
        <pt x="89" y="700" on="1"/>
        <pt x="384" y="700" on="1"/>
        <pt x="476" y="700" on="0"/>
        <pt x="604" y="572" on="0"/>
        <pt x="604" y="477" on="1"/>
        <pt x="604" y="380" on="0"/>
        <pt x="476" y="248" on="0"/>
        <pt x="384" y="248" on="1"/>
        <pt x="215" y="248" on="1"/>
        <pt x="233" y="269" on="1"/>
        <pt x="233" y="0" on="1"/>
        <pt x="89" y="0" on="1"/>
      </contour>
      <contour>
        <pt x="214" y="379" on="1"/>
        <pt x="369" y="379" on="1"/>
        <pt x="405" y="379" on="0"/>
        <pt x="456" y="434" on="0"/>
        <pt x="456" y="475" on="1"/>
        <pt x="456" y="516" on="0"/>
        <pt x="405" y="569" on="0"/>
        <pt x="369" y="569" on="1"/>
        <pt x="214" y="569" on="1"/>
        <pt x="231" y="591" on="1"/>
        <pt x="231" y="358" on="1"/>
      </contour>
    </TTGlyph>
    <TTGlyph name="Q" xMin="45" yMin="-110" xMax="754" yMax="713">
      <contour>
        <pt x="400" y="713" on="1"/>
        <pt x="553" y="713" on="0"/>
        <pt x="754" y="507" on="0"/>
        <pt x="754" y="352" on="1"/>
        <pt x="754" y="196" on="0"/>
        <pt x="553" y="-8" on="0"/>
        <pt x="400" y="-8" on="1"/>
        <pt x="246" y="-8" on="0"/>
        <pt x="45" y="195" on="0"/>
        <pt x="45" y="352" on="1"/>
        <pt x="45" y="508" on="0"/>
        <pt x="246" y="713" on="0"/>
      </contour>
      <contour>
        <pt x="400" y="125" on="1"/>
        <pt x="490" y="125" on="0"/>
        <pt x="608" y="254" on="0"/>
        <pt x="608" y="353" on="1"/>
        <pt x="608" y="450" on="0"/>
        <pt x="490" y="577" on="0"/>
        <pt x="400" y="577" on="1"/>
        <pt x="309" y="577" on="0"/>
        <pt x="192" y="451" on="0"/>
        <pt x="192" y="353" on="1"/>
        <pt x="192" y="254" on="0"/>
        <pt x="309" y="125" on="0"/>
      </contour>
      <contour>
        <pt x="457" y="321" on="1"/>
        <pt x="721" y="-32" on="1"/>
        <pt x="614" y="-110" on="1"/>
        <pt x="348" y="246" on="1"/>
      </contour>
    </TTGlyph>
    <TTGlyph name="R" xMin="89" yMin="-1" xMax="656" yMax="700">
      <contour>
        <pt x="628" y="477" on="1"/>
        <pt x="628" y="383" on="0"/>
        <pt x="494" y="253" on="0"/>
        <pt x="397" y="253" on="1"/>
        <pt x="194" y="253" on="1"/>
        <pt x="194" y="372" on="1"/>
        <pt x="392" y="372" on="1"/>
        <pt x="434" y="372" on="0"/>
        <pt x="484" y="429" on="0"/>
        <pt x="484" y="472" on="1"/>
        <pt x="484" y="518" on="0"/>
        <pt x="423" y="574" on="0"/>
        <pt x="372" y="574" on="1"/>
        <pt x="197" y="574" on="1"/>
        <pt x="228" y="630" on="1"/>
        <pt x="228" y="0" on="1"/>
        <pt x="89" y="0" on="1"/>
        <pt x="89" y="700" on="1"/>
        <pt x="397" y="700" on="1"/>
        <pt x="493" y="700" on="0"/>
        <pt x="628" y="573" on="0"/>
      </contour>
      <contour>
        <pt x="310" y="316" on="1"/>
        <pt x="458" y="341" on="1"/>
        <pt x="656" y="-1" on="1"/>
        <pt x="488" y="0" on="1"/>
      </contour>
    </TTGlyph>
    <TTGlyph name="Racute" xMin="89" yMin="-1" xMax="656" yMax="956">
      <contour>
        <pt x="628" y="477" on="1"/>
        <pt x="628" y="383" on="0"/>
        <pt x="494" y="253" on="0"/>
        <pt x="397" y="253" on="1"/>
        <pt x="194" y="253" on="1"/>
        <pt x="194" y="372" on="1"/>
        <pt x="392" y="372" on="1"/>
        <pt x="434" y="372" on="0"/>
        <pt x="484" y="429" on="0"/>
        <pt x="484" y="472" on="1"/>
        <pt x="484" y="518" on="0"/>
        <pt x="423" y="574" on="0"/>
        <pt x="372" y="574" on="1"/>
        <pt x="197" y="574" on="1"/>
        <pt x="228" y="630" on="1"/>
        <pt x="228" y="0" on="1"/>
        <pt x="89" y="0" on="1"/>
        <pt x="89" y="700" on="1"/>
        <pt x="397" y="700" on="1"/>
        <pt x="493" y="700" on="0"/>
        <pt x="628" y="573" on="0"/>
      </contour>
      <contour>
        <pt x="310" y="316" on="1"/>
        <pt x="458" y="341" on="1"/>
        <pt x="656" y="-1" on="1"/>
        <pt x="488" y="0" on="1"/>
      </contour>
      <contour>
        <pt x="488" y="860" on="1"/>
        <pt x="296" y="757" on="1"/>
        <pt x="253" y="822" on="1"/>
        <pt x="417" y="956" on="1"/>
      </contour>
    </TTGlyph>
    <TTGlyph name="Rcaron" xMin="89" yMin="-1" xMax="656" yMax="926">
      <contour>
        <pt x="628" y="477" on="1"/>
        <pt x="628" y="383" on="0"/>
        <pt x="494" y="253" on="0"/>
        <pt x="397" y="253" on="1"/>
        <pt x="194" y="253" on="1"/>
        <pt x="194" y="372" on="1"/>
        <pt x="392" y="372" on="1"/>
        <pt x="434" y="372" on="0"/>
        <pt x="484" y="429" on="0"/>
        <pt x="484" y="472" on="1"/>
        <pt x="484" y="518" on="0"/>
        <pt x="423" y="574" on="0"/>
        <pt x="372" y="574" on="1"/>
        <pt x="197" y="574" on="1"/>
        <pt x="228" y="630" on="1"/>
        <pt x="228" y="0" on="1"/>
        <pt x="89" y="0" on="1"/>
        <pt x="89" y="700" on="1"/>
        <pt x="397" y="700" on="1"/>
        <pt x="493" y="700" on="0"/>
        <pt x="628" y="573" on="0"/>
      </contour>
      <contour>
        <pt x="310" y="316" on="1"/>
        <pt x="458" y="341" on="1"/>
        <pt x="656" y="-1" on="1"/>
        <pt x="488" y="0" on="1"/>
      </contour>
      <contour>
        <pt x="460" y="926" on="1"/>
        <pt x="317" y="845" on="1"/>
        <pt x="347" y="845" on="1"/>
        <pt x="204" y="926" on="1"/>
        <pt x="154" y="883" on="1"/>
        <pt x="286" y="761" on="1"/>
        <pt x="378" y="761" on="1"/>
        <pt x="510" y="883" on="1"/>
      </contour>
    </TTGlyph>
    <TTGlyph name="S" xMin="33" yMin="-10" xMax="583" yMax="713">
      <contour>
        <pt x="33" y="128" on="1"/>
        <pt x="124" y="231" on="1"/>
        <pt x="173" y="163" on="0"/>
        <pt x="269" y="114" on="0"/>
        <pt x="327" y="114" on="1"/>
        <pt x="374" y="114" on="0"/>
        <pt x="439" y="154" on="0"/>
        <pt x="439" y="188" on="1"/>
        <pt x="439" y="227" on="0"/>
        <pt x="368" y="274" on="0"/>
        <pt x="291" y="289" on="1"/>
        <pt x="178" y="313" on="0"/>
        <pt x="68" y="419" on="0"/>
        <pt x="68" y="507" on="1"/>
        <pt x="68" y="598" on="0"/>
        <pt x="219" y="713" on="0"/>
        <pt x="323" y="713" on="1"/>
        <pt x="416" y="713" on="0"/>
        <pt x="539" y="650" on="0"/>
        <pt x="575" y="592" on="1"/>
        <pt x="482" y="501" on="1"/>
        <pt x="451" y="545" on="0"/>
        <pt x="371" y="589" on="0"/>
        <pt x="324" y="589" on="1"/>
        <pt x="274" y="589" on="0"/>
        <pt x="213" y="548" on="0"/>
        <pt x="213" y="513" on="1"/>
        <pt x="213" y="479" on="0"/>
        <pt x="271" y="436" on="0"/>
        <pt x="344" y="422" on="1"/>
        <pt x="454" y="399" on="0"/>
        <pt x="583" y="298" on="0"/>
        <pt x="583" y="213" on="1"/>
        <pt x="583" y="108" on="0"/>
        <pt x="436" y="-10" on="0"/>
        <pt x="318" y="-10" on="1"/>
        <pt x="221" y="-10" on="0"/>
        <pt x="82" y="61" on="0"/>
      </contour>
    </TTGlyph>
    <TTGlyph name="Sacute" xMin="33" yMin="-10" xMax="583" yMax="956">
      <contour>
        <pt x="33" y="128" on="1"/>
        <pt x="124" y="231" on="1"/>
        <pt x="173" y="163" on="0"/>
        <pt x="269" y="114" on="0"/>
        <pt x="327" y="114" on="1"/>
        <pt x="374" y="114" on="0"/>
        <pt x="439" y="154" on="0"/>
        <pt x="439" y="188" on="1"/>
        <pt x="439" y="227" on="0"/>
        <pt x="368" y="274" on="0"/>
        <pt x="291" y="289" on="1"/>
        <pt x="178" y="313" on="0"/>
        <pt x="68" y="419" on="0"/>
        <pt x="68" y="507" on="1"/>
        <pt x="68" y="598" on="0"/>
        <pt x="219" y="713" on="0"/>
        <pt x="323" y="713" on="1"/>
        <pt x="416" y="713" on="0"/>
        <pt x="539" y="650" on="0"/>
        <pt x="575" y="592" on="1"/>
        <pt x="482" y="501" on="1"/>
        <pt x="451" y="545" on="0"/>
        <pt x="371" y="589" on="0"/>
        <pt x="324" y="589" on="1"/>
        <pt x="274" y="589" on="0"/>
        <pt x="213" y="548" on="0"/>
        <pt x="213" y="513" on="1"/>
        <pt x="213" y="479" on="0"/>
        <pt x="271" y="436" on="0"/>
        <pt x="344" y="422" on="1"/>
        <pt x="454" y="399" on="0"/>
        <pt x="583" y="298" on="0"/>
        <pt x="583" y="213" on="1"/>
        <pt x="583" y="108" on="0"/>
        <pt x="436" y="-10" on="0"/>
        <pt x="318" y="-10" on="1"/>
        <pt x="221" y="-10" on="0"/>
        <pt x="82" y="61" on="0"/>
      </contour>
      <contour>
        <pt x="477" y="860" on="1"/>
        <pt x="285" y="757" on="1"/>
        <pt x="243" y="822" on="1"/>
        <pt x="406" y="956" on="1"/>
      </contour>
    </TTGlyph>
    <TTGlyph name="Scaron" xMin="33" yMin="-10" xMax="583" yMax="926">
      <contour>
        <pt x="33" y="128" on="1"/>
        <pt x="124" y="231" on="1"/>
        <pt x="173" y="163" on="0"/>
        <pt x="269" y="114" on="0"/>
        <pt x="327" y="114" on="1"/>
        <pt x="374" y="114" on="0"/>
        <pt x="439" y="154" on="0"/>
        <pt x="439" y="188" on="1"/>
        <pt x="439" y="227" on="0"/>
        <pt x="368" y="274" on="0"/>
        <pt x="291" y="289" on="1"/>
        <pt x="178" y="313" on="0"/>
        <pt x="68" y="419" on="0"/>
        <pt x="68" y="507" on="1"/>
        <pt x="68" y="598" on="0"/>
        <pt x="219" y="713" on="0"/>
        <pt x="323" y="713" on="1"/>
        <pt x="416" y="713" on="0"/>
        <pt x="539" y="650" on="0"/>
        <pt x="575" y="592" on="1"/>
        <pt x="482" y="501" on="1"/>
        <pt x="451" y="545" on="0"/>
        <pt x="371" y="589" on="0"/>
        <pt x="324" y="589" on="1"/>
        <pt x="274" y="589" on="0"/>
        <pt x="213" y="548" on="0"/>
        <pt x="213" y="513" on="1"/>
        <pt x="213" y="479" on="0"/>
        <pt x="271" y="436" on="0"/>
        <pt x="344" y="422" on="1"/>
        <pt x="454" y="399" on="0"/>
        <pt x="583" y="298" on="0"/>
        <pt x="583" y="213" on="1"/>
        <pt x="583" y="108" on="0"/>
        <pt x="436" y="-10" on="0"/>
        <pt x="318" y="-10" on="1"/>
        <pt x="221" y="-10" on="0"/>
        <pt x="82" y="61" on="0"/>
      </contour>
      <contour>
        <pt x="448" y="926" on="1"/>
        <pt x="305" y="845" on="1"/>
        <pt x="335" y="845" on="1"/>
        <pt x="191" y="926" on="1"/>
        <pt x="142" y="883" on="1"/>
        <pt x="274" y="761" on="1"/>
        <pt x="365" y="761" on="1"/>
        <pt x="497" y="883" on="1"/>
      </contour>
    </TTGlyph>
    <TTGlyph name="Scedilla" xMin="33" yMin="-246" xMax="583" yMax="713">
      <contour>
        <pt x="33" y="128" on="1"/>
        <pt x="124" y="231" on="1"/>
        <pt x="173" y="163" on="0"/>
        <pt x="269" y="114" on="0"/>
        <pt x="327" y="114" on="1"/>
        <pt x="374" y="114" on="0"/>
        <pt x="439" y="154" on="0"/>
        <pt x="439" y="188" on="1"/>
        <pt x="439" y="227" on="0"/>
        <pt x="368" y="274" on="0"/>
        <pt x="291" y="289" on="1"/>
        <pt x="178" y="313" on="0"/>
        <pt x="68" y="419" on="0"/>
        <pt x="68" y="507" on="1"/>
        <pt x="68" y="598" on="0"/>
        <pt x="219" y="713" on="0"/>
        <pt x="323" y="713" on="1"/>
        <pt x="416" y="713" on="0"/>
        <pt x="539" y="650" on="0"/>
        <pt x="575" y="592" on="1"/>
        <pt x="482" y="501" on="1"/>
        <pt x="451" y="545" on="0"/>
        <pt x="371" y="589" on="0"/>
        <pt x="324" y="589" on="1"/>
        <pt x="274" y="589" on="0"/>
        <pt x="213" y="548" on="0"/>
        <pt x="213" y="513" on="1"/>
        <pt x="213" y="479" on="0"/>
        <pt x="271" y="436" on="0"/>
        <pt x="344" y="422" on="1"/>
        <pt x="454" y="399" on="0"/>
        <pt x="583" y="298" on="0"/>
        <pt x="583" y="213" on="1"/>
        <pt x="583" y="108" on="0"/>
        <pt x="436" y="-10" on="0"/>
        <pt x="318" y="-10" on="1"/>
        <pt x="221" y="-10" on="0"/>
        <pt x="82" y="61" on="0"/>
      </contour>
      <contour>
        <pt x="302" y="-95" on="1"/>
        <pt x="235" y="-88" on="1"/>
        <pt x="306" y="23" on="1"/>
        <pt x="378" y="23" on="1"/>
      </contour>
      <contour>
        <pt x="435" y="-140" on="1"/>
        <pt x="435" y="-163" on="0"/>
        <pt x="396" y="-212" on="0"/>
        <pt x="363" y="-227" on="1"/>
        <pt x="337" y="-238" on="0"/>
        <pt x="271" y="-247" on="0"/>
        <pt x="235" y="-246" on="1"/>
        <pt x="227" y="-180" on="1"/>
        <pt x="260" y="-180" on="0"/>
        <pt x="330" y="-153" on="0"/>
        <pt x="330" y="-135" on="1"/>
        <pt x="330" y="-120" on="0"/>
        <pt x="285" y="-100" on="0"/>
        <pt x="251" y="-100" on="1"/>
        <pt x="235" y="-90" on="1"/>
        <pt x="235" y="-88" on="1"/>
        <pt x="309" y="-41" on="1"/>
        <pt x="372" y="-47" on="0"/>
        <pt x="435" y="-100" on="0"/>
      </contour>
    </TTGlyph>
    <TTGlyph name="Scircumflex" xMin="33" yMin="-10" xMax="583" yMax="920">
      <contour>
        <pt x="33" y="128" on="1"/>
        <pt x="124" y="231" on="1"/>
        <pt x="173" y="163" on="0"/>
        <pt x="269" y="114" on="0"/>
        <pt x="327" y="114" on="1"/>
        <pt x="374" y="114" on="0"/>
        <pt x="439" y="154" on="0"/>
        <pt x="439" y="188" on="1"/>
        <pt x="439" y="227" on="0"/>
        <pt x="368" y="274" on="0"/>
        <pt x="291" y="289" on="1"/>
        <pt x="178" y="313" on="0"/>
        <pt x="68" y="419" on="0"/>
        <pt x="68" y="507" on="1"/>
        <pt x="68" y="598" on="0"/>
        <pt x="219" y="713" on="0"/>
        <pt x="323" y="713" on="1"/>
        <pt x="416" y="713" on="0"/>
        <pt x="539" y="650" on="0"/>
        <pt x="575" y="592" on="1"/>
        <pt x="482" y="501" on="1"/>
        <pt x="451" y="545" on="0"/>
        <pt x="371" y="589" on="0"/>
        <pt x="324" y="589" on="1"/>
        <pt x="274" y="589" on="0"/>
        <pt x="213" y="548" on="0"/>
        <pt x="213" y="513" on="1"/>
        <pt x="213" y="479" on="0"/>
        <pt x="271" y="436" on="0"/>
        <pt x="344" y="422" on="1"/>
        <pt x="454" y="399" on="0"/>
        <pt x="583" y="298" on="0"/>
        <pt x="583" y="213" on="1"/>
        <pt x="583" y="108" on="0"/>
        <pt x="436" y="-10" on="0"/>
        <pt x="318" y="-10" on="1"/>
        <pt x="221" y="-10" on="0"/>
        <pt x="82" y="61" on="0"/>
      </contour>
      <contour>
        <pt x="447" y="758" on="1"/>
        <pt x="308" y="836" on="1"/>
        <pt x="337" y="836" on="1"/>
        <pt x="197" y="758" on="1"/>
        <pt x="150" y="804" on="1"/>
        <pt x="281" y="920" on="1"/>
        <pt x="364" y="920" on="1"/>
        <pt x="495" y="804" on="1"/>
      </contour>
    </TTGlyph>
    <TTGlyph name="T" xMin="33" yMin="0" xMax="589" yMax="700">
      <contour>
        <pt x="380" y="0" on="1"/>
        <pt x="236" y="0" on="1"/>
        <pt x="236" y="651" on="1"/>
        <pt x="380" y="651" on="1"/>
      </contour>
      <contour>
        <pt x="589" y="569" on="1"/>
        <pt x="33" y="569" on="1"/>
        <pt x="33" y="700" on="1"/>
        <pt x="589" y="700" on="1"/>
      </contour>
    </TTGlyph>
    <TTGlyph name="Tbar" xMin="33" yMin="0" xMax="589" yMax="700">
      <contour>
        <pt x="380" y="0" on="1"/>
        <pt x="236" y="0" on="1"/>
        <pt x="236" y="651" on="1"/>
        <pt x="380" y="651" on="1"/>
      </contour>
      <contour>
        <pt x="589" y="569" on="1"/>
        <pt x="33" y="569" on="1"/>
        <pt x="33" y="700" on="1"/>
        <pt x="589" y="700" on="1"/>
      </contour>
      <contour>
        <pt x="466" y="295" on="1"/>
        <pt x="165" y="295" on="1"/>
        <pt x="165" y="401" on="1"/>
        <pt x="466" y="401" on="1"/>
      </contour>
    </TTGlyph>
    <TTGlyph name="Tcaron" xMin="33" yMin="0" xMax="589" yMax="926">
      <contour>
        <pt x="380" y="0" on="1"/>
        <pt x="236" y="0" on="1"/>
        <pt x="236" y="651" on="1"/>
        <pt x="380" y="651" on="1"/>
      </contour>
      <contour>
        <pt x="589" y="569" on="1"/>
        <pt x="33" y="569" on="1"/>
        <pt x="33" y="700" on="1"/>
        <pt x="589" y="700" on="1"/>
      </contour>
      <contour>
        <pt x="437" y="926" on="1"/>
        <pt x="293" y="845" on="1"/>
        <pt x="323" y="845" on="1"/>
        <pt x="180" y="926" on="1"/>
        <pt x="131" y="883" on="1"/>
        <pt x="263" y="761" on="1"/>
        <pt x="354" y="761" on="1"/>
        <pt x="486" y="883" on="1"/>
      </contour>
    </TTGlyph>
    <TTGlyph name="Thorn" xMin="89" yMin="0" xMax="604" yMax="700">
      <contour>
        <pt x="89" y="700" on="1"/>
        <pt x="233" y="700" on="1"/>
        <pt x="233" y="0" on="1"/>
        <pt x="89" y="0" on="1"/>
      </contour>
      <contour>
        <pt x="199" y="130" on="1"/>
        <pt x="198" y="261" on="1"/>
        <pt x="369" y="261" on="1"/>
        <pt x="405" y="261" on="0"/>
        <pt x="456" y="316" on="0"/>
        <pt x="456" y="357" on="1"/>
        <pt x="456" y="398" on="0"/>
        <pt x="405" y="451" on="0"/>
        <pt x="369" y="451" on="1"/>
        <pt x="164" y="451" on="1"/>
        <pt x="145" y="582" on="1"/>
        <pt x="384" y="582" on="1"/>
        <pt x="476" y="582" on="0"/>
        <pt x="604" y="454" on="0"/>
        <pt x="604" y="359" on="1"/>
        <pt x="604" y="262" on="0"/>
        <pt x="476" y="130" on="0"/>
        <pt x="384" y="130" on="1"/>
      </contour>
    </TTGlyph>
    <TTGlyph name="U" xMin="85" yMin="-6" xMax="669" yMax="701">
      <contour>
        <pt x="530" y="701" on="1"/>
        <pt x="669" y="701" on="1"/>
        <pt x="669" y="269" on="1"/>
        <pt x="669" y="150" on="0"/>
        <pt x="504" y="-6" on="0"/>
        <pt x="377" y="-6" on="1"/>
        <pt x="251" y="-6" on="0"/>
        <pt x="85" y="150" on="0"/>
        <pt x="85" y="269" on="1"/>
        <pt x="85" y="701" on="1"/>
        <pt x="230" y="701" on="1"/>
        <pt x="230" y="278" on="1"/>
        <pt x="230" y="213" on="0"/>
        <pt x="316" y="125" on="0"/>
        <pt x="377" y="125" on="1"/>
        <pt x="442" y="125" on="0"/>
        <pt x="530" y="213" on="0"/>
        <pt x="530" y="278" on="1"/>
      </contour>
    </TTGlyph>
    <TTGlyph name="Uacute" xMin="85" yMin="-6" xMax="669" yMax="956">
      <contour>
        <pt x="530" y="701" on="1"/>
        <pt x="669" y="701" on="1"/>
        <pt x="669" y="269" on="1"/>
        <pt x="669" y="150" on="0"/>
        <pt x="504" y="-6" on="0"/>
        <pt x="377" y="-6" on="1"/>
        <pt x="251" y="-6" on="0"/>
        <pt x="85" y="150" on="0"/>
        <pt x="85" y="269" on="1"/>
        <pt x="85" y="701" on="1"/>
        <pt x="230" y="701" on="1"/>
        <pt x="230" y="278" on="1"/>
        <pt x="230" y="213" on="0"/>
        <pt x="316" y="125" on="0"/>
        <pt x="377" y="125" on="1"/>
        <pt x="442" y="125" on="0"/>
        <pt x="530" y="213" on="0"/>
        <pt x="530" y="278" on="1"/>
      </contour>
      <contour>
        <pt x="533" y="860" on="1"/>
        <pt x="341" y="757" on="1"/>
        <pt x="298" y="822" on="1"/>
        <pt x="462" y="956" on="1"/>
      </contour>
    </TTGlyph>
    <TTGlyph name="Ubreve" xMin="85" yMin="-6" xMax="669" yMax="927">
      <contour>
        <pt x="530" y="701" on="1"/>
        <pt x="669" y="701" on="1"/>
        <pt x="669" y="269" on="1"/>
        <pt x="669" y="150" on="0"/>
        <pt x="504" y="-6" on="0"/>
        <pt x="377" y="-6" on="1"/>
        <pt x="251" y="-6" on="0"/>
        <pt x="85" y="150" on="0"/>
        <pt x="85" y="269" on="1"/>
        <pt x="85" y="701" on="1"/>
        <pt x="230" y="701" on="1"/>
        <pt x="230" y="278" on="1"/>
        <pt x="230" y="213" on="0"/>
        <pt x="316" y="125" on="0"/>
        <pt x="377" y="125" on="1"/>
        <pt x="442" y="125" on="0"/>
        <pt x="530" y="213" on="0"/>
        <pt x="530" y="278" on="1"/>
      </contour>
      <contour>
        <pt x="375" y="757" on="1"/>
        <pt x="310" y="757" on="0"/>
        <pt x="218" y="842" on="0"/>
        <pt x="203" y="915" on="1"/>
        <pt x="294" y="927" on="1"/>
        <pt x="306" y="892" on="0"/>
        <pt x="350" y="852" on="0"/>
        <pt x="375" y="852" on="1"/>
        <pt x="400" y="852" on="0"/>
        <pt x="445" y="892" on="0"/>
        <pt x="457" y="927" on="1"/>
        <pt x="547" y="915" on="1"/>
        <pt x="533" y="842" on="0"/>
        <pt x="440" y="757" on="0"/>
      </contour>
    </TTGlyph>
    <TTGlyph name="Ucircumflex" xMin="85" yMin="-6" xMax="669" yMax="920">
      <contour>
        <pt x="530" y="701" on="1"/>
        <pt x="669" y="701" on="1"/>
        <pt x="669" y="269" on="1"/>
        <pt x="669" y="150" on="0"/>
        <pt x="504" y="-6" on="0"/>
        <pt x="377" y="-6" on="1"/>
        <pt x="251" y="-6" on="0"/>
        <pt x="85" y="150" on="0"/>
        <pt x="85" y="269" on="1"/>
        <pt x="85" y="701" on="1"/>
        <pt x="230" y="701" on="1"/>
        <pt x="230" y="278" on="1"/>
        <pt x="230" y="213" on="0"/>
        <pt x="316" y="125" on="0"/>
        <pt x="377" y="125" on="1"/>
        <pt x="442" y="125" on="0"/>
        <pt x="530" y="213" on="0"/>
        <pt x="530" y="278" on="1"/>
      </contour>
      <contour>
        <pt x="502" y="758" on="1"/>
        <pt x="363" y="836" on="1"/>
        <pt x="392" y="836" on="1"/>
        <pt x="252" y="758" on="1"/>
        <pt x="205" y="804" on="1"/>
        <pt x="336" y="920" on="1"/>
        <pt x="419" y="920" on="1"/>
        <pt x="550" y="804" on="1"/>
      </contour>
    </TTGlyph>
    <TTGlyph name="Udieresis" xMin="85" yMin="-6" xMax="669" yMax="909">
      <contour>
        <pt x="530" y="701" on="1"/>
        <pt x="669" y="701" on="1"/>
        <pt x="669" y="269" on="1"/>
        <pt x="669" y="150" on="0"/>
        <pt x="504" y="-6" on="0"/>
        <pt x="377" y="-6" on="1"/>
        <pt x="251" y="-6" on="0"/>
        <pt x="85" y="150" on="0"/>
        <pt x="85" y="269" on="1"/>
        <pt x="85" y="701" on="1"/>
        <pt x="230" y="701" on="1"/>
        <pt x="230" y="278" on="1"/>
        <pt x="230" y="213" on="0"/>
        <pt x="316" y="125" on="0"/>
        <pt x="377" y="125" on="1"/>
        <pt x="442" y="125" on="0"/>
        <pt x="530" y="213" on="0"/>
        <pt x="530" y="278" on="1"/>
      </contour>
      <contour>
        <pt x="345" y="833" on="1"/>
        <pt x="345" y="799" on="0"/>
        <pt x="302" y="756" on="0"/>
        <pt x="265" y="756" on="1"/>
        <pt x="227" y="756" on="0"/>
        <pt x="186" y="796" on="0"/>
        <pt x="186" y="833" on="1"/>
        <pt x="186" y="867" on="0"/>
        <pt x="229" y="909" on="0"/>
        <pt x="265" y="909" on="1"/>
        <pt x="303" y="909" on="0"/>
        <pt x="345" y="870" on="0"/>
      </contour>
      <contour>
        <pt x="572" y="833" on="1"/>
        <pt x="572" y="799" on="0"/>
        <pt x="530" y="756" on="0"/>
        <pt x="493" y="756" on="1"/>
        <pt x="455" y="756" on="0"/>
        <pt x="414" y="796" on="0"/>
        <pt x="414" y="833" on="1"/>
        <pt x="414" y="867" on="0"/>
        <pt x="456" y="909" on="0"/>
        <pt x="493" y="909" on="1"/>
        <pt x="531" y="909" on="0"/>
        <pt x="572" y="870" on="0"/>
      </contour>
    </TTGlyph>
    <TTGlyph name="Ugrave" xMin="85" yMin="-6" xMax="669" yMax="959">
      <contour>
        <pt x="530" y="701" on="1"/>
        <pt x="669" y="701" on="1"/>
        <pt x="669" y="269" on="1"/>
        <pt x="669" y="150" on="0"/>
        <pt x="504" y="-6" on="0"/>
        <pt x="377" y="-6" on="1"/>
        <pt x="251" y="-6" on="0"/>
        <pt x="85" y="150" on="0"/>
        <pt x="85" y="269" on="1"/>
        <pt x="85" y="701" on="1"/>
        <pt x="230" y="701" on="1"/>
        <pt x="230" y="278" on="1"/>
        <pt x="230" y="213" on="0"/>
        <pt x="316" y="125" on="0"/>
        <pt x="377" y="125" on="1"/>
        <pt x="442" y="125" on="0"/>
        <pt x="530" y="213" on="0"/>
        <pt x="530" y="278" on="1"/>
      </contour>
      <contour>
        <pt x="462" y="824" on="1"/>
        <pt x="419" y="759" on="1"/>
        <pt x="227" y="863" on="1"/>
        <pt x="298" y="959" on="1"/>
      </contour>
    </TTGlyph>
    <TTGlyph name="Uhorn" xMin="85" yMin="-7" xMax="799" yMax="821">
      <contour>
        <pt x="530" y="700" on="1"/>
        <pt x="669" y="700" on="1"/>
        <pt x="669" y="268" on="1"/>
        <pt x="669" y="149" on="0"/>
        <pt x="504" y="-7" on="0"/>
        <pt x="377" y="-7" on="1"/>
        <pt x="251" y="-7" on="0"/>
        <pt x="85" y="149" on="0"/>
        <pt x="85" y="268" on="1"/>
        <pt x="85" y="700" on="1"/>
        <pt x="230" y="700" on="1"/>
        <pt x="230" y="277" on="1"/>
        <pt x="230" y="212" on="0"/>
        <pt x="316" y="124" on="0"/>
        <pt x="377" y="124" on="1"/>
        <pt x="442" y="124" on="0"/>
        <pt x="530" y="212" on="0"/>
        <pt x="530" y="277" on="1"/>
      </contour>
      <contour>
        <pt x="598" y="605" on="1"/>
        <pt x="598" y="700" on="1"/>
        <pt x="643" y="700" on="0"/>
        <pt x="687" y="760" on="0"/>
        <pt x="687" y="821" on="1"/>
        <pt x="799" y="821" on="1"/>
        <pt x="799" y="723" on="0"/>
        <pt x="694" y="605" on="0"/>
      </contour>
    </TTGlyph>
    <TTGlyph name="Uhungarumlaut" xMin="85" yMin="-6" xMax="669" yMax="948">
      <contour>
        <pt x="530" y="701" on="1"/>
        <pt x="669" y="701" on="1"/>
        <pt x="669" y="269" on="1"/>
        <pt x="669" y="150" on="0"/>
        <pt x="504" y="-6" on="0"/>
        <pt x="377" y="-6" on="1"/>
        <pt x="251" y="-6" on="0"/>
        <pt x="85" y="150" on="0"/>
        <pt x="85" y="269" on="1"/>
        <pt x="85" y="701" on="1"/>
        <pt x="230" y="701" on="1"/>
        <pt x="230" y="278" on="1"/>
        <pt x="230" y="213" on="0"/>
        <pt x="316" y="125" on="0"/>
        <pt x="377" y="125" on="1"/>
        <pt x="442" y="125" on="0"/>
        <pt x="530" y="213" on="0"/>
        <pt x="530" y="278" on="1"/>
      </contour>
      <contour>
        <pt x="425" y="853" on="1"/>
        <pt x="233" y="749" on="1"/>
        <pt x="191" y="813" on="1"/>
        <pt x="355" y="948" on="1"/>
      </contour>
      <contour>
        <pt x="652" y="853" on="1"/>
        <pt x="460" y="749" on="1"/>
        <pt x="418" y="813" on="1"/>
        <pt x="582" y="948" on="1"/>
      </contour>
    </TTGlyph>
    <TTGlyph name="Umacron" xMin="85" yMin="-6" xMax="669" yMax="864">
      <contour>
        <pt x="530" y="701" on="1"/>
        <pt x="669" y="701" on="1"/>
        <pt x="669" y="269" on="1"/>
        <pt x="669" y="150" on="0"/>
        <pt x="504" y="-6" on="0"/>
        <pt x="377" y="-6" on="1"/>
        <pt x="251" y="-6" on="0"/>
        <pt x="85" y="150" on="0"/>
        <pt x="85" y="269" on="1"/>
        <pt x="85" y="701" on="1"/>
        <pt x="230" y="701" on="1"/>
        <pt x="230" y="278" on="1"/>
        <pt x="230" y="213" on="0"/>
        <pt x="316" y="125" on="0"/>
        <pt x="377" y="125" on="1"/>
        <pt x="442" y="125" on="0"/>
        <pt x="530" y="213" on="0"/>
        <pt x="530" y="278" on="1"/>
      </contour>
      <contour>
        <pt x="552" y="774" on="1"/>
        <pt x="205" y="774" on="1"/>
        <pt x="205" y="864" on="1"/>
        <pt x="552" y="864" on="1"/>
      </contour>
    </TTGlyph>
    <TTGlyph name="Uogonek" xMin="81" yMin="-204" xMax="665" yMax="701">
      <contour>
        <pt x="383" y="-14" on="1"/>
        <pt x="246" y="-14" on="0"/>
        <pt x="81" y="155" on="0"/>
        <pt x="81" y="269" on="1"/>
        <pt x="81" y="701" on="1"/>
        <pt x="226" y="701" on="1"/>
        <pt x="226" y="278" on="1"/>
        <pt x="226" y="210" on="0"/>
        <pt x="312" y="118" on="0"/>
        <pt x="373" y="118" on="1"/>
        <pt x="438" y="118" on="0"/>
        <pt x="526" y="209" on="0"/>
        <pt x="526" y="278" on="1"/>
        <pt x="526" y="701" on="1"/>
        <pt x="665" y="701" on="1"/>
        <pt x="665" y="269" on="1"/>
        <pt x="665" y="178" on="0"/>
        <pt x="567" y="42" on="0"/>
        <pt x="484" y="8" on="1"/>
        <pt x="450" y="-5" on="0"/>
        <pt x="410" y="-51" on="0"/>
        <pt x="410" y="-74" on="1"/>
        <pt x="410" y="-93" on="0"/>
        <pt x="429" y="-114" on="0"/>
        <pt x="447" y="-114" on="1"/>
        <pt x="457" y="-114" on="0"/>
        <pt x="473" y="-101" on="0"/>
        <pt x="481" y="-89" on="1"/>
        <pt x="542" y="-140" on="1"/>
        <pt x="530" y="-165" on="0"/>
        <pt x="467" y="-204" on="0"/>
        <pt x="430" y="-204" on="1"/>
        <pt x="381" y="-204" on="0"/>
        <pt x="314" y="-140" on="0"/>
        <pt x="314" y="-91" on="1"/>
        <pt x="314" y="-51" on="0"/>
        <pt x="368" y="13" on="0"/>
        <pt x="427" y="41" on="1"/>
        <pt x="460" y="9" on="1"/>
        <pt x="448" y="-2" on="0"/>
        <pt x="401" y="-14" on="0"/>
      </contour>
    </TTGlyph>
    <TTGlyph name="Uring" xMin="85" yMin="-6" xMax="669" yMax="989">
      <contour>
        <pt x="530" y="701" on="1"/>
        <pt x="669" y="701" on="1"/>
        <pt x="669" y="269" on="1"/>
        <pt x="669" y="150" on="0"/>
        <pt x="504" y="-6" on="0"/>
        <pt x="377" y="-6" on="1"/>
        <pt x="251" y="-6" on="0"/>
        <pt x="85" y="150" on="0"/>
        <pt x="85" y="269" on="1"/>
        <pt x="85" y="701" on="1"/>
        <pt x="230" y="701" on="1"/>
        <pt x="230" y="278" on="1"/>
        <pt x="230" y="213" on="0"/>
        <pt x="316" y="125" on="0"/>
        <pt x="377" y="125" on="1"/>
        <pt x="442" y="125" on="0"/>
        <pt x="530" y="213" on="0"/>
        <pt x="530" y="278" on="1"/>
      </contour>
      <contour>
        <pt x="500" y="870" on="1"/>
        <pt x="500" y="824" on="0"/>
        <pt x="427" y="755" on="0"/>
        <pt x="378" y="755" on="1"/>
        <pt x="329" y="755" on="0"/>
        <pt x="255" y="824" on="0"/>
        <pt x="255" y="870" on="1"/>
        <pt x="255" y="918" on="0"/>
        <pt x="328" y="989" on="0"/>
        <pt x="378" y="989" on="1"/>
        <pt x="427" y="989" on="0"/>
        <pt x="500" y="918" on="0"/>
      </contour>
      <contour>
        <pt x="333" y="870" on="1"/>
        <pt x="333" y="852" on="0"/>
        <pt x="360" y="827" on="0"/>
        <pt x="378" y="827" on="1"/>
        <pt x="396" y="827" on="0"/>
        <pt x="422" y="852" on="0"/>
        <pt x="422" y="870" on="1"/>
        <pt x="422" y="889" on="0"/>
        <pt x="396" y="913" on="0"/>
        <pt x="378" y="913" on="1"/>
        <pt x="359" y="913" on="0"/>
        <pt x="333" y="888" on="0"/>
      </contour>
    </TTGlyph>
    <TTGlyph name="Utilde" xMin="85" yMin="-6" xMax="669" yMax="931">
      <contour>
        <pt x="530" y="701" on="1"/>
        <pt x="669" y="701" on="1"/>
        <pt x="669" y="269" on="1"/>
        <pt x="669" y="150" on="0"/>
        <pt x="504" y="-6" on="0"/>
        <pt x="377" y="-6" on="1"/>
        <pt x="251" y="-6" on="0"/>
        <pt x="85" y="150" on="0"/>
        <pt x="85" y="269" on="1"/>
        <pt x="85" y="701" on="1"/>
        <pt x="230" y="701" on="1"/>
        <pt x="230" y="278" on="1"/>
        <pt x="230" y="213" on="0"/>
        <pt x="316" y="125" on="0"/>
        <pt x="377" y="125" on="1"/>
        <pt x="442" y="125" on="0"/>
        <pt x="530" y="213" on="0"/>
        <pt x="530" y="278" on="1"/>
      </contour>
      <contour>
        <pt x="288" y="801" on="1"/>
        <pt x="197" y="801" on="1"/>
        <pt x="197" y="861" on="0"/>
        <pt x="260" y="931" on="0"/>
        <pt x="313" y="931" on="1"/>
        <pt x="328" y="931" on="0"/>
        <pt x="362" y="922" on="0"/>
        <pt x="394" y="908" on="1"/>
        <pt x="418" y="897" on="0"/>
        <pt x="438" y="891" on="0"/>
        <pt x="446" y="891" on="1"/>
        <pt x="459" y="891" on="0"/>
        <pt x="472" y="913" on="0"/>
        <pt x="471" y="931" on="1"/>
        <pt x="560" y="931" on="1"/>
        <pt x="560" y="875" on="0"/>
        <pt x="504" y="800" on="0"/>
        <pt x="458" y="800" on="1"/>
        <pt x="441" y="800" on="0"/>
        <pt x="402" y="810" on="0"/>
        <pt x="365" y="824" on="1"/>
        <pt x="342" y="833" on="0"/>
        <pt x="321" y="840" on="0"/>
        <pt x="315" y="840" on="1"/>
        <pt x="303" y="840" on="0"/>
        <pt x="288" y="819" on="0"/>
      </contour>
    </TTGlyph>
    <TTGlyph name="V" xMin="13" yMin="0" xMax="701" yMax="700">
      <contour>
        <pt x="292" y="0" on="1"/>
        <pt x="13" y="700" on="1"/>
        <pt x="167" y="700" on="1"/>
        <pt x="315" y="315" on="1"/>
        <pt x="339" y="253" on="0"/>
        <pt x="364" y="178" on="0"/>
        <pt x="376" y="134" on="1"/>
        <pt x="347" y="133" on="1"/>
        <pt x="359" y="178" on="0"/>
        <pt x="384" y="255" on="0"/>
        <pt x="406" y="315" on="1"/>
        <pt x="547" y="700" on="1"/>
        <pt x="701" y="700" on="1"/>
        <pt x="419" y="0" on="1"/>
      </contour>
    </TTGlyph>
    <TTGlyph name="W" xMin="13" yMin="0" xMax="981" yMax="700">
      <contour>
        <pt x="228" y="0" on="1"/>
        <pt x="13" y="700" on="1"/>
        <pt x="161" y="700" on="1"/>
        <pt x="279" y="303" on="1"/>
        <pt x="291" y="261" on="0"/>
        <pt x="308" y="160" on="0"/>
        <pt x="311" y="137" on="1"/>
        <pt x="286" y="138" on="1"/>
        <pt x="291" y="166" on="0"/>
        <pt x="311" y="262" on="0"/>
        <pt x="326" y="303" on="1"/>
        <pt x="439" y="596" on="1"/>
        <pt x="559" y="596" on="1"/>
        <pt x="669" y="303" on="1"/>
        <pt x="682" y="269" on="0"/>
        <pt x="697" y="210" on="0"/>
        <pt x="711" y="144" on="1"/>
        <pt x="689" y="139" on="1"/>
        <pt x="699" y="206" on="0"/>
        <pt x="708" y="268" on="0"/>
        <pt x="718" y="305" on="1"/>
        <pt x="834" y="700" on="1"/>
        <pt x="981" y="700" on="1"/>
        <pt x="766" y="0" on="1"/>
        <pt x="659" y="0" on="1"/>
        <pt x="485" y="418" on="1"/>
        <pt x="500" y="415" on="1"/>
        <pt x="336" y="0" on="1"/>
      </contour>
    </TTGlyph>
    <TTGlyph name="Wacute" xMin="13" yMin="0" xMax="981" yMax="956">
      <contour>
        <pt x="228" y="0" on="1"/>
        <pt x="13" y="700" on="1"/>
        <pt x="161" y="700" on="1"/>
        <pt x="279" y="303" on="1"/>
        <pt x="291" y="261" on="0"/>
        <pt x="308" y="160" on="0"/>
        <pt x="311" y="137" on="1"/>
        <pt x="286" y="138" on="1"/>
        <pt x="291" y="166" on="0"/>
        <pt x="311" y="262" on="0"/>
        <pt x="326" y="303" on="1"/>
        <pt x="439" y="596" on="1"/>
        <pt x="559" y="596" on="1"/>
        <pt x="669" y="303" on="1"/>
        <pt x="682" y="269" on="0"/>
        <pt x="697" y="210" on="0"/>
        <pt x="711" y="144" on="1"/>
        <pt x="689" y="139" on="1"/>
        <pt x="699" y="206" on="0"/>
        <pt x="708" y="268" on="0"/>
        <pt x="718" y="305" on="1"/>
        <pt x="834" y="700" on="1"/>
        <pt x="981" y="700" on="1"/>
        <pt x="766" y="0" on="1"/>
        <pt x="659" y="0" on="1"/>
        <pt x="485" y="418" on="1"/>
        <pt x="500" y="415" on="1"/>
        <pt x="336" y="0" on="1"/>
      </contour>
      <contour>
        <pt x="646" y="860" on="1"/>
        <pt x="454" y="757" on="1"/>
        <pt x="412" y="822" on="1"/>
        <pt x="575" y="956" on="1"/>
      </contour>
    </TTGlyph>
    <TTGlyph name="Wcircumflex" xMin="13" yMin="0" xMax="981" yMax="920">
      <contour>
        <pt x="228" y="0" on="1"/>
        <pt x="13" y="700" on="1"/>
        <pt x="161" y="700" on="1"/>
        <pt x="279" y="303" on="1"/>
        <pt x="291" y="261" on="0"/>
        <pt x="308" y="160" on="0"/>
        <pt x="311" y="137" on="1"/>
        <pt x="286" y="138" on="1"/>
        <pt x="291" y="166" on="0"/>
        <pt x="311" y="262" on="0"/>
        <pt x="326" y="303" on="1"/>
        <pt x="439" y="596" on="1"/>
        <pt x="559" y="596" on="1"/>
        <pt x="669" y="303" on="1"/>
        <pt x="682" y="269" on="0"/>
        <pt x="697" y="210" on="0"/>
        <pt x="711" y="144" on="1"/>
        <pt x="689" y="139" on="1"/>
        <pt x="699" y="206" on="0"/>
        <pt x="708" y="268" on="0"/>
        <pt x="718" y="305" on="1"/>
        <pt x="834" y="700" on="1"/>
        <pt x="981" y="700" on="1"/>
        <pt x="766" y="0" on="1"/>
        <pt x="659" y="0" on="1"/>
        <pt x="485" y="418" on="1"/>
        <pt x="500" y="415" on="1"/>
        <pt x="336" y="0" on="1"/>
      </contour>
      <contour>
        <pt x="621" y="758" on="1"/>
        <pt x="482" y="836" on="1"/>
        <pt x="511" y="836" on="1"/>
        <pt x="371" y="758" on="1"/>
        <pt x="324" y="804" on="1"/>
        <pt x="455" y="920" on="1"/>
        <pt x="538" y="920" on="1"/>
        <pt x="669" y="804" on="1"/>
      </contour>
    </TTGlyph>
    <TTGlyph name="Wdieresis" xMin="13" yMin="0" xMax="981" yMax="909">
      <contour>
        <pt x="228" y="0" on="1"/>
        <pt x="13" y="700" on="1"/>
        <pt x="161" y="700" on="1"/>
        <pt x="279" y="303" on="1"/>
        <pt x="291" y="261" on="0"/>
        <pt x="308" y="160" on="0"/>
        <pt x="311" y="137" on="1"/>
        <pt x="286" y="138" on="1"/>
        <pt x="291" y="166" on="0"/>
        <pt x="311" y="262" on="0"/>
        <pt x="326" y="303" on="1"/>
        <pt x="439" y="596" on="1"/>
        <pt x="559" y="596" on="1"/>
        <pt x="669" y="303" on="1"/>
        <pt x="682" y="269" on="0"/>
        <pt x="697" y="210" on="0"/>
        <pt x="711" y="144" on="1"/>
        <pt x="689" y="139" on="1"/>
        <pt x="699" y="206" on="0"/>
        <pt x="708" y="268" on="0"/>
        <pt x="718" y="305" on="1"/>
        <pt x="834" y="700" on="1"/>
        <pt x="981" y="700" on="1"/>
        <pt x="766" y="0" on="1"/>
        <pt x="659" y="0" on="1"/>
        <pt x="485" y="418" on="1"/>
        <pt x="500" y="415" on="1"/>
        <pt x="336" y="0" on="1"/>
      </contour>
      <contour>
        <pt x="463" y="833" on="1"/>
        <pt x="463" y="799" on="0"/>
        <pt x="420" y="756" on="0"/>
        <pt x="384" y="756" on="1"/>
        <pt x="346" y="756" on="0"/>
        <pt x="304" y="796" on="0"/>
        <pt x="304" y="833" on="1"/>
        <pt x="304" y="867" on="0"/>
        <pt x="347" y="909" on="0"/>
        <pt x="384" y="909" on="1"/>
        <pt x="422" y="909" on="0"/>
        <pt x="463" y="870" on="0"/>
      </contour>
      <contour>
        <pt x="691" y="833" on="1"/>
        <pt x="691" y="799" on="0"/>
        <pt x="648" y="756" on="0"/>
        <pt x="612" y="756" on="1"/>
        <pt x="574" y="756" on="0"/>
        <pt x="532" y="796" on="0"/>
        <pt x="532" y="833" on="1"/>
        <pt x="532" y="867" on="0"/>
        <pt x="575" y="909" on="0"/>
        <pt x="612" y="909" on="1"/>
        <pt x="650" y="909" on="0"/>
        <pt x="691" y="870" on="0"/>
      </contour>
    </TTGlyph>
    <TTGlyph name="Wgrave" xMin="13" yMin="0" xMax="981" yMax="959">
      <contour>
        <pt x="228" y="0" on="1"/>
        <pt x="13" y="700" on="1"/>
        <pt x="161" y="700" on="1"/>
        <pt x="279" y="303" on="1"/>
        <pt x="291" y="261" on="0"/>
        <pt x="308" y="160" on="0"/>
        <pt x="311" y="137" on="1"/>
        <pt x="286" y="138" on="1"/>
        <pt x="291" y="166" on="0"/>
        <pt x="311" y="262" on="0"/>
        <pt x="326" y="303" on="1"/>
        <pt x="439" y="596" on="1"/>
        <pt x="559" y="596" on="1"/>
        <pt x="669" y="303" on="1"/>
        <pt x="682" y="269" on="0"/>
        <pt x="697" y="210" on="0"/>
        <pt x="711" y="144" on="1"/>
        <pt x="689" y="139" on="1"/>
        <pt x="699" y="206" on="0"/>
        <pt x="708" y="268" on="0"/>
        <pt x="718" y="305" on="1"/>
        <pt x="834" y="700" on="1"/>
        <pt x="981" y="700" on="1"/>
        <pt x="766" y="0" on="1"/>
        <pt x="659" y="0" on="1"/>
        <pt x="485" y="418" on="1"/>
        <pt x="500" y="415" on="1"/>
        <pt x="336" y="0" on="1"/>
      </contour>
      <contour>
        <pt x="590" y="824" on="1"/>
        <pt x="547" y="759" on="1"/>
        <pt x="355" y="863" on="1"/>
        <pt x="426" y="959" on="1"/>
      </contour>
    </TTGlyph>
    <TTGlyph name="X" xMin="9" yMin="0" xMax="687" yMax="700">
      <contour>
        <pt x="509" y="700" on="1"/>
        <pt x="677" y="700" on="1"/>
        <pt x="420" y="325" on="1"/>
        <pt x="313" y="401" on="1"/>
      </contour>
      <contour>
        <pt x="14" y="700" on="1"/>
        <pt x="192" y="700" on="1"/>
        <pt x="404" y="390" on="1"/>
        <pt x="687" y="0" on="1"/>
        <pt x="509" y="0" on="1"/>
        <pt x="292" y="314" on="1"/>
      </contour>
      <contour>
        <pt x="177" y="0" on="1"/>
        <pt x="9" y="0" on="1"/>
        <pt x="276" y="381" on="1"/>
        <pt x="384" y="302" on="1"/>
      </contour>
    </TTGlyph>
    <TTGlyph name="Y" xMin="0" yMin="0" xMax="677" yMax="700">
      <contour>
        <pt x="516" y="700" on="1"/>
        <pt x="677" y="700" on="1"/>
        <pt x="406" y="289" on="1"/>
        <pt x="421" y="357" on="1"/>
        <pt x="421" y="0" on="1"/>
        <pt x="276" y="0" on="1"/>
        <pt x="276" y="349" on="1"/>
        <pt x="283" y="300" on="1"/>
        <pt x="0" y="700" on="1"/>
        <pt x="167" y="700" on="1"/>
        <pt x="383" y="390" on="1"/>
        <pt x="321" y="393" on="1"/>
      </contour>
    </TTGlyph>
    <TTGlyph name="Yacute" xMin="0" yMin="0" xMax="677" yMax="956">
      <contour>
        <pt x="516" y="700" on="1"/>
        <pt x="677" y="700" on="1"/>
        <pt x="406" y="289" on="1"/>
        <pt x="421" y="357" on="1"/>
        <pt x="421" y="0" on="1"/>
        <pt x="276" y="0" on="1"/>
        <pt x="276" y="349" on="1"/>
        <pt x="283" y="300" on="1"/>
        <pt x="0" y="700" on="1"/>
        <pt x="167" y="700" on="1"/>
        <pt x="383" y="390" on="1"/>
        <pt x="321" y="393" on="1"/>
      </contour>
      <contour>
        <pt x="503" y="860" on="1"/>
        <pt x="311" y="757" on="1"/>
        <pt x="268" y="822" on="1"/>
        <pt x="432" y="956" on="1"/>
      </contour>
    </TTGlyph>
    <TTGlyph name="Ycircumflex" xMin="0" yMin="0" xMax="677" yMax="920">
      <contour>
        <pt x="516" y="700" on="1"/>
        <pt x="677" y="700" on="1"/>
        <pt x="406" y="289" on="1"/>
        <pt x="421" y="357" on="1"/>
        <pt x="421" y="0" on="1"/>
        <pt x="276" y="0" on="1"/>
        <pt x="276" y="349" on="1"/>
        <pt x="283" y="300" on="1"/>
        <pt x="0" y="700" on="1"/>
        <pt x="167" y="700" on="1"/>
        <pt x="383" y="390" on="1"/>
        <pt x="321" y="393" on="1"/>
      </contour>
      <contour>
        <pt x="464" y="758" on="1"/>
        <pt x="324" y="836" on="1"/>
        <pt x="354" y="836" on="1"/>
        <pt x="214" y="758" on="1"/>
        <pt x="167" y="804" on="1"/>
        <pt x="298" y="920" on="1"/>
        <pt x="380" y="920" on="1"/>
        <pt x="511" y="804" on="1"/>
      </contour>
    </TTGlyph>
    <TTGlyph name="Ydieresis" xMin="0" yMin="0" xMax="677" yMax="909">
      <contour>
        <pt x="516" y="700" on="1"/>
        <pt x="677" y="700" on="1"/>
        <pt x="406" y="289" on="1"/>
        <pt x="421" y="357" on="1"/>
        <pt x="421" y="0" on="1"/>
        <pt x="276" y="0" on="1"/>
        <pt x="276" y="349" on="1"/>
        <pt x="283" y="300" on="1"/>
        <pt x="0" y="700" on="1"/>
        <pt x="167" y="700" on="1"/>
        <pt x="383" y="390" on="1"/>
        <pt x="321" y="393" on="1"/>
      </contour>
      <contour>
        <pt x="306" y="833" on="1"/>
        <pt x="306" y="799" on="0"/>
        <pt x="263" y="756" on="0"/>
        <pt x="226" y="756" on="1"/>
        <pt x="188" y="756" on="0"/>
        <pt x="147" y="796" on="0"/>
        <pt x="147" y="833" on="1"/>
        <pt x="147" y="867" on="0"/>
        <pt x="190" y="909" on="0"/>
        <pt x="226" y="909" on="1"/>
        <pt x="264" y="909" on="0"/>
        <pt x="306" y="870" on="0"/>
      </contour>
      <contour>
        <pt x="534" y="833" on="1"/>
        <pt x="534" y="799" on="0"/>
        <pt x="491" y="756" on="0"/>
        <pt x="454" y="756" on="1"/>
        <pt x="416" y="756" on="0"/>
        <pt x="375" y="796" on="0"/>
        <pt x="375" y="833" on="1"/>
        <pt x="375" y="867" on="0"/>
        <pt x="418" y="909" on="0"/>
        <pt x="454" y="909" on="1"/>
        <pt x="492" y="909" on="0"/>
        <pt x="534" y="870" on="0"/>
      </contour>
    </TTGlyph>
    <TTGlyph name="Ygrave" xMin="0" yMin="0" xMax="677" yMax="959">
      <contour>
        <pt x="516" y="700" on="1"/>
        <pt x="677" y="700" on="1"/>
        <pt x="406" y="289" on="1"/>
        <pt x="421" y="357" on="1"/>
        <pt x="421" y="0" on="1"/>
        <pt x="276" y="0" on="1"/>
        <pt x="276" y="349" on="1"/>
        <pt x="283" y="300" on="1"/>
        <pt x="0" y="700" on="1"/>
        <pt x="167" y="700" on="1"/>
        <pt x="383" y="390" on="1"/>
        <pt x="321" y="393" on="1"/>
      </contour>
      <contour>
        <pt x="415" y="824" on="1"/>
        <pt x="372" y="759" on="1"/>
        <pt x="180" y="863" on="1"/>
        <pt x="251" y="959" on="1"/>
      </contour>
    </TTGlyph>
    <TTGlyph name="Z" xMin="60" yMin="0" xMax="616" yMax="700">
      <contour>
        <pt x="86" y="700" on="1"/>
        <pt x="605" y="700" on="1"/>
        <pt x="605" y="602" on="1"/>
        <pt x="222" y="87" on="1"/>
        <pt x="180" y="130" on="1"/>
        <pt x="616" y="130" on="1"/>
        <pt x="616" y="0" on="1"/>
        <pt x="60" y="0" on="1"/>
        <pt x="60" y="99" on="1"/>
        <pt x="446" y="613" on="1"/>
        <pt x="486" y="566" on="1"/>
        <pt x="86" y="566" on="1"/>
      </contour>
    </TTGlyph>
    <TTGlyph name="Zacute" xMin="60" yMin="0" xMax="616" yMax="956">
      <contour>
        <pt x="86" y="700" on="1"/>
        <pt x="605" y="700" on="1"/>
        <pt x="605" y="602" on="1"/>
        <pt x="222" y="87" on="1"/>
        <pt x="180" y="130" on="1"/>
        <pt x="616" y="130" on="1"/>
        <pt x="616" y="0" on="1"/>
        <pt x="60" y="0" on="1"/>
        <pt x="60" y="99" on="1"/>
        <pt x="446" y="613" on="1"/>
        <pt x="486" y="566" on="1"/>
        <pt x="86" y="566" on="1"/>
      </contour>
      <contour>
        <pt x="498" y="860" on="1"/>
        <pt x="306" y="757" on="1"/>
        <pt x="263" y="822" on="1"/>
        <pt x="427" y="956" on="1"/>
      </contour>
    </TTGlyph>
    <TTGlyph name="Zcaron" xMin="60" yMin="0" xMax="616" yMax="926">
      <contour>
        <pt x="86" y="700" on="1"/>
        <pt x="605" y="700" on="1"/>
        <pt x="605" y="602" on="1"/>
        <pt x="222" y="87" on="1"/>
        <pt x="180" y="130" on="1"/>
        <pt x="616" y="130" on="1"/>
        <pt x="616" y="0" on="1"/>
        <pt x="60" y="0" on="1"/>
        <pt x="60" y="99" on="1"/>
        <pt x="446" y="613" on="1"/>
        <pt x="486" y="566" on="1"/>
        <pt x="86" y="566" on="1"/>
      </contour>
      <contour>
        <pt x="462" y="926" on="1"/>
        <pt x="319" y="845" on="1"/>
        <pt x="349" y="845" on="1"/>
        <pt x="206" y="926" on="1"/>
        <pt x="156" y="883" on="1"/>
        <pt x="288" y="761" on="1"/>
        <pt x="380" y="761" on="1"/>
        <pt x="512" y="883" on="1"/>
      </contour>
    </TTGlyph>
    <TTGlyph name="Zdotaccent" xMin="60" yMin="0" xMax="616" yMax="913">
      <contour>
        <pt x="86" y="700" on="1"/>
        <pt x="605" y="700" on="1"/>
        <pt x="605" y="602" on="1"/>
        <pt x="222" y="87" on="1"/>
        <pt x="180" y="130" on="1"/>
        <pt x="616" y="130" on="1"/>
        <pt x="616" y="0" on="1"/>
        <pt x="60" y="0" on="1"/>
        <pt x="60" y="99" on="1"/>
        <pt x="446" y="613" on="1"/>
        <pt x="486" y="566" on="1"/>
        <pt x="86" y="566" on="1"/>
      </contour>
      <contour>
        <pt x="422" y="838" on="1"/>
        <pt x="422" y="805" on="0"/>
        <pt x="377" y="763" on="0"/>
        <pt x="338" y="763" on="1"/>
        <pt x="297" y="763" on="0"/>
        <pt x="253" y="802" on="0"/>
        <pt x="253" y="838" on="1"/>
        <pt x="253" y="871" on="0"/>
        <pt x="298" y="913" on="0"/>
        <pt x="338" y="913" on="1"/>
        <pt x="378" y="913" on="0"/>
        <pt x="422" y="874" on="0"/>
      </contour>
    </TTGlyph>
    <TTGlyph name="_connection" xMin="-30" yMin="0" xMax="90" yMax="102">
      <contour>
        <pt x="-30" y="0" on="1"/>
        <pt x="-30" y="102" on="1"/>
        <pt x="90" y="102" on="1"/>
        <pt x="90" y="0" on="1"/>
      </contour>
    </TTGlyph>
    <TTGlyph name="_connection.round" xMin="-79" yMin="0" xMax="120" yMax="149">
      <contour>
        <pt x="-79" y="102" on="1"/>
        <pt x="-31" y="149" on="1"/>
        <pt x="-5" y="124" on="0"/>
        <pt x="65" y="102" on="0"/>
        <pt x="120" y="102" on="1"/>
        <pt x="120" y="0" on="1"/>
        <pt x="54" y="0" on="0"/>
        <pt x="-49" y="52" on="0"/>
      </contour>
    </TTGlyph>
    <TTGlyph name="_guide" xMin="72" yMin="0" xMax="1213" yMax="536">
      <contour>
        <pt x="963" y="536" on="1"/>
        <pt x="1078" y="536" on="0"/>
        <pt x="1213" y="412" on="0"/>
        <pt x="1213" y="310" on="1"/>
        <pt x="1213" y="0" on="1"/>
        <pt x="1110" y="0" on="1"/>
        <pt x="1110" y="293" on="1"/>
        <pt x="1110" y="356" on="0"/>
        <pt x="1012" y="440" on="0"/>
        <pt x="939" y="440" on="1"/>
        <pt x="861" y="440" on="0"/>
        <pt x="741" y="336" on="0"/>
        <pt x="741" y="278" on="1"/>
        <pt x="741" y="0" on="1"/>
        <pt x="715" y="0" on="0"/>
        <pt x="664" y="0" on="0"/>
        <pt x="638" y="0" on="1"/>
        <pt x="638" y="525" on="1"/>
        <pt x="741" y="525" on="1"/>
        <pt x="741" y="377" on="1"/>
        <pt x="703" y="375" on="1"/>
        <pt x="748" y="450" on="0"/>
        <pt x="884" y="536" on="0"/>
      </contour>
      <contour>
        <pt x="347" y="536" on="1"/>
        <pt x="437" y="536" on="0"/>
        <pt x="527" y="429" on="0"/>
        <pt x="527" y="320" on="1"/>
        <pt x="527" y="0" on="1"/>
        <pt x="424" y="0" on="1"/>
        <pt x="424" y="313" on="1"/>
        <pt x="424" y="381" on="0"/>
        <pt x="369" y="445" on="0"/>
        <pt x="313" y="442" on="1"/>
        <pt x="254" y="442" on="0"/>
        <pt x="175" y="370" on="0"/>
        <pt x="175" y="318" on="1"/>
        <pt x="175" y="0" on="1"/>
        <pt x="149" y="0" on="0"/>
        <pt x="98" y="0" on="0"/>
        <pt x="72" y="0" on="1"/>
        <pt x="72" y="525" on="1"/>
        <pt x="175" y="525" on="1"/>
        <pt x="175" y="417" on="1"/>
        <pt x="157" y="405" on="1"/>
        <pt x="172" y="457" on="0"/>
        <pt x="284" y="536" on="0"/>
      </contour>
    </TTGlyph>
    <TTGlyph name="_spacingBehDotless" xMin="0" yMin="0" xMax="161" yMax="221">
      <contour>
        <pt x="0" y="0" on="1"/>
        <pt x="0" y="221" on="1"/>
        <pt x="161" y="221" on="1"/>
        <pt x="161" y="0" on="1"/>
      </contour>
    </TTGlyph>
    <TTGlyph name="_spacingDal" xMin="0" yMin="0" xMax="161" yMax="221">
      <contour>
        <pt x="0" y="0" on="1"/>
        <pt x="0" y="221" on="1"/>
        <pt x="161" y="221" on="1"/>
        <pt x="161" y="0" on="1"/>
      </contour>
    </TTGlyph>
    <TTGlyph name="a" xMin="35" yMin="-10" xMax="577" yMax="539">
      <contour>
        <pt x="441" y="528" on="1"/>
        <pt x="577" y="528" on="1"/>
        <pt x="577" y="0" on="1"/>
        <pt x="440" y="0" on="1"/>
        <pt x="440" y="127" on="1"/>
        <pt x="471" y="130" on="1"/>
        <pt x="456" y="75" on="0"/>
        <pt x="344" y="-10" on="0"/>
        <pt x="270" y="-10" on="1"/>
        <pt x="171" y="-10" on="0"/>
        <pt x="35" y="147" on="0"/>
        <pt x="35" y="265" on="1"/>
        <pt x="35" y="386" on="0"/>
        <pt x="173" y="539" on="0"/>
        <pt x="276" y="539" on="1"/>
        <pt x="355" y="539" on="0"/>
        <pt x="457" y="453" on="0"/>
        <pt x="470" y="393" on="1"/>
        <pt x="441" y="398" on="1"/>
      </contour>
      <contour>
        <pt x="172" y="265" on="1"/>
        <pt x="172" y="195" on="0"/>
        <pt x="247" y="109" on="0"/>
        <pt x="307" y="109" on="1"/>
        <pt x="368" y="109" on="0"/>
        <pt x="444" y="195" on="0"/>
        <pt x="444" y="265" on="1"/>
        <pt x="444" y="335" on="0"/>
        <pt x="368" y="421" on="0"/>
        <pt x="307" y="421" on="1"/>
        <pt x="247" y="421" on="0"/>
        <pt x="172" y="335" on="0"/>
      </contour>
    </TTGlyph>
    <TTGlyph name="a.ss01" xMin="42" yMin="-10" xMax="496" yMax="539">
      <contour>
        <pt x="286" y="539" on="1"/>
        <pt x="382" y="539" on="0"/>
        <pt x="496" y="449" on="0"/>
        <pt x="496" y="360" on="1"/>
        <pt x="496" y="0" on="1"/>
        <pt x="367" y="0" on="1"/>
        <pt x="367" y="333" on="1"/>
        <pt x="367" y="376" on="0"/>
        <pt x="314" y="421" on="0"/>
        <pt x="270" y="421" on="1"/>
        <pt x="229" y="421" on="0"/>
        <pt x="163" y="389" on="0"/>
        <pt x="135" y="354" on="1"/>
        <pt x="52" y="437" on="1"/>
        <pt x="99" y="486" on="0"/>
        <pt x="216" y="539" on="0"/>
      </contour>
      <contour>
        <pt x="278" y="316" on="1"/>
        <pt x="434" y="316" on="1"/>
        <pt x="425" y="224" on="1"/>
        <pt x="275" y="224" on="1"/>
        <pt x="225" y="224" on="0"/>
        <pt x="172" y="187" on="0"/>
        <pt x="172" y="154" on="1"/>
        <pt x="172" y="128" on="0"/>
        <pt x="213" y="95" on="0"/>
        <pt x="244" y="95" on="1"/>
        <pt x="290" y="95" on="0"/>
        <pt x="366" y="140" on="0"/>
        <pt x="385" y="176" on="1"/>
        <pt x="411" y="107" on="1"/>
        <pt x="379" y="55" on="0"/>
        <pt x="277" y="-10" on="0"/>
        <pt x="220" y="-10" on="1"/>
        <pt x="144" y="-10" on="0"/>
        <pt x="42" y="77" on="0"/>
        <pt x="42" y="149" on="1"/>
        <pt x="42" y="231" on="0"/>
        <pt x="161" y="316" on="0"/>
      </contour>
    </TTGlyph>
    <TTGlyph name="aabreve.ss01" xMin="42" yMin="-10" xMax="496" yMax="784">
      <contour>
        <pt x="286" y="539" on="1"/>
        <pt x="382" y="539" on="0"/>
        <pt x="496" y="449" on="0"/>
        <pt x="496" y="360" on="1"/>
        <pt x="496" y="0" on="1"/>
        <pt x="367" y="0" on="1"/>
        <pt x="367" y="333" on="1"/>
        <pt x="367" y="376" on="0"/>
        <pt x="314" y="421" on="0"/>
        <pt x="270" y="421" on="1"/>
        <pt x="229" y="421" on="0"/>
        <pt x="163" y="389" on="0"/>
        <pt x="135" y="354" on="1"/>
        <pt x="52" y="437" on="1"/>
        <pt x="99" y="486" on="0"/>
        <pt x="216" y="539" on="0"/>
      </contour>
      <contour>
        <pt x="278" y="316" on="1"/>
        <pt x="434" y="316" on="1"/>
        <pt x="425" y="224" on="1"/>
        <pt x="275" y="224" on="1"/>
        <pt x="225" y="224" on="0"/>
        <pt x="172" y="187" on="0"/>
        <pt x="172" y="154" on="1"/>
        <pt x="172" y="128" on="0"/>
        <pt x="213" y="95" on="0"/>
        <pt x="244" y="95" on="1"/>
        <pt x="290" y="95" on="0"/>
        <pt x="366" y="140" on="0"/>
        <pt x="385" y="176" on="1"/>
        <pt x="411" y="107" on="1"/>
        <pt x="379" y="55" on="0"/>
        <pt x="277" y="-10" on="0"/>
        <pt x="220" y="-10" on="1"/>
        <pt x="144" y="-10" on="0"/>
        <pt x="42" y="77" on="0"/>
        <pt x="42" y="149" on="1"/>
        <pt x="42" y="231" on="0"/>
        <pt x="161" y="316" on="0"/>
      </contour>
      <contour>
        <pt x="277" y="615" on="1"/>
        <pt x="212" y="615" on="0"/>
        <pt x="119" y="699" on="0"/>
        <pt x="105" y="772" on="1"/>
        <pt x="196" y="784" on="1"/>
        <pt x="207" y="750" on="0"/>
        <pt x="252" y="709" on="0"/>
        <pt x="277" y="709" on="1"/>
        <pt x="302" y="709" on="0"/>
        <pt x="347" y="750" on="0"/>
        <pt x="358" y="784" on="1"/>
        <pt x="449" y="772" on="1"/>
        <pt x="435" y="699" on="0"/>
        <pt x="342" y="615" on="0"/>
      </contour>
    </TTGlyph>
    <TTGlyph name="aacute" xMin="35" yMin="-10" xMax="577" yMax="824">
      <contour>
        <pt x="441" y="528" on="1"/>
        <pt x="577" y="528" on="1"/>
        <pt x="577" y="0" on="1"/>
        <pt x="440" y="0" on="1"/>
        <pt x="440" y="127" on="1"/>
        <pt x="471" y="130" on="1"/>
        <pt x="456" y="75" on="0"/>
        <pt x="344" y="-10" on="0"/>
        <pt x="270" y="-10" on="1"/>
        <pt x="171" y="-10" on="0"/>
        <pt x="35" y="147" on="0"/>
        <pt x="35" y="265" on="1"/>
        <pt x="35" y="386" on="0"/>
        <pt x="173" y="539" on="0"/>
        <pt x="276" y="539" on="1"/>
        <pt x="355" y="539" on="0"/>
        <pt x="457" y="453" on="0"/>
        <pt x="470" y="393" on="1"/>
        <pt x="441" y="398" on="1"/>
      </contour>
      <contour>
        <pt x="172" y="265" on="1"/>
        <pt x="172" y="195" on="0"/>
        <pt x="247" y="109" on="0"/>
        <pt x="307" y="109" on="1"/>
        <pt x="368" y="109" on="0"/>
        <pt x="444" y="195" on="0"/>
        <pt x="444" y="265" on="1"/>
        <pt x="444" y="335" on="0"/>
        <pt x="368" y="421" on="0"/>
        <pt x="307" y="421" on="1"/>
        <pt x="247" y="421" on="0"/>
        <pt x="172" y="335" on="0"/>
      </contour>
      <contour>
        <pt x="478" y="729" on="1"/>
        <pt x="286" y="626" on="1"/>
        <pt x="244" y="689" on="1"/>
        <pt x="408" y="824" on="1"/>
      </contour>
    </TTGlyph>
    <TTGlyph name="aacute.ss01" xMin="42" yMin="-10" xMax="496" yMax="824">
      <contour>
        <pt x="286" y="539" on="1"/>
        <pt x="382" y="539" on="0"/>
        <pt x="496" y="449" on="0"/>
        <pt x="496" y="360" on="1"/>
        <pt x="496" y="0" on="1"/>
        <pt x="367" y="0" on="1"/>
        <pt x="367" y="333" on="1"/>
        <pt x="367" y="376" on="0"/>
        <pt x="314" y="421" on="0"/>
        <pt x="270" y="421" on="1"/>
        <pt x="229" y="421" on="0"/>
        <pt x="163" y="389" on="0"/>
        <pt x="135" y="354" on="1"/>
        <pt x="52" y="437" on="1"/>
        <pt x="99" y="486" on="0"/>
        <pt x="216" y="539" on="0"/>
      </contour>
      <contour>
        <pt x="278" y="316" on="1"/>
        <pt x="434" y="316" on="1"/>
        <pt x="425" y="224" on="1"/>
        <pt x="275" y="224" on="1"/>
        <pt x="225" y="224" on="0"/>
        <pt x="172" y="187" on="0"/>
        <pt x="172" y="154" on="1"/>
        <pt x="172" y="128" on="0"/>
        <pt x="213" y="95" on="0"/>
        <pt x="244" y="95" on="1"/>
        <pt x="290" y="95" on="0"/>
        <pt x="366" y="140" on="0"/>
        <pt x="385" y="176" on="1"/>
        <pt x="411" y="107" on="1"/>
        <pt x="379" y="55" on="0"/>
        <pt x="277" y="-10" on="0"/>
        <pt x="220" y="-10" on="1"/>
        <pt x="144" y="-10" on="0"/>
        <pt x="42" y="77" on="0"/>
        <pt x="42" y="149" on="1"/>
        <pt x="42" y="231" on="0"/>
        <pt x="161" y="316" on="0"/>
      </contour>
      <contour>
        <pt x="441" y="729" on="1"/>
        <pt x="249" y="626" on="1"/>
        <pt x="207" y="689" on="1"/>
        <pt x="371" y="824" on="1"/>
      </contour>
    </TTGlyph>
    <TTGlyph name="abreve" xMin="35" yMin="-10" xMax="577" yMax="797">
      <contour>
        <pt x="441" y="528" on="1"/>
        <pt x="577" y="528" on="1"/>
        <pt x="577" y="0" on="1"/>
        <pt x="440" y="0" on="1"/>
        <pt x="440" y="127" on="1"/>
        <pt x="471" y="130" on="1"/>
        <pt x="456" y="75" on="0"/>
        <pt x="344" y="-10" on="0"/>
        <pt x="270" y="-10" on="1"/>
        <pt x="171" y="-10" on="0"/>
        <pt x="35" y="147" on="0"/>
        <pt x="35" y="265" on="1"/>
        <pt x="35" y="386" on="0"/>
        <pt x="173" y="539" on="0"/>
        <pt x="276" y="539" on="1"/>
        <pt x="355" y="539" on="0"/>
        <pt x="457" y="453" on="0"/>
        <pt x="470" y="393" on="1"/>
        <pt x="441" y="398" on="1"/>
      </contour>
      <contour>
        <pt x="172" y="265" on="1"/>
        <pt x="172" y="195" on="0"/>
        <pt x="247" y="109" on="0"/>
        <pt x="307" y="109" on="1"/>
        <pt x="368" y="109" on="0"/>
        <pt x="444" y="195" on="0"/>
        <pt x="444" y="265" on="1"/>
        <pt x="444" y="335" on="0"/>
        <pt x="368" y="421" on="0"/>
        <pt x="307" y="421" on="1"/>
        <pt x="247" y="421" on="0"/>
        <pt x="172" y="335" on="0"/>
      </contour>
      <contour>
        <pt x="316" y="628" on="1"/>
        <pt x="251" y="628" on="0"/>
        <pt x="158" y="712" on="0"/>
        <pt x="144" y="785" on="1"/>
        <pt x="234" y="797" on="1"/>
        <pt x="246" y="762" on="0"/>
        <pt x="291" y="722" on="0"/>
        <pt x="316" y="722" on="1"/>
        <pt x="341" y="722" on="0"/>
        <pt x="385" y="762" on="0"/>
        <pt x="397" y="797" on="1"/>
        <pt x="488" y="785" on="1"/>
        <pt x="473" y="712" on="0"/>
        <pt x="381" y="628" on="0"/>
      </contour>
    </TTGlyph>
    <TTGlyph name="abreve.ss01" xMin="42" yMin="-10" xMax="496" yMax="797">
      <contour>
        <pt x="286" y="539" on="1"/>
        <pt x="382" y="539" on="0"/>
        <pt x="496" y="449" on="0"/>
        <pt x="496" y="360" on="1"/>
        <pt x="496" y="0" on="1"/>
        <pt x="367" y="0" on="1"/>
        <pt x="367" y="333" on="1"/>
        <pt x="367" y="376" on="0"/>
        <pt x="314" y="421" on="0"/>
        <pt x="270" y="421" on="1"/>
        <pt x="229" y="421" on="0"/>
        <pt x="163" y="389" on="0"/>
        <pt x="135" y="354" on="1"/>
        <pt x="52" y="437" on="1"/>
        <pt x="99" y="486" on="0"/>
        <pt x="216" y="539" on="0"/>
      </contour>
      <contour>
        <pt x="278" y="316" on="1"/>
        <pt x="434" y="316" on="1"/>
        <pt x="425" y="224" on="1"/>
        <pt x="275" y="224" on="1"/>
        <pt x="225" y="224" on="0"/>
        <pt x="172" y="187" on="0"/>
        <pt x="172" y="154" on="1"/>
        <pt x="172" y="128" on="0"/>
        <pt x="213" y="95" on="0"/>
        <pt x="244" y="95" on="1"/>
        <pt x="290" y="95" on="0"/>
        <pt x="366" y="140" on="0"/>
        <pt x="385" y="176" on="1"/>
        <pt x="411" y="107" on="1"/>
        <pt x="379" y="55" on="0"/>
        <pt x="277" y="-10" on="0"/>
        <pt x="220" y="-10" on="1"/>
        <pt x="144" y="-10" on="0"/>
        <pt x="42" y="77" on="0"/>
        <pt x="42" y="149" on="1"/>
        <pt x="42" y="231" on="0"/>
        <pt x="161" y="316" on="0"/>
      </contour>
      <contour>
        <pt x="284" y="628" on="1"/>
        <pt x="219" y="628" on="0"/>
        <pt x="127" y="712" on="0"/>
        <pt x="112" y="785" on="1"/>
        <pt x="203" y="797" on="1"/>
        <pt x="215" y="762" on="0"/>
        <pt x="259" y="722" on="0"/>
        <pt x="284" y="722" on="1"/>
        <pt x="309" y="722" on="0"/>
        <pt x="354" y="762" on="0"/>
        <pt x="366" y="797" on="1"/>
        <pt x="456" y="785" on="1"/>
        <pt x="442" y="712" on="0"/>
        <pt x="349" y="628" on="0"/>
      </contour>
    </TTGlyph>
    <TTGlyph name="acircumflex" xMin="35" yMin="-10" xMax="577" yMax="792">
      <contour>
        <pt x="441" y="528" on="1"/>
        <pt x="577" y="528" on="1"/>
        <pt x="577" y="0" on="1"/>
        <pt x="440" y="0" on="1"/>
        <pt x="440" y="127" on="1"/>
        <pt x="471" y="130" on="1"/>
        <pt x="456" y="75" on="0"/>
        <pt x="344" y="-10" on="0"/>
        <pt x="270" y="-10" on="1"/>
        <pt x="171" y="-10" on="0"/>
        <pt x="35" y="147" on="0"/>
        <pt x="35" y="265" on="1"/>
        <pt x="35" y="386" on="0"/>
        <pt x="173" y="539" on="0"/>
        <pt x="276" y="539" on="1"/>
        <pt x="355" y="539" on="0"/>
        <pt x="457" y="453" on="0"/>
        <pt x="470" y="393" on="1"/>
        <pt x="441" y="398" on="1"/>
      </contour>
      <contour>
        <pt x="172" y="265" on="1"/>
        <pt x="172" y="195" on="0"/>
        <pt x="247" y="109" on="0"/>
        <pt x="307" y="109" on="1"/>
        <pt x="368" y="109" on="0"/>
        <pt x="444" y="195" on="0"/>
        <pt x="444" y="265" on="1"/>
        <pt x="444" y="335" on="0"/>
        <pt x="368" y="421" on="0"/>
        <pt x="307" y="421" on="1"/>
        <pt x="247" y="421" on="0"/>
        <pt x="172" y="335" on="0"/>
      </contour>
      <contour>
        <pt x="448" y="627" on="1"/>
        <pt x="305" y="708" on="1"/>
        <pt x="335" y="708" on="1"/>
        <pt x="191" y="627" on="1"/>
        <pt x="142" y="670" on="1"/>
        <pt x="274" y="792" on="1"/>
        <pt x="365" y="792" on="1"/>
        <pt x="497" y="670" on="1"/>
      </contour>
    </TTGlyph>
    <TTGlyph name="acircumflex.ss01" xMin="42" yMin="-10" xMax="496" yMax="792">
      <contour>
        <pt x="286" y="539" on="1"/>
        <pt x="382" y="539" on="0"/>
        <pt x="496" y="449" on="0"/>
        <pt x="496" y="360" on="1"/>
        <pt x="496" y="0" on="1"/>
        <pt x="367" y="0" on="1"/>
        <pt x="367" y="333" on="1"/>
        <pt x="367" y="376" on="0"/>
        <pt x="314" y="421" on="0"/>
        <pt x="270" y="421" on="1"/>
        <pt x="229" y="421" on="0"/>
        <pt x="163" y="389" on="0"/>
        <pt x="135" y="354" on="1"/>
        <pt x="52" y="437" on="1"/>
        <pt x="99" y="486" on="0"/>
        <pt x="216" y="539" on="0"/>
      </contour>
      <contour>
        <pt x="278" y="316" on="1"/>
        <pt x="434" y="316" on="1"/>
        <pt x="425" y="224" on="1"/>
        <pt x="275" y="224" on="1"/>
        <pt x="225" y="224" on="0"/>
        <pt x="172" y="187" on="0"/>
        <pt x="172" y="154" on="1"/>
        <pt x="172" y="128" on="0"/>
        <pt x="213" y="95" on="0"/>
        <pt x="244" y="95" on="1"/>
        <pt x="290" y="95" on="0"/>
        <pt x="366" y="140" on="0"/>
        <pt x="385" y="176" on="1"/>
        <pt x="411" y="107" on="1"/>
        <pt x="379" y="55" on="0"/>
        <pt x="277" y="-10" on="0"/>
        <pt x="220" y="-10" on="1"/>
        <pt x="144" y="-10" on="0"/>
        <pt x="42" y="77" on="0"/>
        <pt x="42" y="149" on="1"/>
        <pt x="42" y="231" on="0"/>
        <pt x="161" y="316" on="0"/>
      </contour>
      <contour>
        <pt x="417" y="627" on="1"/>
        <pt x="273" y="708" on="1"/>
        <pt x="303" y="708" on="1"/>
        <pt x="160" y="627" on="1"/>
        <pt x="111" y="670" on="1"/>
        <pt x="243" y="792" on="1"/>
        <pt x="334" y="792" on="1"/>
        <pt x="466" y="670" on="1"/>
      </contour>
    </TTGlyph>
    <TTGlyph name="acute" xMin="29" yMin="567" xMax="263" yMax="765">
      <contour>
        <pt x="263" y="670" on="1"/>
        <pt x="71" y="567" on="1"/>
        <pt x="29" y="630" on="1"/>
        <pt x="193" y="765" on="1"/>
      </contour>
    </TTGlyph>
    <TTGlyph name="acute.case" xMin="11" yMin="561" xMax="246" yMax="761">
      <contour>
        <pt x="246" y="665" on="1"/>
        <pt x="54" y="561" on="1"/>
        <pt x="11" y="626" on="1"/>
        <pt x="175" y="761" on="1"/>
      </contour>
    </TTGlyph>
    <TTGlyph name="acutecomb" xMin="29" yMin="607" xMax="263" yMax="805">
      <contour>
        <pt x="263" y="710" on="1"/>
        <pt x="71" y="607" on="1"/>
        <pt x="29" y="670" on="1"/>
        <pt x="193" y="805" on="1"/>
      </contour>
    </TTGlyph>
    <TTGlyph name="acutecomb.case" xMin="11" yMin="561" xMax="246" yMax="761">
      <contour>
        <pt x="246" y="665" on="1"/>
        <pt x="54" y="561" on="1"/>
        <pt x="11" y="626" on="1"/>
        <pt x="175" y="761" on="1"/>
      </contour>
    </TTGlyph>
    <TTGlyph name="acutecomb_dotaccentcomb" xMin="-4" yMin="613" xMax="230" yMax="982">
      <contour>
        <pt x="230" y="717" on="1"/>
        <pt x="38" y="613" on="1"/>
        <pt x="-4" y="677" on="1"/>
        <pt x="160" y="812" on="1"/>
      </contour>
      <contour>
        <pt x="173" y="907" on="1"/>
        <pt x="173" y="874" on="0"/>
        <pt x="128" y="832" on="0"/>
        <pt x="89" y="832" on="1"/>
        <pt x="49" y="832" on="0"/>
        <pt x="5" y="871" on="0"/>
        <pt x="5" y="907" on="1"/>
        <pt x="5" y="940" on="0"/>
        <pt x="50" y="982" on="0"/>
        <pt x="89" y="982" on="1"/>
        <pt x="129" y="982" on="0"/>
        <pt x="173" y="943" on="0"/>
      </contour>
    </TTGlyph>
    <TTGlyph name="adieresis" xMin="35" yMin="-10" xMax="577" yMax="786">
      <contour>
        <pt x="441" y="528" on="1"/>
        <pt x="577" y="528" on="1"/>
        <pt x="577" y="0" on="1"/>
        <pt x="440" y="0" on="1"/>
        <pt x="440" y="127" on="1"/>
        <pt x="471" y="130" on="1"/>
        <pt x="456" y="75" on="0"/>
        <pt x="344" y="-10" on="0"/>
        <pt x="270" y="-10" on="1"/>
        <pt x="171" y="-10" on="0"/>
        <pt x="35" y="147" on="0"/>
        <pt x="35" y="265" on="1"/>
        <pt x="35" y="386" on="0"/>
        <pt x="173" y="539" on="0"/>
        <pt x="276" y="539" on="1"/>
        <pt x="355" y="539" on="0"/>
        <pt x="457" y="453" on="0"/>
        <pt x="470" y="393" on="1"/>
        <pt x="441" y="398" on="1"/>
      </contour>
      <contour>
        <pt x="172" y="265" on="1"/>
        <pt x="172" y="195" on="0"/>
        <pt x="247" y="109" on="0"/>
        <pt x="307" y="109" on="1"/>
        <pt x="368" y="109" on="0"/>
        <pt x="444" y="195" on="0"/>
        <pt x="444" y="265" on="1"/>
        <pt x="444" y="335" on="0"/>
        <pt x="368" y="421" on="0"/>
        <pt x="307" y="421" on="1"/>
        <pt x="247" y="421" on="0"/>
        <pt x="172" y="335" on="0"/>
      </contour>
      <contour>
        <pt x="289" y="709" on="1"/>
        <pt x="289" y="675" on="0"/>
        <pt x="247" y="632" on="0"/>
        <pt x="210" y="632" on="1"/>
        <pt x="172" y="632" on="0"/>
        <pt x="131" y="672" on="0"/>
        <pt x="131" y="709" on="1"/>
        <pt x="131" y="743" on="0"/>
        <pt x="173" y="786" on="0"/>
        <pt x="210" y="786" on="1"/>
        <pt x="248" y="786" on="0"/>
        <pt x="289" y="746" on="0"/>
      </contour>
      <contour>
        <pt x="513" y="709" on="1"/>
        <pt x="513" y="675" on="0"/>
        <pt x="470" y="632" on="0"/>
        <pt x="434" y="632" on="1"/>
        <pt x="396" y="632" on="0"/>
        <pt x="354" y="672" on="0"/>
        <pt x="354" y="709" on="1"/>
        <pt x="354" y="743" on="0"/>
        <pt x="397" y="786" on="0"/>
        <pt x="434" y="786" on="1"/>
        <pt x="472" y="786" on="0"/>
        <pt x="513" y="746" on="0"/>
      </contour>
    </TTGlyph>
    <TTGlyph name="adieresis.ss01" xMin="42" yMin="-10" xMax="496" yMax="790">
      <contour>
        <pt x="286" y="539" on="1"/>
        <pt x="382" y="539" on="0"/>
        <pt x="496" y="449" on="0"/>
        <pt x="496" y="360" on="1"/>
        <pt x="496" y="0" on="1"/>
        <pt x="367" y="0" on="1"/>
        <pt x="367" y="333" on="1"/>
        <pt x="367" y="376" on="0"/>
        <pt x="314" y="421" on="0"/>
        <pt x="270" y="421" on="1"/>
        <pt x="229" y="421" on="0"/>
        <pt x="163" y="389" on="0"/>
        <pt x="135" y="354" on="1"/>
        <pt x="52" y="437" on="1"/>
        <pt x="99" y="486" on="0"/>
        <pt x="216" y="539" on="0"/>
      </contour>
      <contour>
        <pt x="278" y="316" on="1"/>
        <pt x="434" y="316" on="1"/>
        <pt x="425" y="224" on="1"/>
        <pt x="275" y="224" on="1"/>
        <pt x="225" y="224" on="0"/>
        <pt x="172" y="187" on="0"/>
        <pt x="172" y="154" on="1"/>
        <pt x="172" y="128" on="0"/>
        <pt x="213" y="95" on="0"/>
        <pt x="244" y="95" on="1"/>
        <pt x="290" y="95" on="0"/>
        <pt x="366" y="140" on="0"/>
        <pt x="385" y="176" on="1"/>
        <pt x="411" y="107" on="1"/>
        <pt x="379" y="55" on="0"/>
        <pt x="277" y="-10" on="0"/>
        <pt x="220" y="-10" on="1"/>
        <pt x="144" y="-10" on="0"/>
        <pt x="42" y="77" on="0"/>
        <pt x="42" y="149" on="1"/>
        <pt x="42" y="231" on="0"/>
        <pt x="161" y="316" on="0"/>
      </contour>
      <contour>
        <pt x="250" y="713" on="1"/>
        <pt x="250" y="679" on="0"/>
        <pt x="208" y="637" on="0"/>
        <pt x="171" y="637" on="1"/>
        <pt x="133" y="637" on="0"/>
        <pt x="92" y="677" on="0"/>
        <pt x="92" y="713" on="1"/>
        <pt x="92" y="747" on="0"/>
        <pt x="134" y="790" on="0"/>
        <pt x="171" y="790" on="1"/>
        <pt x="209" y="790" on="0"/>
        <pt x="250" y="750" on="0"/>
      </contour>
      <contour>
        <pt x="474" y="713" on="1"/>
        <pt x="474" y="679" on="0"/>
        <pt x="431" y="637" on="0"/>
        <pt x="395" y="637" on="1"/>
        <pt x="357" y="637" on="0"/>
        <pt x="315" y="677" on="0"/>
        <pt x="315" y="713" on="1"/>
        <pt x="315" y="747" on="0"/>
        <pt x="358" y="790" on="0"/>
        <pt x="395" y="790" on="1"/>
        <pt x="433" y="790" on="0"/>
        <pt x="474" y="750" on="0"/>
      </contour>
    </TTGlyph>
</ttFont>
